<svg width="88" height="87" viewBox="0 0 88 87" fill="none" xmlns="http://www.w3.org/2000/svg">
<path d="M54.4718 83.1099H22.4918C22.1318 83.1099 21.8418 82.8199 21.8418 82.4599V20.0499C21.8418 19.6899 22.1318 19.3999 22.4918 19.3999H30.5018C30.8618 19.3999 31.1518 19.6899 31.1518 20.0499V26.7899H46.0418V20.0499C46.0418 19.6899 46.3318 19.3999 46.6918 19.3999H54.4718C54.8318 19.3999 55.1218 19.6899 55.1218 20.0499V82.4599C55.1218 82.8199 54.8318 83.1099 54.4718 83.1099ZM23.1418 81.8099H53.8218V20.6999H47.3418V27.4399C47.3418 27.7999 47.0518 28.0899 46.6918 28.0899H30.5018C30.1418 28.0899 29.8518 27.7999 29.8518 27.4399V20.6999H23.1418V81.8099Z" fill="#7E9A8E"/>
<path d="M50.1314 48.9H26.8414C26.4814 48.9 26.1914 48.61 26.1914 48.25V36.45C26.1914 36.09 26.4814 35.8 26.8414 35.8H50.1314C50.4914 35.8 50.7814 36.09 50.7814 36.45V48.25C50.7814 48.61 50.4914 48.9 50.1314 48.9ZM27.4914 47.6001H49.4814V37.1001H27.4914V47.6001Z" fill="#7E9A8E"/>
<path d="M46.6916 28.09H30.5016C30.1416 28.09 29.8516 27.8 29.8516 27.44V4.64999C29.8516 4.28999 30.1416 4 30.5016 4H46.6916C47.0516 4 47.3416 4.28999 47.3416 4.64999V27.44C47.3416 27.8 47.0516 28.09 46.6916 28.09ZM31.1516 26.79H46.0416V5.3H31.1516V26.79Z" fill="#7E9A8E"/>
<path d="M50.3614 32.3001H26.8414C26.4814 32.3001 26.1914 32.0101 26.1914 31.6501V23.2501C26.1914 22.8901 26.4814 22.6001 26.8414 22.6001H30.5114C30.8714 22.6001 31.1614 22.8901 31.1614 23.2501V26.7901H46.0514V23.2501C46.0514 22.8901 46.3414 22.6001 46.7014 22.6001H50.3714C50.7314 22.6001 51.0214 22.8901 51.0214 23.2501V31.6501C51.0214 32.0101 50.7314 32.3001 50.3714 32.3001H50.3614ZM27.4914 31.0001H49.7114V23.9001H47.3414V27.4401C47.3414 27.8001 47.0514 28.0901 46.6914 28.0901H30.5014C30.1414 28.0901 29.8514 27.8001 29.8514 27.4401V23.9001H27.4814V31.0001H27.4914Z" fill="#7E9A8E"/>
<path d="M66.432 83.1099H54.482C54.122 83.1099 53.832 82.8199 53.832 82.4599V20.0499C53.832 19.6899 54.122 19.3999 54.482 19.3999H66.432C66.792 19.3999 67.082 19.6899 67.082 20.0499V82.4599C67.082 82.8199 66.792 83.1099 66.432 83.1099ZM55.132 81.8099H65.782V20.6999H55.132V81.8099Z" fill="#7E9A8E"/>
<path d="M60.4518 76.98C60.0918 76.98 59.8018 76.69 59.8018 76.33V26.19C59.8018 25.83 60.0918 25.54 60.4518 25.54C60.8118 25.54 61.1018 25.83 61.1018 26.19V76.33C61.1018 76.69 60.8118 76.98 60.4518 76.98Z" fill="#7E9A8E"/>
<path d="M31.2415 66.07H28.4615C28.1015 66.07 27.8115 65.78 27.8115 65.42C27.8115 65.06 28.1015 64.77 28.4615 64.77H31.2415C31.6015 64.77 31.8915 65.06 31.8915 65.42C31.8915 65.78 31.6015 66.07 31.2415 66.07Z" fill="#7E9A8E"/>
<path d="M39.8716 66.07H37.0816C36.7216 66.07 36.4316 65.78 36.4316 65.42C36.4316 65.06 36.7216 64.77 37.0816 64.77H39.8716C40.2316 64.77 40.5216 65.06 40.5216 65.42C40.5216 65.78 40.2316 66.07 39.8716 66.07Z" fill="#7E9A8E"/>
<path d="M48.5122 66.07H45.7223C45.3623 66.07 45.0723 65.78 45.0723 65.42C45.0723 65.06 45.3623 64.77 45.7223 64.77H48.5122C48.8722 64.77 49.1623 65.06 49.1623 65.42C49.1623 65.78 48.8722 66.07 48.5122 66.07Z" fill="#7E9A8E"/>
<path d="M31.2415 57.07H28.4615C28.1015 57.07 27.8115 56.78 27.8115 56.42C27.8115 56.06 28.1015 55.77 28.4615 55.77H31.2415C31.6015 55.77 31.8915 56.06 31.8915 56.42C31.8915 56.78 31.6015 57.07 31.2415 57.07Z" fill="#7E9A8E"/>
<path d="M39.8716 57.07H37.0816C36.7216 57.07 36.4316 56.78 36.4316 56.42C36.4316 56.06 36.7216 55.77 37.0816 55.77H39.8716C40.2316 55.77 40.5216 56.06 40.5216 56.42C40.5216 56.78 40.2316 57.07 39.8716 57.07Z" fill="#7E9A8E"/>
<path d="M48.5122 57.07H45.7223C45.3623 57.07 45.0723 56.78 45.0723 56.42C45.0723 56.06 45.3623 55.77 45.7223 55.77H48.5122C48.8722 55.77 49.1623 56.06 49.1623 56.42C49.1623 56.78 48.8722 57.07 48.5122 57.07Z" fill="#7E9A8E"/>
<path d="M31.2415 75.09H28.4615C28.1015 75.09 27.8115 74.8 27.8115 74.44C27.8115 74.08 28.1015 73.79 28.4615 73.79H31.2415C31.6015 73.79 31.8915 74.08 31.8915 74.44C31.8915 74.8 31.6015 75.09 31.2415 75.09Z" fill="#7E9A8E"/>
<path d="M39.8716 75.09H37.0816C36.7216 75.09 36.4316 74.8 36.4316 74.44C36.4316 74.08 36.7216 73.79 37.0816 73.79H39.8716C40.2316 73.79 40.5216 74.08 40.5216 74.44C40.5216 74.8 40.2316 75.09 39.8716 75.09Z" fill="#7E9A8E"/>
<path d="M48.5122 75.09H45.7223C45.3623 75.09 45.0723 74.8 45.0723 74.44C45.0723 74.08 45.3623 73.79 45.7223 73.79H48.5122C48.8722 73.79 49.1623 74.08 49.1623 74.44C49.1623 74.8 48.8722 75.09 48.5122 75.09Z" fill="#7E9A8E"/>
<path d="M42.5317 10.29H34.6617C34.3017 10.29 34.0117 9.99998 34.0117 9.63998C34.0117 9.27998 34.3017 8.98999 34.6617 8.98999H42.5317C42.8917 8.98999 43.1817 9.27998 43.1817 9.63998C43.1817 9.99998 42.8917 10.29 42.5317 10.29Z" fill="#7E9A8E"/>
<path d="M42.5317 16.6999H34.6617C34.3017 16.6999 34.0117 16.4099 34.0117 16.0499C34.0117 15.6899 34.3017 15.3999 34.6617 15.3999H42.5317C42.8917 15.3999 43.1817 15.6899 43.1817 16.0499C43.1817 16.4099 42.8917 16.6999 42.5317 16.6999Z" fill="#7E9A8E"/>
<path d="M42.5317 23.1101H34.6617C34.3017 23.1101 34.0117 22.8201 34.0117 22.4601C34.0117 22.1001 34.3017 21.8101 34.6617 21.8101H42.5317C42.8917 21.8101 43.1817 22.1001 43.1817 22.4601C43.1817 22.8201 42.8917 23.1101 42.5317 23.1101Z" fill="#7E9A8E"/>
</svg>
