<svg width="87" height="87" viewBox="0 0 87 87" fill="none" xmlns="http://www.w3.org/2000/svg">
<path d="M82.46 65.59H4.64999C4.28999 65.59 4 65.3 4 64.94V22.65C4 22.29 4.28999 22 4.64999 22H82.46C82.82 22 83.11 22.29 83.11 22.65V64.94C83.11 65.3 82.82 65.59 82.46 65.59ZM5.29999 64.29H81.81V23.3H5.29999V64.29Z" fill="#7E9A8E"/>
<path d="M69.4102 62.2198H17.7102C17.3502 62.2198 17.0602 61.9299 17.0602 61.5699C17.0602 56.9199 13.2803 53.1399 8.64026 53.1399C8.28026 53.1399 7.99023 52.8499 7.99023 52.4899V35.1099C7.99023 34.7499 8.28026 34.4598 8.64026 34.4598C13.2903 34.4598 17.0602 30.6798 17.0602 26.0298C17.0602 25.6698 17.3502 25.3799 17.7102 25.3799H69.4102C69.7702 25.3799 70.0602 25.6698 70.0602 26.0298C70.0602 30.6798 73.8402 34.4598 78.4902 34.4598C78.8502 34.4598 79.1403 34.7499 79.1403 35.1099V52.4899C79.1403 52.8499 78.8502 53.1399 78.4902 53.1399C73.8402 53.1399 70.0602 56.9199 70.0602 61.5699C70.0602 61.9299 69.7702 62.2198 69.4102 62.2198ZM18.3402 60.9199H68.7803C69.1003 56.0699 72.9903 52.1799 77.8403 51.8599V35.7399C72.9903 35.4199 69.1003 31.5299 68.7803 26.6799H18.3402C18.0202 31.5299 14.1303 35.4199 9.29025 35.7399V51.8599C14.1403 52.1799 18.0202 56.0699 18.3402 60.9199Z" fill="#7E9A8E"/>
<path d="M43.7 51.4C39.45 51.4 36 47.95 36 43.7C36 39.45 39.45 36 43.7 36C47.95 36 51.41 39.46 51.41 43.7C51.41 47.94 47.95 51.4 43.7 51.4ZM43.7 37.3C40.17 37.3 37.3 40.17 37.3 43.7C37.3 47.23 40.17 50.1 43.7 50.1C47.23 50.1 50.11 47.23 50.11 43.7C50.11 40.17 47.24 37.3 43.7 37.3Z" fill="#7E9A8E"/>
</svg>
