<svg width="18" height="18" viewBox="0 0 18 18" fill="none" xmlns="http://www.w3.org/2000/svg">
<g clip-path="url(#clip0_31_107)">
<path d="M8.99998 0C4.03749 0 0 4.03749 0 8.99998C0 13.9625 4.03749 18 8.99998 18C13.9625 18 18 13.9625 18 8.99998C18 4.03749 13.9625 0 8.99998 0ZM8.99998 17.2174C4.46868 17.2174 0.782596 13.5313 0.782596 8.99998C0.782596 4.46868 4.46868 0.782596 8.99998 0.782596C13.5313 0.782596 17.2174 4.46868 17.2174 8.99998C17.2174 13.5313 13.5313 17.2174 8.99998 17.2174Z" fill="#757575"/>
<path d="M12.7988 12.2456L9.39131 8.83806V2.73922C9.39131 2.52322 9.21599 2.3479 8.99999 2.3479C8.78399 2.3479 8.60867 2.52322 8.60867 2.73922V9.00009C8.60867 9.10417 8.65016 9.20358 8.72295 9.27713L12.2447 12.7989C12.3214 12.8748 12.4215 12.9131 12.5217 12.9131C12.6219 12.9131 12.7221 12.8748 12.7988 12.7989C12.9514 12.6462 12.9514 12.3982 12.7988 12.2456Z" fill="#757575"/>
</g>
<defs>
<clipPath id="clip0_31_107">
<rect width="18" height="18" fill="white"/>
</clipPath>
</defs>
</svg>
