<svg width="87" height="88" viewBox="0 0 87 88" fill="none" xmlns="http://www.w3.org/2000/svg">
<path d="M18.8237 16.842C22.9149 16.842 26.6307 18.4926 29.2982 21.1757C31.9813 23.8589 33.6631 27.559 33.6631 31.6502C33.6631 35.7414 31.9891 39.4571 29.3295 42.148C26.6463 44.8312 22.9228 46.4817 18.8316 46.4817C14.7404 46.4817 11.0481 44.8312 8.35717 42.148C5.67403 39.4649 4 35.7414 4 31.6502C4 27.559 5.67403 23.8667 8.35717 21.1757C11.0168 18.4926 14.7404 16.842 18.8316 16.842H18.8237ZM28.4533 22.0128C25.9892 19.5487 22.5864 18.0233 18.8237 18.0233C15.0611 18.0233 11.6505 19.5487 9.18636 22.0128C6.72225 24.4769 5.19685 27.8797 5.19685 31.6423C5.19685 35.405 6.72225 38.8391 9.18636 41.3032C11.6505 43.7673 15.0533 45.2927 18.8237 45.2927C22.5942 45.2927 25.9892 43.7673 28.4533 41.3032C30.9409 38.8391 32.4663 35.4128 32.4663 31.6423C32.4663 27.8719 30.9409 24.4769 28.4533 22.0128Z" fill="#7E9A8E"/>
<path d="M18.2295 17.4366C18.2295 17.1158 18.5033 16.842 18.824 16.842C19.1447 16.842 19.4107 17.1158 19.4107 17.4366V22.1927C19.4107 22.5134 19.1369 22.7794 18.824 22.7794C18.5111 22.7794 18.2295 22.5134 18.2295 22.1927V17.4366Z" fill="#7E9A8E"/>
<path d="M33.0372 31.0634C33.3579 31.0634 33.6238 31.3371 33.6238 31.6579C33.6238 32.002 33.3579 32.2524 33.0372 32.2524H28.281C27.9603 32.2524 27.6865 32.002 27.6865 31.6579C27.6865 31.3371 27.9603 31.0634 28.281 31.0634H33.0372Z" fill="#7E9A8E"/>
<path d="M19.4107 45.8638C19.4107 46.208 19.1369 46.4818 18.824 46.4818C18.5111 46.4818 18.2295 46.208 18.2295 45.8638V41.1311C18.2295 40.787 18.5033 40.5366 18.824 40.5366C19.1447 40.5366 19.4107 40.7791 19.4107 41.1311V45.8638Z" fill="#7E9A8E"/>
<path d="M4.60233 32.2446C4.28161 32.2446 4.00781 31.9943 4.00781 31.6501C4.00781 31.3293 4.28161 31.0555 4.60233 31.0555H9.35846C9.67919 31.0555 9.95296 31.3293 9.95296 31.6501C9.95296 31.9943 9.67919 32.2446 9.35846 32.2446H4.60233Z" fill="#7E9A8E"/>
<path d="M13.8723 23.3738C13.7237 23.0765 13.8488 22.7089 14.1461 22.5837C14.4433 22.4351 14.7875 22.5603 14.9361 22.8575L19.5906 32.5184L26.7326 33.3789C27.0768 33.4258 27.3036 33.7231 27.2723 34.0438C27.2254 34.3645 26.9281 34.6148 26.6074 34.5601L19.1447 33.6448C18.9491 33.6214 18.777 33.4962 18.6753 33.3241L13.8723 23.3738Z" fill="#7E9A8E"/>
<path d="M31.6057 25.3921H58.4605C58.7812 25.3921 59.055 25.6659 59.055 26.0101V65.5766C59.055 65.9208 58.7812 66.1711 58.4605 66.1711H25.0034C24.6827 66.1711 24.4089 65.9208 24.4089 65.5766V65.5531C24.3385 64.3719 23.8144 63.2846 23.0087 62.5023C22.1717 61.7122 21.0609 61.2194 19.8092 61.2194C18.5576 61.2194 17.4703 61.7122 16.6333 62.5023C15.8197 63.2924 15.28 64.3954 15.233 65.6078C15.2096 65.9286 14.9358 66.1789 14.6385 66.1789H9.29572C8.95153 66.1789 8.67773 65.9286 8.67773 65.5844V41.663C9.06886 42.0307 9.46782 42.3983 9.88242 42.7191V64.9899H14.0988C14.2944 63.6835 14.9123 62.5023 15.8276 61.6418C16.8601 60.6562 18.2917 60.0382 19.8171 60.0382C21.3425 60.0382 22.774 60.6562 23.8301 61.6418C24.7453 62.5023 25.3554 63.6835 25.5588 64.9899H57.8582V26.6046H32.1376C31.989 26.1822 31.8169 25.791 31.6213 25.3999L31.6057 25.3921Z" fill="#7E9A8E"/>
<path d="M58.4608 34.2394H69.5218C69.7174 34.2394 69.8895 34.3411 70.0147 34.4819L82.875 50.6433C82.9767 50.7685 83.0001 50.8858 83.0001 51.011V65.5687C83.0001 65.9129 82.7576 66.1633 82.4134 66.1633H77.0706C76.7499 66.1633 76.4761 65.9129 76.4761 65.5687V65.5453C76.4057 64.3641 75.8816 63.2767 75.0446 62.4945C74.2311 61.7044 73.0968 61.2116 71.8686 61.2116C70.6405 61.2116 69.5297 61.7044 68.6927 62.4945C67.8791 63.2846 67.3394 64.3875 67.2846 65.6C67.2611 65.9208 66.9873 66.1711 66.6901 66.1711H58.4608C58.1166 66.1711 57.8428 65.9208 57.8428 65.5766V34.8261C57.8428 34.5054 58.1166 34.2316 58.4608 34.2316V34.2394ZM69.2246 35.4206H59.0475V64.982H66.1425C66.3146 63.6757 66.9561 62.4945 67.8713 61.634C68.9039 60.6483 70.3119 60.0304 71.8608 60.0304C73.4097 60.0304 74.8177 60.6483 75.8738 61.634C76.789 62.4945 77.3992 63.6757 77.5947 64.982H81.8111V51.23L69.2246 35.4128V35.4206Z" fill="#7E9A8E"/>
<path d="M32.5679 35.3737H53.2664C53.6106 35.3737 53.8609 35.6475 53.8609 35.9916C53.8609 36.3124 53.6106 36.5862 53.2664 36.5862H32.1768C32.3254 36.195 32.4505 35.7961 32.5679 35.3815V35.3737Z" fill="#7E9A8E"/>
<path d="M9.28789 46.3879C8.94369 46.3879 8.66992 46.1141 8.66992 45.7934C8.66992 45.4726 8.94369 45.1989 9.28789 45.1989H14.4351C15.8119 45.6447 17.2904 45.8872 18.8236 45.8872C20.3568 45.8872 21.8275 45.6447 23.2121 45.1989H53.2742C53.6183 45.1989 53.8687 45.4726 53.8687 45.7934C53.8687 46.1141 53.6183 46.3879 53.2742 46.3879H9.29572H9.28789Z" fill="#7E9A8E"/>
<path d="M9.28789 56.1895C8.94369 56.1895 8.66992 55.9392 8.66992 55.595C8.66992 55.2743 8.94369 55.0083 9.28789 55.0083H53.2663C53.6105 55.0083 53.8608 55.2821 53.8608 55.595C53.8608 55.9392 53.6105 56.1895 53.2663 56.1895H9.28789Z" fill="#7E9A8E"/>
<path d="M58.4608 51.6602C58.1166 51.6602 57.8428 51.3864 57.8428 51.0735C57.8428 50.7606 58.1166 50.479 58.4608 50.479H82.4056C82.7498 50.479 82.9923 50.7528 82.9923 51.0735C82.9923 51.3943 82.7498 51.6602 82.4056 51.6602H58.4608Z" fill="#7E9A8E"/>
<path d="M19.8092 60.0304C21.4128 60.0304 22.8678 60.6718 23.9239 61.7279C24.9564 62.7605 25.6214 64.2155 25.6214 65.8191C25.6214 67.4227 24.9564 68.8777 23.9239 69.9103L23.8769 69.9572C22.8444 70.9898 21.4128 71.6078 19.8092 71.6078C18.2056 71.6078 16.7819 70.9663 15.718 69.9103C14.6854 68.8777 14.0205 67.4227 14.0205 65.8191C14.0205 64.2155 14.6854 62.7683 15.718 61.7279L15.7649 61.7044C16.7975 60.6718 18.229 60.0304 19.8014 60.0304H19.8092ZM23.0869 62.5649C22.2498 61.7279 21.0921 61.2116 19.8092 61.2116C18.5263 61.2116 17.4233 61.7279 16.5785 62.5414L16.555 62.5649C15.718 63.4019 15.2252 64.5597 15.2252 65.8191C15.2252 67.0785 15.718 68.2597 16.555 69.0733C17.392 69.9103 18.5498 70.4266 19.8092 70.4266C21.0686 70.4266 22.2264 69.9338 23.0399 69.1202L23.0869 69.0733C23.9004 68.2597 24.4167 67.102 24.4167 65.8191C24.4167 64.5362 23.9004 63.4019 23.0869 62.5649Z" fill="#7E9A8E"/>
<path d="M71.8688 60.0304C73.4724 60.0304 74.9274 60.6718 75.9834 61.7279C77.016 62.7605 77.6575 64.2155 77.6575 65.8191C77.6575 67.4227 77.016 68.8777 75.9834 69.9103L75.9365 69.9572C74.9039 70.9898 73.4724 71.6078 71.8688 71.6078C70.2651 71.6078 68.8415 70.9663 67.7776 69.9103C66.745 68.8777 66.0801 67.4227 66.0801 65.8191C66.0801 64.2155 66.745 62.7683 67.7776 61.7279L67.8011 61.7044C68.8571 60.6718 70.2886 60.0304 71.8688 60.0304ZM75.123 62.5649C74.3094 61.7279 73.1517 61.2116 71.8688 61.2116C70.5859 61.2116 69.4829 61.7279 68.6381 62.5414L68.6146 62.5649C67.7776 63.4019 67.2613 64.5597 67.2613 65.8191C67.2613 67.0785 67.7776 68.2597 68.6146 69.0733C69.4516 69.9103 70.6093 70.4266 71.8688 70.4266C73.1282 70.4266 74.2859 69.9338 75.0995 69.1202L75.123 69.0733C75.96 68.2597 76.4763 67.102 76.4763 65.8191C76.4763 64.5362 75.96 63.4019 75.123 62.5649Z" fill="#7E9A8E"/>
<path d="M60.6043 38.5261H68.466C68.7867 38.5261 69.0604 38.7999 69.0604 39.1206V48.1166C69.0604 48.4608 68.7867 48.7346 68.466 48.7346H60.6043C60.2835 48.7346 60.0098 48.4608 60.0098 48.1166V39.1206C60.0098 38.7999 60.2835 38.5261 60.6043 38.5261ZM67.8714 39.7073H61.2223V47.5143H67.8714V39.7073Z" fill="#7E9A8E"/>
</svg>
