<svg width="19" height="19" viewBox="0 0 19 19" fill="none" xmlns="http://www.w3.org/2000/svg">
<circle cx="9.5" cy="9.5" r="9.5" fill="#7E9A8E"/>
<path d="M9.21875 13.8435C9.83056 13.8132 10.4093 13.5565 10.8424 13.1234C11.2755 12.6903 11.5322 12.1116 11.5625 11.4998" stroke="white" stroke-width="0.8" stroke-linecap="round"/>
<path d="M9.21875 15.3185C8.20638 15.3172 7.23586 14.9144 6.51999 14.1985C5.80551 13.4841 5.40292 12.5159 5.40001 11.5056C5.42413 10.7562 5.64471 10.0262 6.03971 9.3888C6.0399 9.3885 6.04008 9.3882 6.04027 9.3879L9.15175 4.43122C9.1592 4.42236 9.16834 4.41504 9.17867 4.40972L9.01132 4.085L9.17867 4.40972C9.19106 4.40333 9.2048 4.4 9.21875 4.4C9.2327 4.4 9.24644 4.40333 9.25884 4.40972C9.26917 4.41505 9.27832 4.42237 9.28576 4.43124L12.3843 9.36466C12.3844 9.36478 12.3845 9.3649 12.3846 9.36502C12.7867 10.0089 13.0119 10.7474 13.0375 11.506C13.0345 12.5161 12.6319 13.4841 11.9175 14.1985C11.2016 14.9144 10.2311 15.3172 9.21875 15.3185Z" stroke="white" stroke-width="0.8"/>
</svg>
