<svg width="18" height="18" viewBox="0 0 18 18" fill="none" xmlns="http://www.w3.org/2000/svg">
<g clip-path="url(#clip0_17_498)">
<path d="M16.2279 15.4726H1.77218C1.30231 15.4721 0.851836 15.2852 0.519603 14.9529C0.18737 14.6206 0.000508277 14.1701 1.52588e-05 13.7003V4.77257C0.000508277 4.3027 0.18737 3.85222 0.519603 3.51995C0.851836 3.18769 1.30231 3.00078 1.77218 3.00024H16.2279C16.6977 3.00078 17.1482 3.18769 17.4804 3.51995C17.8127 3.85222 17.9995 4.3027 18 4.77257V13.7003C17.9995 14.1701 17.8127 14.6206 17.4804 14.9529C17.1482 15.2852 16.6977 15.4721 16.2279 15.4726ZM1.77218 3.67761C1.48189 3.67792 1.20358 3.79339 0.998326 3.99868C0.793076 4.20396 0.677651 4.48228 0.677382 4.77257V13.7003C0.677651 13.9906 0.793076 14.2689 0.998326 14.4742C1.20358 14.6794 1.48189 14.7949 1.77218 14.7952H16.2279C16.5181 14.7949 16.7965 14.6794 17.0017 14.4742C17.207 14.2689 17.3224 13.9906 17.3226 13.7003V4.77257C17.3224 4.48228 17.207 4.20396 17.0017 3.99868C16.7965 3.79339 16.5181 3.67792 16.2279 3.67761H1.77218Z" fill="currentColor"/>
<path d="M9.00003 11.2295C8.91747 11.2295 8.83774 11.1994 8.77582 11.1448L0.613556 3.93967L1.0618 3.43164L9.00003 10.4397L16.9386 3.43249L17.3868 3.94051L9.22458 11.1457C9.1625 11.2001 9.08261 11.2299 9.00003 11.2295Z" fill="currentColor"/>
<path d="M0.429398 14.4092L5.91272 8.16152L6.4221 8.60858L0.938777 14.8562L0.429398 14.4092Z" fill="currentColor"/>
<path d="M11.5952 8.60181L12.1046 8.15474L17.588 14.4025L17.0786 14.8496L11.5952 8.60181Z" fill="currentColor"/>
</g>
<defs>
<clipPath id="clip0_17_498">
<rect width="18" height="18" fill="white"/>
</clipPath>
</defs>
</svg>
