<svg width="16" height="15" viewBox="0 0 16 15" fill="none" xmlns="http://www.w3.org/2000/svg">
<g clip-path="url(#clip0_17_632)">
<path d="M8 3.01587C4.94303 3.01587 2.17081 4.57687 0.125192 7.11234C-0.0417306 7.32006 -0.0417306 7.61027 0.125192 7.81799C2.17081 10.3565 4.94303 11.9175 8 11.9175C11.057 11.9175 13.8292 10.3565 15.8748 7.82105C16.0417 7.61332 16.0417 7.32312 15.8748 7.11539C13.8292 4.57687 11.057 3.01587 8 3.01587ZM8.21929 10.6009C6.19004 10.72 4.51427 9.15905 4.64191 7.26202C4.74665 5.69797 6.10494 4.43024 7.78071 4.33248C9.80996 4.21335 11.4857 5.77434 11.3581 7.67136C11.2501 9.23236 9.89179 10.5001 8.21929 10.6009ZM8.11783 9.15294C7.02465 9.21709 6.1213 8.37702 6.19331 7.35672C6.24895 6.5136 6.9821 5.83238 7.88545 5.7774C8.97862 5.71325 9.88197 6.55331 9.80996 7.57361C9.75105 8.41979 9.0179 9.101 8.11783 9.15294Z" fill="#ABC4C0"/>
</g>
<defs>
<clipPath id="clip0_17_632">
<rect width="16" height="14.9333" fill="white"/>
</clipPath>
</defs>
</svg>
