<svg width="19" height="19" viewBox="0 0 19 19" fill="none" xmlns="http://www.w3.org/2000/svg">
<circle cx="9.5" cy="9.5" r="9.5" fill="#7E9A8E"/>
<path d="M13.5091 9.09382L13.509 9.09355C13.2469 8.50379 12.866 7.97445 12.39 7.53865L12.3897 7.53837L12.28 7.43766L12.231 7.57809C12.231 7.57827 12.2309 7.57844 12.2308 7.57862C12.0906 7.98351 11.8397 8.37848 11.5047 8.75159L11.4995 8.75733L11.4995 8.75728C11.3914 8.87304 11.2626 8.90479 11.1832 8.91201C11.0885 8.92061 10.9428 8.90314 10.8173 8.7898C10.7 8.68571 10.6476 8.53834 10.6553 8.39918L10.6554 8.39683C10.7037 7.61193 10.4702 6.69182 9.9151 5.65057L9.91478 5.64996C9.47012 4.81249 8.85716 4.16662 8.09482 3.7167C8.09474 3.71665 8.09465 3.71659 8.09456 3.71654L7.94056 3.62593L7.9489 3.80784L7.9489 3.80788C7.97267 4.32761 7.91373 4.80865 7.75858 5.22421C7.58185 5.69818 7.32808 6.13802 7.00445 6.53214L7.00428 6.53235C6.77933 6.80592 6.52438 7.05336 6.24421 7.27002L6.2433 7.27072C5.67365 7.70862 5.21041 8.26968 4.88823 8.9119C4.5675 9.559 4.40042 10.2714 4.4 10.9936L13.5091 9.09382ZM13.5091 9.09382C13.7777 9.69709 13.9125 10.336 13.9125 10.9951L13.9125 10.9959C13.9138 11.6263 13.7867 12.2504 13.5389 12.8301L13.5388 12.8304C13.2999 13.3904 12.9574 13.8949 12.5197 14.3272L12.5187 14.3282C12.0854 14.7593 11.5722 15.1019 11.0079 15.3367L11.0077 15.3369C10.421 15.5815 9.79952 15.7059 9.15625 15.7059C8.513 15.7059 7.89181 15.5815 7.30557 15.3357L7.30504 15.3355M13.5091 9.09382L7.30504 15.3355M7.30504 15.3355C6.73952 15.0993 6.23171 14.7592 5.793 14.3259C5.35965 13.8973 5.01345 13.3888 4.77354 12.8285M7.30504 15.3355L4.77354 12.8285M4.77354 12.8285C4.52548 12.2474 4.40003 11.6316 4.4 10.9938L4.77354 12.8285Z" stroke="white" stroke-width="0.8" stroke-linecap="round"/>
</svg>
