<svg width="19" height="19" viewBox="0 0 19 19" fill="none" xmlns="http://www.w3.org/2000/svg">
<circle cx="9.5" cy="9.5" r="9.5" fill="#7E9A8E"/>
<path d="M4.52823 11.3047C4.52823 10.9656 4.80341 10.688 5.14494 10.688C5.48646 10.688 5.76165 10.9631 5.76165 11.3047C5.76165 11.3464 5.77147 11.3857 5.79113 11.4226C5.87467 11.973 6.34886 12.3956 6.92135 12.3956C7.49383 12.3956 8.00489 11.9386 8.0614 11.3587C8.06386 11.3415 8.06632 11.3243 8.06632 11.3047C8.06632 10.9656 8.34149 10.688 8.68301 10.688C9.02454 10.688 9.29972 10.9631 9.29972 11.3047C9.29972 11.3464 9.30955 11.3857 9.32921 11.4226C9.41275 11.973 9.88696 12.3956 10.4594 12.3956C11.0319 12.3956 11.543 11.9386 11.5995 11.3587C11.6019 11.3415 11.6044 11.3243 11.6044 11.3047C11.6044 10.9656 11.8796 10.688 12.2211 10.688C12.5626 10.688 12.8378 10.9631 12.8378 11.3047C12.8378 11.4496 12.9558 11.57 13.1032 11.57C13.2481 11.57 13.3661 11.4521 13.3661 11.3047C13.3661 10.6732 12.8526 10.1597 12.2211 10.1597C11.6265 10.1597 11.1376 10.6167 11.0835 11.1941C11.0786 11.2113 11.0786 11.2285 11.0786 11.2482C11.0786 11.5872 10.8034 11.8649 10.4619 11.8649C10.1204 11.8649 9.84519 11.5872 9.84519 11.2482C9.84519 11.2064 9.83536 11.1671 9.8157 11.1302C9.73217 10.5798 9.25796 10.1572 8.68547 10.1572C8.11299 10.1572 7.60193 10.6142 7.54788 11.1916C7.54297 11.2088 7.54298 11.226 7.54298 11.2457C7.54298 11.5848 7.26533 11.8624 6.92627 11.8624C6.5872 11.8624 6.30955 11.5848 6.30955 11.2457C6.30955 11.2039 6.29973 11.1646 6.28007 11.1277C6.19653 10.5774 5.72234 10.1548 5.14986 10.1548C4.51841 10.1548 4.00488 10.6683 4.00488 11.2997C4.00488 11.4447 4.12282 11.5651 4.27024 11.5651C4.28253 11.5651 4.29236 11.5651 4.30219 11.5626C4.43241 11.5454 4.53314 11.4373 4.53314 11.3022L4.52823 11.3047Z" fill="white"/>
<path d="M12.017 5.14496V6.16952H9.25286V5.14496C9.25286 4.80589 9.55508 4.52825 9.92609 4.52825C10.2971 4.52825 10.5993 4.80343 10.5993 5.14496C10.5993 5.28992 10.7172 5.40786 10.8622 5.40786C11.0072 5.40786 11.1276 5.28992 11.1276 5.14496C11.1276 4.51351 10.5895 4 9.92609 4C9.2627 4 8.72461 4.51351 8.72461 5.14496V9.40295C8.72461 9.54791 8.84255 9.6683 8.98751 9.6683C9.13247 9.6683 9.25286 9.55037 9.25286 9.40295V8.49386H12.017V9.40295C12.017 9.54791 12.1349 9.6683 12.2823 9.6683C12.4298 9.6683 12.5477 9.55037 12.5477 9.40295V5.14496C12.5477 4.80589 12.8499 4.52825 13.2209 4.52825C13.5919 4.52825 13.8941 4.80343 13.8941 5.14496C13.8941 5.28992 14.0121 5.40786 14.1595 5.40786C14.3069 5.40786 14.4249 5.28992 14.4249 5.14496C14.4249 4.51351 13.8868 4 13.2234 4C12.56 4 12.0219 4.51351 12.0219 5.14496H12.017ZM9.25286 7.96559V6.69779H12.017V7.96559H9.25286Z" fill="white"/>
<path d="M12.2162 12.7666C11.6216 12.7666 11.1327 13.2212 11.0786 13.801C11.0737 13.8182 11.0737 13.8354 11.0737 13.8551C11.0737 14.1942 10.7985 14.4718 10.457 14.4718C10.1155 14.4718 9.8403 14.1966 9.8403 13.8551C9.8403 13.8133 9.83048 13.774 9.81082 13.7371C9.72728 13.1892 9.25309 12.7642 8.68061 12.7642C8.10812 12.7642 7.59707 13.2187 7.54301 13.7986C7.5381 13.8158 7.53809 13.833 7.53809 13.8526C7.53809 14.1917 7.26045 14.4693 6.92138 14.4693C6.58232 14.4693 6.30467 14.1942 6.30467 13.8526C6.30467 13.8109 6.29484 13.7716 6.27519 13.7347C6.19165 13.1868 5.71745 12.7617 5.14497 12.7617C4.80836 12.7617 4.50615 12.9091 4.2973 13.1401C4.11303 13.344 4 13.6118 4 13.9067C4 14.0516 4.11794 14.1696 4.26536 14.1696C4.27765 14.1696 4.28747 14.1696 4.2973 14.1671C4.42752 14.1524 4.52826 14.0418 4.52826 13.9067C4.52826 13.5676 4.80345 13.29 5.14497 13.29C5.4865 13.29 5.76168 13.5652 5.76168 13.9067C5.76168 13.9484 5.77151 13.9878 5.79117 14.0246C5.8747 14.575 6.3489 14.9976 6.92138 14.9976C7.49386 14.9976 8.00492 14.5431 8.06144 13.9632C8.06389 13.946 8.06635 13.9288 8.06635 13.9091C8.06635 13.5701 8.34153 13.2924 8.68305 13.2924C9.02457 13.2924 9.29976 13.5676 9.29976 13.9091C9.29976 13.9509 9.30959 13.9902 9.32924 14.0271C9.41278 14.5775 9.88699 15 10.4595 15C11.032 15 11.543 14.5455 11.5995 13.9657C11.602 13.9485 11.6044 13.9313 11.6044 13.9116C11.6044 13.5725 11.8796 13.2949 12.2211 13.2949C12.5627 13.2949 12.8379 13.5701 12.8379 13.9116C12.8379 14.0566 12.9558 14.1745 13.1032 14.1745C13.2482 14.1745 13.3661 14.0566 13.3661 13.9116C13.3661 13.634 13.2678 13.3784 13.1032 13.1819C12.8919 12.9288 12.5774 12.7666 12.2236 12.7666H12.2162Z" fill="white"/>
</svg>
