<svg width="19" height="19" viewBox="0 0 19 19" fill="none" xmlns="http://www.w3.org/2000/svg">
<circle cx="9.5" cy="9.5" r="9.5" fill="#7E9A8E"/>
<path d="M6.09795 5.86991C5.4856 6.41261 5.43046 7.35 5.97316 7.95944L11.7687 14.5008C12.0618 14.8317 12.4681 15 12.8773 15C13.2256 15 13.5767 14.8781 13.8582 14.6285L14.3951 14.1526C15.0075 13.6099 15.0626 12.6725 14.5228 12.0601L8.72727 5.51876C8.46608 5.22274 8.10332 5.04861 7.70863 5.02249C7.31685 4.99928 6.94537 5.12697 6.65225 5.37945L5.51752 4.09962C5.40724 3.97773 5.22151 3.96612 5.09962 4.0735C4.97773 4.18088 4.96612 4.36951 5.0735 4.4914L6.20823 5.77124L6.10085 5.86701L6.09795 5.86991ZM7.67961 5.49844C7.94951 5.51585 8.19618 5.63484 8.37321 5.83509L14.1688 12.3765C14.5373 12.7915 14.4996 13.4299 14.0817 13.7985L13.5448 14.2745C13.1298 14.643 12.4913 14.6053 12.1228 14.1903L6.32722 7.64892C6.15019 7.44867 6.06022 7.19038 6.07763 6.92048C6.09504 6.65058 6.21403 6.4039 6.41428 6.22687L6.95408 5.75093C7.13981 5.58841 7.37198 5.49844 7.61866 5.49844C7.63897 5.49844 7.65929 5.49844 7.68251 5.49844H7.67961Z" fill="white"/>
<path d="M11.8125 13.0468C11.9083 13.1571 12.0418 13.2209 12.1898 13.2296C12.2014 13.2296 12.213 13.2296 12.2246 13.2296C12.3581 13.2296 12.4858 13.1803 12.5874 13.0932L13.0169 12.7131C13.1272 12.6173 13.191 12.4838 13.1997 12.3358C13.2084 12.1907 13.1591 12.0485 13.0633 11.9382L8.77687 7.10325C8.6811 6.99297 8.5476 6.92912 8.39959 6.92042C8.25158 6.91171 8.11228 6.96105 8.002 7.05682L7.57249 7.437C7.46221 7.53277 7.39836 7.66626 7.38966 7.81427C7.38095 7.95938 7.43029 8.10158 7.52606 8.21186L11.8125 13.0468ZM7.81046 7.70399L8.23998 7.32381C8.2748 7.29189 8.31833 7.27448 8.36767 7.27448C8.37057 7.27448 8.37638 7.27448 8.37928 7.27448C8.43152 7.27448 8.47795 7.3006 8.51278 7.33832L8.98583 7.87232L8.269 8.50788L7.79595 7.97389C7.76113 7.93616 7.74661 7.88683 7.74952 7.83459C7.75242 7.78235 7.77564 7.73592 7.81336 7.70109L7.81046 7.70399ZM12.7818 12.4461L12.3523 12.8262C12.3146 12.8611 12.2652 12.8785 12.213 12.8727C12.1607 12.8698 12.1143 12.8466 12.0795 12.8088L11.4352 12.0804L12.152 11.4448L12.7963 12.1704C12.8311 12.2081 12.8456 12.2574 12.8427 12.3097C12.8427 12.3619 12.8166 12.4083 12.7789 12.4432L12.7818 12.4461ZM9.89709 8.90257L9.18026 9.53814L8.58243 8.86484L9.29925 8.22928L9.89709 8.90257ZM10.8606 9.98797L10.1438 10.6235L9.49659 9.89219L10.2134 9.25663L10.8606 9.98797ZM11.8386 11.0937L11.1218 11.7292L10.4572 10.9776L11.174 10.342L11.8386 11.0937Z" fill="white"/>
</svg>
