<svg width="30" height="30" viewBox="0 0 30 30" fill="none" xmlns="http://www.w3.org/2000/svg">
<path d="M15.5 8.63265C14.3395 8.63265 13.2052 8.97677 12.2403 9.62148C11.2754 10.2662 10.5234 11.1825 10.0793 12.2547C9.63519 13.3268 9.519 14.5065 9.74539 15.6447C9.97179 16.7828 10.5306 17.8283 11.3512 18.6488C12.1717 19.4694 13.2172 20.0282 14.3553 20.2546C15.4935 20.481 16.6732 20.3648 17.7453 19.9207C18.8175 19.4766 19.7338 18.7246 20.3785 17.7597C21.0232 16.7948 21.3673 15.6605 21.3673 14.5C21.3673 12.9439 20.7492 11.4515 19.6488 10.3512C18.5485 9.25082 17.0561 8.63265 15.5 8.63265ZM15.5 18.8367C14.6423 18.8367 13.8038 18.5824 13.0906 18.1059C12.3775 17.6293 11.8216 16.952 11.4934 16.1596C11.1651 15.3672 11.0793 14.4952 11.2466 13.6539C11.4139 12.8127 11.827 12.04 12.4335 11.4335C13.04 10.827 13.8127 10.4139 14.6539 10.2466C15.4952 10.0793 16.3672 10.1651 17.1596 10.4934C17.952 10.8216 18.6293 11.3775 19.1059 12.0906C19.5824 12.8038 19.8367 13.6423 19.8367 14.5C19.8334 15.6491 19.3754 16.7502 18.5628 17.5628C17.7502 18.3754 16.6491 18.8334 15.5 18.8367ZM21.1122 2H9.88775C8.06101 2 6.30908 2.72567 5.01738 4.01738C3.72567 5.30908 3 7.06101 3 8.88775V20.1122C3 21.939 3.72567 23.6909 5.01738 24.9826C6.30908 26.2743 8.06101 27 9.88775 27H21.1122C22.939 27 24.6909 26.2743 25.9826 24.9826C27.2743 23.6909 28 21.939 28 20.1122V8.88775C28 7.06101 27.2743 5.30908 25.9826 4.01738C24.6909 2.72567 22.939 2 21.1122 2ZM26.4694 20.1122C26.4694 21.533 25.905 22.8957 24.9003 23.9003C23.8957 24.905 22.533 25.4694 21.1122 25.4694H9.88775C8.46695 25.4694 7.10434 24.905 6.09968 23.9003C5.09502 22.8957 4.53061 21.533 4.53061 20.1122V8.88775C4.53061 7.46695 5.09502 6.10434 6.09968 5.09968C7.10434 4.09502 8.46695 3.53061 9.88775 3.53061H21.1122C22.533 3.53061 23.8957 4.09502 24.9003 5.09968C25.905 6.10434 26.4694 7.46695 26.4694 8.88775V20.1122ZM23.4082 7.86735C23.4082 8.11962 23.3334 8.36623 23.1932 8.57598C23.053 8.78574 22.8538 8.94922 22.6208 9.04576C22.3877 9.1423 22.1312 9.16756 21.8838 9.11835C21.6364 9.06913 21.4091 8.94765 21.2307 8.76927C21.0523 8.59089 20.9309 8.36361 20.8817 8.11619C20.8324 7.86876 20.8577 7.6123 20.9542 7.37923C21.0508 7.14616 21.2143 6.94695 21.424 6.8068C21.6338 6.66664 21.8804 6.59184 22.1327 6.59184C22.4709 6.59184 22.7954 6.72622 23.0346 6.96543C23.2738 7.20463 23.4082 7.52906 23.4082 7.86735Z" fill="#757575"/>
</svg>
