<svg width="30" height="30" viewBox="0 0 30 30" fill="none" xmlns="http://www.w3.org/2000/svg">
<path d="M27.787 25.7589L22.1066 20.0785C23.85 18.0904 24.812 15.5748 24.812 12.906C24.812 9.99276 23.6774 7.25419 21.6176 5.1944C19.5578 3.13462 16.8192 2 13.906 2C10.9928 2 8.25419 3.13462 6.1944 5.1944C4.13462 7.25419 3 9.99276 3 12.906C3 15.8192 4.13462 18.5578 6.1944 20.6176C8.25419 22.6774 10.9928 23.812 13.906 23.812C16.5748 23.812 19.0904 22.85 21.0785 21.1066L26.7589 26.787C26.9009 26.929 27.0869 27 27.2729 27C27.459 27 27.645 26.929 27.787 26.787C28.071 26.503 28.071 26.0429 27.787 25.7589ZM7.22252 19.5895C5.43752 17.8041 4.45413 15.4305 4.45413 12.906C4.45413 10.3815 5.43752 8.00788 7.22252 6.22252C9.00788 4.43752 11.3815 3.45413 13.906 3.45413C16.4305 3.45413 18.8041 4.43752 20.5895 6.22252C22.3745 8.00788 23.3579 10.3815 23.3579 12.906C23.3579 15.4305 22.3745 17.8041 20.5895 19.5895C18.8041 21.3745 16.4305 22.3579 13.906 22.3579C11.3815 22.3579 9.00788 21.3745 7.22252 19.5895Z" fill="#757575"/>
</svg>
