<svg width="18" height="18" viewBox="0 0 18 18" fill="none" xmlns="http://www.w3.org/2000/svg">
<path d="M8.99994 0C5.33348 0 2.35072 2.98279 2.35072 6.64928C2.35072 7.85632 2.89205 9.1545 2.91473 9.20926C3.08957 9.62425 3.43455 10.2688 3.6833 10.6467L8.24232 17.5545C8.42889 17.8377 8.70503 18 8.99994 18C9.29485 18 9.57099 17.8377 9.75756 17.5549L14.317 10.6467C14.5661 10.2688 14.9107 9.62425 15.0855 9.20926C15.1082 9.15489 15.6492 7.85671 15.6492 6.64928C15.6492 2.98279 12.6664 0 8.99994 0ZM14.3643 8.90574C14.2082 9.27771 13.8871 9.87731 13.6638 10.216L9.10437 17.1243C9.01441 17.2608 8.98586 17.2608 8.8959 17.1243L4.33649 10.216C4.11316 9.87731 3.79204 9.27731 3.63598 8.90534C3.62933 8.88931 3.13298 7.69439 3.13298 6.64928C3.13298 3.41421 5.7649 0.782269 8.99994 0.782269C12.235 0.782269 14.8669 3.41421 14.8669 6.64928C14.8669 7.69596 14.3694 8.894 14.3643 8.90574Z" fill="#757575"/>
<path d="M8.99998 3.12939C7.05876 3.12939 5.47974 4.70876 5.47974 6.64953C5.47974 8.5903 7.05876 10.1697 8.99998 10.1697C10.9412 10.1697 12.5202 8.5903 12.5202 6.64953C12.5202 4.70876 10.9412 3.12939 8.99998 3.12939ZM8.99998 9.38742C7.49058 9.38742 6.26201 8.15928 6.26201 6.64953C6.26201 5.13979 7.49058 3.91165 8.99998 3.91165C10.5094 3.91165 11.7379 5.13979 11.7379 6.64953C11.7379 8.15928 10.5094 9.38742 8.99998 9.38742Z" fill="#757575"/>
</svg>
