<svg width="19" height="19" viewBox="0 0 19 19" fill="none" xmlns="http://www.w3.org/2000/svg">
<circle cx="9.5" cy="9.5" r="9.5" fill="#7E9A8E"/>
<path d="M14.9918 13.7588C14.58 10.9553 14.1708 8.15445 13.7589 5.3509C13.7013 4.94725 13.6409 4.54086 13.5804 4.13721C13.564 4.02738 13.4377 3.98894 13.3443 4.00267C12.4299 4.13722 11.5128 4.27177 10.5984 4.40631C10.4886 4.42279 10.4501 4.5491 10.4639 4.64246C10.6423 5.86163 10.8208 7.08356 11.002 8.30273C10.1398 7.47347 9.27764 6.64147 8.41543 5.81221C8.12162 5.52938 7.82507 5.24381 7.53126 4.96098C7.45712 4.88959 7.33355 4.8841 7.26216 4.96098C6.61962 5.62823 5.97982 6.29274 5.33729 6.95999C5.26589 7.03413 5.2604 7.1577 5.33729 7.22909C5.49929 7.3856 5.65856 7.53937 5.82056 7.69314C5.68876 7.63273 5.55696 7.57506 5.42516 7.51465C5.34003 7.47621 5.20823 7.4817 5.16429 7.5833C4.78261 8.42629 4.40368 9.26928 4.022 10.1123C3.98356 10.1974 3.98905 10.3264 4.09065 10.3731C4.5547 10.5818 5.01601 10.7905 5.48007 11.0019C5.18626 10.9992 4.89245 10.9937 4.59864 10.991C4.4943 10.991 4.40918 11.0788 4.40643 11.1832C4.39545 12.1085 4.38446 13.0339 4.37348 13.9593C4.37348 14.0636 4.46135 14.1487 4.56569 14.1515C7.0013 14.1789 9.43965 14.2091 11.8753 14.2366C11.8753 14.2476 11.878 14.2558 11.8807 14.2668C11.8972 14.3766 12.0235 14.4123 12.1169 14.4014C12.3393 14.3684 12.5617 14.3354 12.7814 14.3025C12.8391 14.3272 12.8967 14.3547 12.9544 14.3821C13.0395 14.4206 13.1713 14.4151 13.2153 14.3135C13.2235 14.2943 13.2345 14.275 13.2427 14.2531C13.5914 14.2586 13.9429 14.2613 14.2916 14.2641C14.396 14.2641 14.4811 14.1762 14.4839 14.0718C14.4839 14.0636 14.4839 14.0581 14.4839 14.0499C14.6102 14.0307 14.7365 14.0142 14.8628 13.995C14.9726 13.9785 15.0111 13.8934 14.9973 13.8082C14.9973 13.7918 14.9973 13.778 14.9973 13.7616L14.9918 13.7588ZM5.74093 7.0863C6.29286 6.51241 6.84752 5.93851 7.40219 5.36188C8.63235 6.5481 9.86251 7.73158 11.0927 8.91781C11.2821 10.2084 11.4716 11.4962 11.6611 12.7868C9.93665 11.1282 8.21498 9.46698 6.49056 7.80847C6.24069 7.56683 5.99081 7.32793 5.74093 7.0863ZM5.40044 10.5489C5.07917 10.4033 4.7579 10.2578 4.43663 10.1123C4.76614 9.38461 5.0929 8.65695 5.42241 7.92929C5.82605 8.11052 6.2297 8.29449 6.63609 8.47846C8.24244 10.0271 9.85153 11.5731 11.4579 13.1218C11.5567 13.2151 11.6528 13.3112 11.7517 13.4046C11.7517 13.4101 11.7517 13.4128 11.7517 13.4183C9.63461 12.4627 7.51478 11.5044 5.3977 10.5489H5.40044ZM5.79036 13.7808C5.44437 13.7753 5.10114 13.7725 4.75516 13.7671C4.7634 12.9707 4.77438 12.1717 4.78262 11.3754C5.30434 11.3809 5.82331 11.3864 6.34228 11.3946C8.15457 12.2129 9.96686 13.0339 11.7819 13.8522C9.78288 13.8275 7.78662 13.8055 5.78762 13.7808H5.79036ZM12.2212 13.9977C11.8176 11.2491 11.4139 8.50043 11.013 5.75454L10.8648 4.75229C11.6556 4.63696 12.4436 4.52164 13.2345 4.40357C13.6381 7.1522 14.0418 9.89809 14.4427 12.6467C14.4921 12.9817 14.5415 13.3167 14.5909 13.649C13.8001 13.7643 13.012 13.8796 12.2212 13.9977Z" fill="white"/>
<path d="M13.2677 12.1855C12.9135 12.1855 12.6279 12.4711 12.6279 12.8253C12.6279 13.1796 12.9162 13.4651 13.2677 13.4651C13.6192 13.4651 13.9075 13.1768 13.9075 12.8253C13.9075 12.4739 13.6192 12.1855 13.2677 12.1855ZM13.2677 13.2619C13.0261 13.2619 12.8311 13.067 12.8311 12.8253C12.8311 12.5837 13.0261 12.3887 13.2677 12.3887C13.5093 12.3887 13.7043 12.5837 13.7043 12.8253C13.7043 13.067 13.5093 13.2619 13.2677 13.2619Z" fill="white"/>
</svg>
