<svg width="19" height="19" viewBox="0 0 19 19" fill="none" xmlns="http://www.w3.org/2000/svg">
<circle cx="9.5" cy="9.5" r="9.5" fill="#7E9A8E"/>
<mask id="path-2-inside-1_17_700" fill="white">
<path fill-rule="evenodd" clip-rule="evenodd" d="M9.62494 9.625C11.0062 9.625 12.1249 8.50625 12.1249 7.125C12.1249 5.74375 11.0062 4.625 9.62494 4.625C8.24369 4.625 7.12494 5.74375 7.12494 7.125C7.12494 8.50625 8.24369 9.625 9.62494 9.625ZM12.7499 7.125C12.7499 8.85156 11.3515 10.25 9.62494 10.25C7.89838 10.25 6.49994 8.85156 6.49994 7.125C6.49994 5.39844 7.89838 4 9.62494 4C11.3515 4 12.7499 5.39844 12.7499 7.125Z"/>
</mask>
<path d="M9.62494 10.625C11.5585 10.625 13.1249 9.05853 13.1249 7.125H11.1249C11.1249 7.95397 10.4539 8.625 9.62494 8.625V10.625ZM13.1249 7.125C13.1249 5.19147 11.5585 3.625 9.62494 3.625V5.625C10.4539 5.625 11.1249 6.29603 11.1249 7.125H13.1249ZM9.62494 3.625C7.6914 3.625 6.12494 5.19147 6.12494 7.125H8.12494C8.12494 6.29603 8.79597 5.625 9.62494 5.625V3.625ZM6.12494 7.125C6.12494 9.05853 7.6914 10.625 9.62494 10.625V8.625C8.79597 8.625 8.12494 7.95397 8.12494 7.125H6.12494ZM11.7499 7.125C11.7499 8.29928 10.7992 9.25 9.62494 9.25V11.25C11.9038 11.25 13.7499 9.40385 13.7499 7.125H11.7499ZM9.62494 9.25C8.45066 9.25 7.49994 8.29928 7.49994 7.125H5.49994C5.49994 9.40385 7.34609 11.25 9.62494 11.25V9.25ZM7.49994 7.125C7.49994 5.95072 8.45066 5 9.62494 5V3C7.34609 3 5.49994 4.84615 5.49994 7.125H7.49994ZM9.62494 5C10.7992 5 11.7499 5.95072 11.7499 7.125H13.7499C13.7499 4.84615 11.9038 3 9.62494 3V5Z" fill="white" mask="url(#path-2-inside-1_17_700)"/>
<mask id="path-4-inside-2_17_700" fill="white">
<path fill-rule="evenodd" clip-rule="evenodd" d="M5.00719 12.0663C4.69375 12.3194 4.625 12.5091 4.625 12.625V13.875H14.625V12.625C14.625 12.5094 14.5563 12.3191 14.2425 12.0663C13.9363 11.8191 13.4794 11.5834 12.9256 11.3797C11.8187 10.9725 10.4853 10.75 9.625 10.75C8.76469 10.75 7.43125 10.9725 6.32437 11.3797C5.77062 11.5834 5.31375 11.8191 5.00719 12.0663ZM9.625 10.125C7.7475 10.125 4 11.0734 4 12.625V14.5H15.25V12.625C15.25 11.0734 11.5025 10.125 9.625 10.125Z"/>
</mask>
<path d="M5.00719 12.0663L4.3795 11.2878L4.3789 11.2883L5.00719 12.0663ZM4.625 13.875H3.625V14.875H4.625V13.875ZM14.625 13.875V14.875H15.625V13.875H14.625ZM14.2425 12.0663L13.6144 12.8444L13.6151 12.8449L14.2425 12.0663ZM12.9256 11.3797L13.2709 10.4412L13.2709 10.4412L12.9256 11.3797ZM6.32437 11.3797L5.97912 10.4412L5.97906 10.4412L6.32437 11.3797ZM4 14.5H3V15.5H4V14.5ZM15.25 14.5V15.5H16.25V14.5H15.25ZM4.3789 11.2883C3.95239 11.6327 3.625 12.0789 3.625 12.625H5.625C5.625 12.7738 5.57883 12.8738 5.5551 12.9131C5.53537 12.9459 5.54204 12.9197 5.63547 12.8442L4.3789 11.2883ZM3.625 12.625V13.875H5.625V12.625H3.625ZM4.625 14.875H14.625V12.875H4.625V14.875ZM15.625 13.875V12.625H13.625V13.875H15.625ZM15.625 12.625C15.625 12.0795 15.298 11.6325 14.8699 11.2876L13.6151 12.8449C13.7081 12.9199 13.7146 12.9459 13.6948 12.9131C13.6712 12.8739 13.625 12.7741 13.625 12.625H15.625ZM14.8706 11.2881C14.4454 10.9449 13.8758 10.6638 13.2709 10.4412L12.5803 12.3182C13.0829 12.5031 13.4271 12.6932 13.6144 12.8444L14.8706 11.2881ZM13.2709 10.4412C12.0607 9.99598 10.6106 9.75 9.625 9.75V11.75C10.36 11.75 11.5768 11.949 12.5804 12.3182L13.2709 10.4412ZM9.625 9.75C8.6394 9.75 7.18932 9.99598 5.97912 10.4412L6.66963 12.3182C7.67318 11.949 8.88997 11.75 9.625 11.75V9.75ZM5.97906 10.4412C5.37405 10.6638 4.80472 10.9449 4.3795 11.2878L5.63488 12.8447C5.82278 12.6932 6.1672 12.5031 6.66969 12.3182L5.97906 10.4412ZM9.625 9.125C8.56098 9.125 7.03807 9.38558 5.76314 9.85467C5.12603 10.0891 4.48638 10.3986 3.98699 10.8015C3.4988 11.1954 3 11.8019 3 12.625H5C5 12.6723 4.96964 12.5785 5.24278 12.3581C5.50471 12.1468 5.91928 11.9283 6.45374 11.7317C7.52193 11.3386 8.81152 11.125 9.625 11.125V9.125ZM3 12.625V14.5H5V12.625H3ZM4 15.5H15.25V13.5H4V15.5ZM16.25 14.5V12.625H14.25V14.5H16.25ZM16.25 12.625C16.25 11.8019 15.7512 11.1954 15.263 10.8015C14.7636 10.3986 14.124 10.0891 13.4869 9.85467C12.2119 9.38558 10.689 9.125 9.625 9.125V11.125C10.4385 11.125 11.7281 11.3386 12.7963 11.7317C13.3307 11.9283 13.7453 12.1468 14.0072 12.3581C14.2804 12.5785 14.25 12.6723 14.25 12.625H16.25Z" fill="white" mask="url(#path-4-inside-2_17_700)"/>
</svg>
