<svg xmlns="http://www.w3.org/2000/svg" id="svg14" width="19" height="19" fill="none" version="1.1" viewBox="0 0 19 19"><circle id="circle2" cx="9.5" cy="9.5" r="9.5" fill="#7E9A8E" mask="none"/><path id="path864" fill="#fff" d="M9.625 4C7.8984 4 6.5 5.3984 6.5 7.125c0 1.475 1.0206 2.7103 2.3945 3.039-.0174.0017-.0332.0022-.0508.004-.141.0145-.2867.0332-.4355.0547-.1488.0214-.3012.0459-.455.0742a12.3956 12.3956 0 0 0-.465.0957 12.123 12.123 0 0 0-.4687.1152c-.1556.0414-.3105.085-.4629.1328a9.6168 9.6168 0 0 0-.4472.1524c-.1465.0539-.29.11-.4278.1699-.0688.03-.137.0623-.203.0937a5.8819 5.8819 0 0 0-.1934.0957c-.0632.0329-.1258.0654-.1856.0997a4.4094 4.4094 0 0 0-.1738.1054 3.7339 3.7339 0 0 0-.1621.1094 3.0985 3.0985 0 0 0-.1485.1133 2.6334 2.6334 0 0 0-.1367.1172 2.1588 2.1588 0 0 0-.121.121 1.7534 1.7534 0 0 0-.1036.125 1.5062 1.5062 0 0 0-.0898.129 1.2569 1.2569 0 0 0-.0704.1328 1.0943 1.0943 0 0 0-.0507.1367.9768.9768 0 0 0-.0313.1387A.972.972 0 0 0 4 12.625V14.5h11.25v-1.875a.972.972 0 0 0-.0117-.1445.9768.9768 0 0 0-.0313-.1387 1.0943 1.0943 0 0 0-.0508-.1367 1.2571 1.2571 0 0 0-.0703-.1328 1.5063 1.5063 0 0 0-.0898-.129 1.7533 1.7533 0 0 0-.1035-.125 2.1587 2.1587 0 0 0-.1211-.121 2.6333 2.6333 0 0 0-.1367-.1172 3.0986 3.0986 0 0 0-.1485-.1133 3.734 3.734 0 0 0-.162-.1094 4.4095 4.4095 0 0 0-.174-.1054c-.0597-.0343-.1223-.0668-.1855-.0997a5.8813 5.8813 0 0 0-.1933-.0957c-.0662-.0314-.1343-.0638-.2031-.0937a8.0528 8.0528 0 0 0-.4278-.17 9.6166 9.6166 0 0 0-.4472-.1523 11.1135 11.1135 0 0 0-.463-.1328 12.1231 12.1231 0 0 0-.4687-.1152 12.3954 12.3954 0 0 0-.4648-.0957 11.9635 11.9635 0 0 0-.4551-.0742 10.7617 10.7617 0 0 0-.4355-.0547c-.0176-.0018-.0334-.0023-.0508-.004C11.7294 9.8354 12.75 8.6 12.75 7.125 12.75 5.3984 11.3516 4 9.625 4zm0 .625c1.3813 0 2.5 1.1188 2.5 2.5s-1.1187 2.5-2.5 2.5c-1.3812 0-2.5-1.1188-2.5-2.5s1.1188-2.5 2.5-2.5zm0 6.125c.1075 0 .2228.0029.3438.0098.121.0068.2472.0176.3789.0312.1316.0136.2686.0306.4082.0508s.2829.0437.4277.0703c.1448.0266.2902.057.4375.0899.1473.0329.2963.0683.4434.1074.147.039.2934.0819.4375.127.144.045.2854.0916.4238.1425.1384.051.271.1056.3965.1602.1255.0546.2446.1103.3554.168.0555.0288.1087.0584.1602.0878.0514.0295.1012.0579.1484.088.0473.03.092.0612.1348.0917.0429.0305.0828.061.121.0918a2.047 2.047 0 0 1 .1075.0918c.032.0296.0607.0583.086.086a1.11 1.11 0 0 1 .0664.08.8013.8013 0 0 1 .0488.0723.6429.6429 0 0 1 .0351.0683.5001.5001 0 0 1 .0235.0606.372.372 0 0 1 .0156.0996v1.25h-10v-1.25a.395.395 0 0 1 .0156-.1016.4787.4787 0 0 1 .0235-.0586.6433.6433 0 0 1 .0351-.0683.8032.8032 0 0 1 .0488-.0723 1.1143 1.1143 0 0 1 .0665-.08 1.5209 1.5209 0 0 1 .0859-.086 2.0632 2.0632 0 0 1 .1074-.0918 3.0953 3.0953 0 0 1 .2559-.1836c.0473-.03.097-.0584.1484-.0879a4.5047 4.5047 0 0 1 .1602-.0879c.1108-.0576.23-.1133.3554-.168a7.379 7.379 0 0 1 .3965-.16 9.054 9.054 0 0 1 .4238-.1427c.1441-.045.2905-.0879.4375-.127.1471-.039.2961-.0744.4434-.1073.1473-.033.2927-.0633.4375-.0899a11.379 11.379 0 0 1 .4277-.0703c.1396-.0202.2766-.0372.4082-.0508a8.2603 8.2603 0 0 1 .379-.0312 6.064 6.064 0 0 1 .3437-.0098z"/></svg>