<svg width="88" height="88" viewBox="0 0 88 88" fill="none" xmlns="http://www.w3.org/2000/svg">
<path d="M60.1066 18.2512L33.8687 24.6513V61.9441L41.3771 60.1155C41.2294 59.4505 41.0816 58.7486 40.9985 58.0467C40.8784 57.0862 40.823 56.1535 40.823 55.193C40.823 49.5501 43.0026 44.406 46.5859 40.564C50.0215 36.8421 54.787 34.367 60.1159 33.8129V18.2512H60.1066ZM33.0283 23.4323L60.6053 16.7089C60.6608 16.6812 60.7531 16.6812 60.8085 16.6812C61.2149 16.6812 61.5104 16.9674 61.5104 17.383V34.4594C61.5104 34.838 61.2518 35.1243 60.8732 35.1613C55.6367 35.5399 50.9543 37.9227 47.6111 41.5337C44.2678 45.1079 42.2268 49.9103 42.2268 55.2022C42.2268 56.135 42.2822 57.0031 42.4023 57.8528C42.5223 58.7579 42.6886 59.5983 42.9287 60.4664C43.0118 60.8451 42.7809 61.2237 42.4023 61.3068L33.4162 63.4864C33.3331 63.5141 33.2684 63.5418 33.1853 63.5418C32.8066 63.5418 32.4834 63.2186 32.4834 62.8399V24.0972C32.4834 23.8109 32.7143 23.5154 33.0375 23.4323H33.0283Z" fill="#7E9A8E"/>
<path d="M5.77458 16.7089L33.3516 23.4323C33.6749 23.5154 33.8781 23.8109 33.8781 24.0972V62.8399C33.8781 63.2186 33.5918 63.5418 33.1762 63.5418C33.1208 63.5418 33.0284 63.5141 32.973 63.4864L5.36822 56.763C5.04498 56.7076 4.8418 56.4121 4.8418 56.0981V17.383C4.8418 16.9767 5.16504 16.6812 5.54369 16.6812C5.62681 16.6812 5.69146 16.6812 5.77458 16.7089ZM32.4743 24.6513L6.23635 18.2512V55.5439L32.4743 61.9441V24.6513Z" fill="#7E9A8E"/>
<path d="M5.39638 16.6812L33.0289 10.8628C33.1489 10.8351 33.232 10.8351 33.3152 10.8628L60.9476 16.6812C61.3263 16.7643 61.5849 17.1429 61.5018 17.5216C61.4463 17.7802 61.2155 17.9834 60.9476 18.048L33.3429 24.7991C33.2228 24.8268 33.112 24.8268 33.0196 24.7991L5.35945 18.048C5.0085 17.9649 4.77761 17.5862 4.86073 17.2076C4.91614 16.949 5.11932 16.7458 5.38715 16.6812H5.39638ZM33.1766 12.2574L8.71191 17.4015L33.1766 23.3953L57.669 17.4015L33.1766 12.2574Z" fill="#7E9A8E"/>
<path d="M11.7407 51.702C11.7407 52.1083 11.4175 52.4039 11.0388 52.4039C10.6324 52.4039 10.3369 52.1176 10.3369 51.702V23.5985C10.3369 23.2198 10.6324 22.8966 11.0388 22.8966C11.4175 22.8966 11.7407 23.2198 11.7407 23.5985V51.702Z" fill="#7E9A8E"/>
<path d="M17.2079 47.2229C17.2079 47.6015 16.8846 47.9248 16.506 47.9248C16.0996 47.9248 15.7764 47.6015 15.7764 47.2229V28.087C15.7764 27.7084 16.0996 27.3851 16.506 27.3851C16.8846 27.3851 17.2079 27.7084 17.2079 28.087V47.2229Z" fill="#7E9A8E"/>
<path d="M62.3233 33.665C68.2617 33.665 73.6367 36.0755 77.5341 39.9728C81.4314 43.8702 83.8419 49.2545 83.8419 55.1836C83.8419 61.1128 81.4314 66.5248 77.5341 70.4221C73.6367 74.3195 68.2525 76.7022 62.3233 76.7022C56.3941 76.7022 50.9822 74.3195 47.0848 70.4221C43.1874 66.5248 40.8047 61.1405 40.8047 55.1836C40.8047 49.2268 43.1874 43.8702 47.0848 39.9728L47.1125 39.9451C51.0099 36.0755 56.3941 33.665 62.3233 33.665ZM76.4905 41.0257C72.8794 37.3869 67.8553 35.1242 62.3233 35.1242C56.7913 35.1242 51.7672 37.3961 48.1284 40.998C44.4896 44.6367 42.2546 49.6701 42.2546 55.1929C42.2546 60.7157 44.4989 65.749 48.1284 69.3878C51.7672 73.0265 56.7635 75.2615 62.3233 75.2615C67.883 75.2615 72.8794 73.0173 76.4905 69.3878C80.1292 65.749 82.3642 60.7434 82.3642 55.1929C82.3642 49.6424 80.1292 44.6368 76.4905 41.0257Z" fill="#7E9A8E"/>
<path d="M48.3868 55.3683C48.2114 55.0174 48.3314 54.5833 48.6731 54.3801C49.0241 54.177 49.4581 54.2878 49.6613 54.6387L55.2211 64.2621L75.0588 44.4243C75.3451 44.138 75.8161 44.138 76.1024 44.4243C76.3887 44.7106 76.3887 45.1816 76.1024 45.4402L55.5628 65.9799L55.415 66.0999C55.064 66.3031 54.63 66.183 54.4268 65.8413L48.3776 55.3683H48.3868Z" fill="#7E9A8E"/>
</svg>
