<svg width="88" height="88" viewBox="0 0 88 88" fill="none" xmlns="http://www.w3.org/2000/svg">
<path d="M5.3959 16.8573H43.9446C44.3289 16.8573 44.6569 17.1853 44.6569 17.5977C44.6569 17.6821 44.6288 17.8039 44.5726 17.8883C44.0383 19.1254 43.626 20.4001 43.3354 21.731C43.073 23.0244 42.923 24.3552 42.923 25.7424C42.923 33.4746 52.108 47.9362 58.5094 58.0678C60.0183 60.4296 61.3398 62.5197 62.4083 64.2911C63.4674 62.5197 64.7982 60.4203 66.3072 58.0678C69.3439 53.2879 72.9804 47.5332 75.9889 41.9753C76.167 41.6192 76.6075 41.5067 76.9355 41.6848C77.1698 41.8066 77.3198 42.0691 77.3198 42.3034V83.1296C77.3198 83.542 76.9917 83.8419 76.6075 83.8419H5.3959C5.01163 83.8419 4.68359 83.5514 4.68359 83.1296V17.5977C4.68359 17.1853 5.01163 16.8573 5.3959 16.8573ZM42.8855 18.3007H6.1082V82.4173H75.8952V45.0495C73.1772 49.895 70.1124 54.7031 67.5162 58.8363C65.7167 61.6387 64.1515 64.1505 63.055 66.0343C62.9987 66.1562 62.8769 66.2405 62.7644 66.3343C62.4364 66.5123 61.9959 66.3905 61.7897 66.0718C60.6931 64.1786 59.0998 61.6762 57.3003 58.8363C50.8052 48.5642 41.5078 33.8589 41.5078 25.7424C41.5078 24.2709 41.6578 22.8182 41.9483 21.431C42.1826 20.3345 42.5106 19.3035 42.8949 18.3007H42.8855Z" fill="#7E9A8E"/>
<path d="M5.21777 42.8096L43.2416 32.5936L43.6259 33.9526L5.57392 44.1685L5.21777 42.8096Z" fill="#7E9A8E"/>
<path d="M76.158 83.6922L38.4902 53.8411L39.3712 52.7539L77.0389 82.5675L76.158 83.6922Z" fill="#7E9A8E"/>
<path d="M48.5281 43.2501C48.7906 42.9877 49.2686 42.9877 49.531 43.2782C49.7934 43.5687 49.7653 44.0186 49.5029 44.2811L7.88 83.6639L6.90527 82.6329L48.5281 43.2501Z" fill="#7E9A8E"/>
<path d="M36.0065 29.2574L19.0986 18.1885L19.8672 16.9795L44.5072 33.1281L43.7481 34.3091L36.0065 29.2574Z" fill="#7E9A8E"/>
<path d="M62.3985 4.84204C68.1813 4.84204 73.4111 7.20391 77.1882 10.981C80.9653 14.7581 83.299 19.9879 83.299 25.7425C83.299 33.859 74.0016 48.5644 67.5065 58.8365C65.707 61.667 64.1137 64.1788 63.0171 66.072C62.8109 66.4001 62.3704 66.5125 62.0424 66.3344C61.9205 66.2501 61.8362 66.1564 61.7799 66.072C60.6834 64.1788 59.0901 61.6764 57.2906 58.8365V58.7803C50.7674 48.5081 41.498 33.8684 41.498 25.7519C41.498 19.9972 43.8318 14.7674 47.6089 10.9903C51.3859 7.21326 56.6439 4.85142 62.3985 4.85142V4.84204ZM76.1853 11.9838C72.6426 8.46916 67.7689 6.2854 62.3985 6.2854C57.0281 6.2854 52.1545 8.46916 48.6398 11.9838C45.0971 15.4985 42.9133 20.3721 42.9133 25.7425C42.9133 33.4467 52.0608 47.9083 58.4715 58.0399L58.4996 58.068C60.0086 60.4298 61.3301 62.5199 62.3985 64.2912C63.4576 62.5199 64.7885 60.4204 66.2975 58.068C72.6988 47.9458 81.8838 33.4748 81.8838 25.7425C81.8838 20.3721 79.7 15.4985 76.1853 11.9838Z" fill="#7E9A8E"/>
<path d="M62.3991 12.6118C65.8856 12.6118 69.016 14.0271 71.2841 16.3045C73.5616 18.582 74.9768 21.7405 74.9768 25.1896C74.9768 28.6386 73.5616 31.8065 71.2841 34.0746C69.0066 36.3521 65.8856 37.7674 62.3991 37.7674C58.9125 37.7674 55.7821 36.3521 53.514 34.0746C51.2365 31.8065 49.8213 28.6761 49.8213 25.1896C49.8213 21.703 51.2365 18.5727 53.514 16.3045C55.7821 14.0364 58.9125 12.6118 62.3991 12.6118ZM70.2813 17.3074C68.2756 15.3017 65.4732 14.0552 62.3991 14.0552C59.3249 14.0552 56.5226 15.2923 54.5169 17.3074C52.5112 19.3412 51.2365 22.1154 51.2365 25.1896C51.2365 28.2637 52.5018 31.0661 54.5169 33.0718C56.5226 35.1056 59.3249 36.3521 62.3991 36.3521C65.4732 36.3521 68.2756 35.115 70.2813 33.0718C72.287 31.0661 73.5616 28.2918 73.5616 25.1896C73.5616 22.0873 72.2963 19.3412 70.2813 17.3074Z" fill="#7E9A8E"/>
<path d="M62.3988 17.298C62.0146 17.298 61.6865 16.9981 61.6865 16.5857C61.6865 16.2014 62.0146 15.8734 62.3988 15.8734C64.9669 15.8734 67.3006 16.9044 68.9783 18.5914C70.6559 20.3066 71.6963 22.6028 71.6963 25.1708C71.6963 25.5832 71.3682 25.8831 70.984 25.8831C70.5997 25.8831 70.2717 25.5926 70.2717 25.1708C70.2717 23.0152 69.3813 21.0376 67.966 19.6224C66.5508 18.179 64.5732 17.2886 62.3895 17.2886L62.3988 17.298Z" fill="#7E9A8E"/>
</svg>
