<svg width="25" height="25" viewBox="0 0 25 25" fill="none" xmlns="http://www.w3.org/2000/svg">
<path d="M17.1511 7.97809C17.1202 7.97809 14.5448 9.63076 9.4247 12.9361L10.5064 16.5334L10.7382 14.2498C15.1474 10.2251 17.3546 8.19966 17.3597 8.1736C17.3638 8.1556 17.3664 8.1373 17.3675 8.11887C17.3675 8.025 17.2954 7.97808 17.1511 7.97809V7.97809Z" fill="#008DDD"/>
<path d="M15.4796 0.224426H9.3204C4.32674 0.224426 0.271164 4.2369 0.271164 9.17755V15.2713C0.271164 20.2119 4.32674 24.2244 9.3204 24.2244H15.4796C20.4732 24.2244 24.5288 20.212 24.5288 15.2713V9.17755C24.5288 4.23693 20.4732 0.224426 15.4796 0.224426V0.224426ZM20.1181 6.27331L17.6765 18.1286C17.5838 18.5353 17.3366 18.7386 16.9348 18.7386C16.7769 18.7374 16.6242 18.6822 16.5021 18.5822L12.9016 15.939L10.9082 17.8315C10.8143 17.9274 10.687 17.9834 10.5528 17.9879C10.2746 17.9879 10.0892 17.8627 9.9965 17.6125L8.57481 13.2801L5.05157 12.1696C4.83524 12.0967 4.71162 11.9403 4.68069 11.7004C4.68069 11.4502 4.79917 11.2782 5.03612 11.1843C14.689 7.5349 19.5464 5.71019 19.6082 5.7102C19.7394 5.7178 19.8632 5.77349 19.9559 5.86662C20.0136 5.91637 20.0585 5.97931 20.0867 6.0501C20.115 6.1209 20.1257 6.19746 20.1181 6.27329L20.1181 6.27331Z" fill="#008DDD"/>
</svg>
