<svg width="24" height="24" viewBox="0 0 24 24" fill="none" xmlns="http://www.w3.org/2000/svg">
<path d="M16.0428 9.30859C16.0185 9.30859 13.9975 10.6054 9.97983 13.1991L10.8286 16.0219L11.0105 14.23C14.4704 11.0718 16.2024 9.48246 16.2065 9.46202C16.2097 9.44789 16.2117 9.43352 16.2125 9.41906C16.2125 9.34541 16.1559 9.30858 16.0428 9.30859Z" fill="#ABC4C0"/>
<path d="M14.7311 3.22437H9.898C5.97947 3.22437 2.79706 6.37296 2.79706 10.2499V15.0317C2.79706 18.9086 5.97947 22.0572 9.898 22.0572H14.7311C18.6496 22.0572 21.8321 18.9086 21.8321 15.0317V10.2499C21.8321 6.37298 18.6496 3.22437 14.7311 3.22437ZM18.371 7.97093L16.4551 17.2738C16.3823 17.5929 16.1883 17.7525 15.873 17.7525C15.7491 17.7515 15.6293 17.7082 15.5335 17.6297L12.7082 15.5556L11.144 17.0406C11.0702 17.1159 10.9703 17.1599 10.865 17.1634C10.6468 17.1634 10.5013 17.0652 10.4285 16.8688L9.31294 13.4692L6.54825 12.5978C6.3785 12.5405 6.28149 12.4178 6.25722 12.2296C6.25722 12.0332 6.35019 11.8982 6.53613 11.8246C14.1108 8.9609 17.9223 7.52905 17.9708 7.52906C18.0738 7.53502 18.1709 7.57872 18.2437 7.6518C18.289 7.69084 18.3242 7.74023 18.3464 7.79578C18.3685 7.85133 18.377 7.91141 18.371 7.97092L18.371 7.97093Z" fill="#ABC4C0"/>
</svg>
