<svg width="88" height="87" viewBox="0 0 88 87" fill="none" xmlns="http://www.w3.org/2000/svg">
<path d="M83.1436 61.03H5.33359C4.97359 61.03 4.68359 60.74 4.68359 60.38V15.65C4.68359 15.29 4.97359 15 5.33359 15H83.1436C83.5036 15 83.7936 15.29 83.7936 15.65V60.38C83.7936 60.74 83.5036 61.03 83.1436 61.03ZM5.98358 59.73H82.4936V16.3H5.98358V59.73Z" fill="#7E9A8E"/>
<path d="M80.1938 53.88H8.28378C7.92378 53.88 7.63379 53.59 7.63379 53.23V18.69C7.63379 18.33 7.92378 18.04 8.28378 18.04H80.1938C80.5538 18.04 80.8438 18.33 80.8438 18.69V53.23C80.8438 53.59 80.5538 53.88 80.1938 53.88ZM8.93378 52.58H79.5438V19.34H8.93378V52.58Z" fill="#7E9A8E"/>
<path d="M51.0237 66.64H37.4537C37.0937 66.64 36.8037 66.35 36.8037 65.99V60.38C36.8037 60.02 37.0937 59.73 37.4537 59.73H51.0237C51.3837 59.73 51.6737 60.02 51.6737 60.38V65.99C51.6737 66.35 51.3837 66.64 51.0237 66.64ZM38.1037 65.34H50.3737V61.03H38.1037V65.34Z" fill="#7E9A8E"/>
<path d="M72.6239 72.3C72.5739 72.3 72.5139 72.3 72.4639 72.28L50.944 66.7H37.5339L16.0139 72.28C15.6639 72.37 15.314 72.16 15.224 71.81C15.134 71.46 15.344 71.11 15.694 71.02L37.2939 65.41C37.3439 65.4 37.4039 65.39 37.4539 65.39H51.0239C51.0739 65.39 51.1339 65.39 51.1839 65.41L72.7839 71.02C73.1339 71.11 73.3439 71.46 73.2539 71.81C73.1739 72.1 72.9139 72.3 72.6239 72.3Z" fill="#7E9A8E"/>
<path d="M74.4638 58.64C73.4538 58.64 72.6338 57.82 72.6338 56.81C72.6338 55.8 73.4538 54.98 74.4638 54.98C75.4738 54.98 76.2938 55.8 76.2938 56.81C76.2938 57.82 75.4738 58.64 74.4638 58.64ZM74.4638 56.28C74.1738 56.28 73.9338 56.52 73.9338 56.81C73.9338 57.1 74.1738 57.34 74.4638 57.34C74.7538 57.34 74.9938 57.1 74.9938 56.81C74.9938 56.52 74.7538 56.28 74.4638 56.28Z" fill="#7E9A8E"/>
<path d="M39.1734 57.46H36.1734C35.8134 57.46 35.5234 57.17 35.5234 56.81C35.5234 56.45 35.8134 56.16 36.1734 56.16H39.1734C39.5334 56.16 39.8235 56.45 39.8235 56.81C39.8235 57.17 39.5334 57.46 39.1734 57.46Z" fill="#7E9A8E"/>
<path d="M45.7437 57.46H42.7437C42.3837 57.46 42.0938 57.17 42.0938 56.81C42.0938 56.45 42.3837 56.16 42.7437 56.16H45.7437C46.1037 56.16 46.3937 56.45 46.3937 56.81C46.3937 57.17 46.1037 57.46 45.7437 57.46Z" fill="#7E9A8E"/>
<path d="M52.3033 57.46H49.3033C48.9433 57.46 48.6533 57.17 48.6533 56.81C48.6533 56.45 48.9433 56.16 49.3033 56.16H52.3033C52.6633 56.16 52.9533 56.45 52.9533 56.81C52.9533 57.17 52.6633 57.46 52.3033 57.46Z" fill="#7E9A8E"/>
<path d="M64.3032 50.0099H24.1732C21.5932 50.0099 19.4932 47.9099 19.4932 45.3299V26.5899C19.4932 24.0099 21.5932 21.9099 24.1732 21.9099H64.3032C66.8832 21.9099 68.9832 24.0099 68.9832 26.5899V45.3299C68.9832 47.9099 66.8832 50.0099 64.3032 50.0099ZM24.1732 23.2099C22.3032 23.2099 20.7932 24.7299 20.7932 26.5899V45.3299C20.7932 47.1999 22.3132 48.7099 24.1732 48.7099H64.3032C66.1732 48.7099 67.6832 47.1899 67.6832 45.3299V26.5899C67.6832 24.7199 66.1632 23.2099 64.3032 23.2099H24.1732Z" fill="#7E9A8E"/>
<path d="M68.3332 33.5099H20.1432C19.7832 33.5099 19.4932 33.2199 19.4932 32.8599V26.5799C19.4932 26.2199 19.7832 25.9299 20.1432 25.9299H68.3332C68.6932 25.9299 68.9832 26.2199 68.9832 26.5799V32.8599C68.9832 33.2199 68.6932 33.5099 68.3332 33.5099ZM20.7932 32.2099H67.6832V27.2299H20.7932V32.2099Z" fill="#7E9A8E"/>
<path d="M55.8434 39.6401H32.6334C32.2734 39.6401 31.9834 39.3501 31.9834 38.9901C31.9834 38.6301 32.2734 38.3401 32.6334 38.3401H55.8434C56.2034 38.3401 56.4934 38.6301 56.4934 38.9901C56.4934 39.3501 56.2034 39.6401 55.8434 39.6401Z" fill="#7E9A8E"/>
<path d="M64.0334 45.52H51.1734C50.8134 45.52 50.5234 45.23 50.5234 44.87C50.5234 44.51 50.8134 44.22 51.1734 44.22H64.0334C64.3934 44.22 64.6834 44.51 64.6834 44.87C64.6834 45.23 64.3934 45.52 64.0334 45.52Z" fill="#7E9A8E"/>
</svg>
