<svg width="24" height="24" viewBox="0 0 24 24" fill="none" xmlns="http://www.w3.org/2000/svg">
<g clip-path="url(#clip0_31_146)">
<path d="M13.8013 3.33325H9.66748C5.67846 3.33325 2.43323 6.57848 2.43323 10.5675V13.6679C2.43323 16.4684 4.04837 19.0099 6.56708 20.2054V23.658C6.56708 23.9578 6.94211 24.1146 7.15515 23.9016L10.1546 20.9022H13.8013C17.7903 20.9022 21.0355 17.6569 21.0355 13.6679V10.5675C21.0355 6.57848 17.7903 3.33325 13.8013 3.33325Z" fill="#7E9A8E"/>
<path d="M16.9353 16.1732L16.6256 14.4954C16.5999 14.3568 16.4926 14.2478 16.3544 14.2201L13.9185 13.733C13.8053 13.7104 13.6888 13.7458 13.6073 13.8272L12.6177 14.8168C10.9503 14.0697 10.0249 13.1423 9.21065 11.4034L10.1971 10.417C10.2785 10.3355 10.3139 10.2187 10.2913 10.1058L9.80413 7.66985C9.77648 7.53168 9.66746 7.42423 9.52884 7.39864L7.85105 7.08896C7.80512 7.08053 7.75781 7.08141 7.7122 7.09179C7.2692 7.19242 6.86499 7.41563 6.54324 7.73746C5.98613 8.29457 5.77321 9.10751 5.92756 10.0884C6.18666 11.7355 6.99363 14.0277 8.48247 15.5226L8.50282 15.5427C9.99647 17.0305 12.2887 17.8376 13.9359 18.0967C14.1434 18.1294 14.3433 18.1456 14.5349 18.1456C15.2492 18.1456 15.8476 17.9203 16.287 17.481C16.6087 17.1592 16.832 16.755 16.9326 16.3121C16.9428 16.2664 16.9438 16.2192 16.9353 16.1732Z" fill="white"/>
<path d="M9.8603 10.754L10.1971 10.4171L10.1975 10.4167L9.86026 10.7539L9.8603 10.754Z" fill="#E5E5E5"/>
<path d="M13.6073 13.8269L13.2672 14.167L13.2673 14.167L13.6074 13.8269L13.6073 13.8269Z" fill="#E5E5E5"/>
<path d="M12.4233 9.18945C12.2331 9.18945 12.0788 9.34369 12.0788 9.53392C12.0788 9.72416 12.2331 9.87839 12.4233 9.87839C13.1831 9.87839 13.8013 10.4965 13.8013 11.2564C13.8013 11.4441 13.958 11.6008 14.1457 11.6008C14.3334 11.6008 14.4902 11.4441 14.4902 11.2564C14.4902 10.1166 13.563 9.18945 12.4233 9.18945Z" fill="white"/>
<path d="M12.4233 7.81152C12.2959 7.81152 12.1673 7.81859 12.0411 7.83251C11.8519 7.85338 11.7156 8.0236 11.7364 8.21275C11.7573 8.4019 11.9279 8.53792 12.1167 8.51738C12.2179 8.5062 12.3211 8.50051 12.4233 8.50051C13.9429 8.50051 15.1792 9.73679 15.1792 11.2564C15.1792 11.3587 15.1735 11.4619 15.1624 11.5631C15.1418 11.7496 15.2804 11.9228 15.467 11.9434C15.6536 11.9639 15.8266 11.8253 15.8472 11.6387C15.8611 11.5125 15.8682 11.3839 15.8682 11.2564C15.8682 9.35692 14.3229 7.81152 12.4233 7.81152Z" fill="white"/>
<path d="M12.4238 6.43359C12.3006 6.43359 12.176 6.43828 12.0532 6.4476C11.8635 6.46197 11.7214 6.62746 11.7357 6.81714C11.7501 7.00685 11.9161 7.14901 12.1053 7.13465C12.2108 7.12661 12.3179 7.12258 12.4238 7.12258C14.7032 7.12258 16.5576 8.977 16.5576 11.2564C16.5576 11.5789 16.5204 11.9 16.447 12.2106C16.4049 12.3887 16.5145 12.5737 16.6911 12.622C16.8768 12.6729 17.0733 12.5564 17.1175 12.3691C17.2032 12.0066 17.2466 11.6323 17.2466 11.2564C17.2466 8.59709 15.0831 6.43359 12.4238 6.43359Z" fill="white"/>
</g>
<defs>
<clipPath id="clip0_31_146">
<rect width="24" height="24" fill="white"/>
</clipPath>
</defs>
</svg>
