<svg width="23" height="25" viewBox="0 0 23 25" fill="none" xmlns="http://www.w3.org/2000/svg">
<path d="M13.7305 0.333313H8.92988C4.29746 0.333313 0.528809 4.10196 0.528809 8.73438V12.3348C0.528809 15.5871 2.40446 18.5385 5.32941 19.9268V23.9363C5.32941 24.2844 5.76493 24.4665 6.01233 24.2192L9.49556 20.7359H13.7304C18.3628 20.7359 22.1315 16.9673 22.1315 12.3348V8.73438C22.1315 4.10196 18.3628 0.333313 13.7305 0.333313Z" fill="#4CAF50"/>
<path d="M17.3699 15.2444L17.0103 13.296C16.9805 13.135 16.8558 13.0084 16.6953 12.9763L13.8665 12.4105C13.7352 12.3844 13.5998 12.4254 13.5051 12.5199L12.3559 13.6692C10.4196 12.8016 9.34495 11.7246 8.39938 9.7052L9.54491 8.55971C9.63946 8.46512 9.68052 8.32947 9.65432 8.19831L9.08859 5.3695C9.05648 5.20905 8.92987 5.08427 8.7689 5.05455L6.8205 4.69492C6.76715 4.68513 6.71221 4.68616 6.65925 4.69821C6.14479 4.81506 5.67539 5.07428 5.30175 5.44802C4.65478 6.09498 4.40752 7.03905 4.58676 8.17815C4.88765 10.0909 5.82478 12.7529 7.55376 14.4888L7.57739 14.5122C9.31195 16.24 11.9739 17.1772 13.8868 17.4781C14.1278 17.5161 14.3599 17.5349 14.5824 17.5349C15.4119 17.5349 16.1068 17.2732 16.617 16.7631C16.9907 16.3894 17.25 15.92 17.3668 15.4057C17.3787 15.3526 17.3798 15.2978 17.3699 15.2444Z" fill="white"/>
<path d="M9.15379 8.95086L9.54492 8.55969L9.54534 8.55927L9.15375 8.95081L9.15379 8.95086Z" fill="#E5E5E5"/>
<path d="M13.5052 12.5195L13.1102 12.9144L13.1103 12.9145L13.5053 12.5195L13.5052 12.5195Z" fill="#E5E5E5"/>
<path d="M12.1302 7.13416C11.9093 7.13416 11.7302 7.31326 11.7302 7.53419C11.7302 7.75511 11.9093 7.93422 12.1302 7.93422C13.0126 7.93422 13.7304 8.65206 13.7304 9.53443C13.7304 9.7524 13.9125 9.93446 14.1304 9.93446C14.3484 9.93446 14.5305 9.7524 14.5305 9.53443C14.5305 8.21087 13.4538 7.13416 12.1302 7.13416Z" fill="white"/>
<path d="M12.1303 5.53375C11.9823 5.53375 11.8329 5.54196 11.6863 5.55813C11.4667 5.58236 11.3083 5.78003 11.3325 5.99969C11.3568 6.21935 11.5549 6.37731 11.7741 6.35345C11.8917 6.34047 12.0115 6.33386 12.1303 6.33386C13.895 6.33386 15.3306 7.76955 15.3306 9.53425C15.3306 9.65308 15.324 9.77289 15.311 9.89045C15.2871 10.1071 15.4481 10.3082 15.6648 10.332C15.8815 10.3559 16.0824 10.1949 16.1064 9.97825C16.1225 9.83162 16.1307 9.68228 16.1307 9.53425C16.1307 7.32841 14.3361 5.53375 12.1303 5.53375Z" fill="white"/>
<path d="M12.1307 3.93372C11.9877 3.93372 11.8429 3.93915 11.7004 3.94998C11.4801 3.96667 11.315 4.15886 11.3317 4.37912C11.3483 4.59943 11.5412 4.76453 11.7608 4.74784C11.8833 4.73851 12.0078 4.73382 12.1307 4.73382C14.7778 4.73382 16.9313 6.88735 16.9313 9.53443C16.9313 9.90896 16.8881 10.2818 16.8028 10.6426C16.754 10.8493 16.8813 11.0641 17.0863 11.1203C17.3019 11.1794 17.5301 11.0441 17.5815 10.8266C17.681 10.4056 17.7314 9.97088 17.7314 9.53443C17.7314 6.44617 15.2189 3.93372 12.1307 3.93372Z" fill="white"/>
</svg>
