<svg width="19" height="19" viewBox="0 0 19 19" fill="none" xmlns="http://www.w3.org/2000/svg">
<circle cx="9.5" cy="9.5" r="9.5" fill="#7E9A8E"/>
<path d="M11.0684 7.54592L10.7101 8.15H11.4124H12.9999C13.4022 8.15 13.7435 8.43468 13.8284 8.8127L13.8283 8.81273L13.8307 8.82236C14.459 11.3262 14.7788 12.6086 14.9416 13.2822C15.1028 13.9494 15.1005 13.9888 15.1 13.9987C15.1 13.9992 15.0999 13.9996 15.0999 14C15.0999 14.2254 15.0104 14.4416 14.851 14.601C14.6916 14.7604 14.4754 14.85 14.2499 14.85H4.24994C4.0245 14.85 3.8083 14.7604 3.6489 14.601C3.48949 14.4416 3.39994 14.2254 3.39994 14C3.39994 13.9996 3.39992 13.9992 3.39989 13.9987C3.39933 13.9888 3.39709 13.9494 3.55828 13.2822C3.72105 12.6086 4.04086 11.3262 4.66916 8.82236L4.66928 8.82239L4.67146 8.8127C4.7564 8.43468 5.09772 8.15 5.49994 8.15H7.08744H7.78804L7.43191 7.54667C7.24524 7.23044 7.1478 6.86953 7.14993 6.50233H7.14994V6.5C7.14994 5.94305 7.37119 5.4089 7.76501 5.01508C8.15884 4.62125 8.69298 4.4 9.24994 4.4C9.80689 4.4 10.341 4.62125 10.7349 5.01508C11.1287 5.4089 11.3499 5.94305 11.3499 6.5C11.3499 6.88542 11.25 7.23978 11.0684 7.54592Z" stroke="white" stroke-width="0.8"/>
<path d="M8.24609 12.0215L8.01953 12.2578V13H7.6582V10H8.01953V11.8145L8.21289 11.582L8.87109 10.8867H9.31055L8.48828 11.7695L9.40625 13H8.98242L8.24609 12.0215ZM9.55859 11.9258C9.55859 11.5964 9.63477 11.3346 9.78711 11.1406C9.93945 10.9453 10.1413 10.8477 10.3926 10.8477C10.6504 10.8477 10.8516 10.9388 10.9961 11.1211L11.0137 10.8867H11.3438V12.9492C11.3438 13.2227 11.2624 13.4382 11.0996 13.5957C10.9382 13.7533 10.7207 13.832 10.4473 13.832C10.2949 13.832 10.1458 13.7995 10 13.7344C9.85417 13.6693 9.74284 13.5801 9.66602 13.4668L9.85352 13.25C10.0085 13.4414 10.1979 13.5371 10.4219 13.5371C10.5977 13.5371 10.7344 13.4876 10.832 13.3887C10.931 13.2897 10.9805 13.1504 10.9805 12.9707V12.7891C10.8359 12.9557 10.6387 13.0391 10.3887 13.0391C10.1413 13.0391 9.94076 12.9395 9.78711 12.7402C9.63477 12.541 9.55859 12.2695 9.55859 11.9258ZM9.92188 11.9668C9.92188 12.2051 9.9707 12.3926 10.0684 12.5293C10.166 12.6647 10.3027 12.7324 10.4785 12.7324C10.7064 12.7324 10.8737 12.6289 10.9805 12.4219V11.457C10.8698 11.2552 10.7038 11.1543 10.4824 11.1543C10.3066 11.1543 10.1693 11.2227 10.0703 11.3594C9.97135 11.4961 9.92188 11.6986 9.92188 11.9668Z" fill="white"/>
</svg>
