<svg width="25" height="25" viewBox="0 0 25 25" fill="none" xmlns="http://www.w3.org/2000/svg">
<path d="M12.2972 5.58276C8.7876 5.58276 5.89726 8.40052 5.89726 11.8844C5.89703 13.2161 6.33203 14.5114 7.13602 15.5731L6.36178 17.9298L8.83914 17.1613C9.88434 17.8372 11.1041 18.1934 12.3488 18.186C15.8584 18.186 18.7487 15.3682 18.7487 11.8844C18.697 8.40052 15.8068 5.58276 12.2972 5.58276V5.58276ZM16.0081 14.5113C15.7979 15.0676 14.957 15.453 14.3732 15.4482C11.9746 15.4285 8.53719 12.1557 8.57718 10.2026C8.57998 9.93513 8.63609 9.6709 8.74223 9.42536C8.84838 9.17983 9.00243 8.95793 9.19537 8.77265C9.5296 8.44895 10.3188 8.31874 10.5371 8.82445C11.0722 10.2406 11.21 10.269 11.1049 10.5152C11.0026 10.755 10.8431 10.966 10.6404 11.13C10.0948 11.5253 11.6288 12.8282 11.8558 12.9988C13.2742 14.0645 13.4784 13.6414 13.5643 13.5498C14.0709 13.0096 14.019 12.8166 14.2354 12.7717C14.4598 12.7253 15.9827 13.5533 15.9887 13.5571C16.2886 13.7464 16.1007 14.2356 16.0081 14.5113Z" fill="#665CAC"/>
<path d="M15.2219 0.114624H9.06276C4.06909 0.114624 0.0135193 4.1271 0.0135193 9.06776V15.1615C0.0135193 20.1021 4.06909 24.1146 9.06276 24.1146H15.2219C20.2156 24.1146 24.2712 20.1021 24.2712 15.1615V9.06776C24.2712 4.12713 20.2156 0.114624 15.2219 0.114624V0.114624ZM12.2972 19.3644C11.0192 19.3572 9.7619 19.0407 8.63271 18.4421L4.40055 19.7742L5.79404 15.778C5.09503 14.6175 4.72071 13.2904 4.71021 11.9356C4.71021 7.78575 8.11662 4.45565 12.2972 4.45565C16.4778 4.40437 19.8841 7.73452 19.8841 11.8844C19.8841 16.0342 16.4778 19.3644 12.2972 19.3644V19.3644Z" fill="#665CAC"/>
</svg>
