<svg width="24" height="24" viewBox="0 0 24 24" fill="none" xmlns="http://www.w3.org/2000/svg">
<path d="M12.6525 7.40552C9.89854 7.40552 7.63049 9.61661 7.63049 12.3504C7.63031 13.3954 7.97165 14.4118 8.60255 15.2449L7.995 17.0942L9.93899 16.4912C10.7592 17.0216 11.7163 17.3011 12.693 17.2953C15.447 17.2953 17.715 15.0842 17.715 12.3504C17.6745 9.61661 15.4065 7.40552 12.6525 7.40552ZM15.5645 14.4118C15.3995 14.8483 14.7397 15.1507 14.2816 15.147C12.3994 15.1314 9.70205 12.5633 9.73343 11.0307C9.73562 10.8208 9.77965 10.6135 9.86294 10.4208C9.94624 10.2281 10.0671 10.054 10.2185 9.90862C10.4808 9.65461 11.1001 9.55244 11.2714 9.94927C11.6913 11.0605 11.7994 11.0828 11.7169 11.276C11.6366 11.4642 11.5115 11.6298 11.3524 11.7584C10.9243 12.0686 12.128 13.091 12.3062 13.2249C13.4192 14.0612 13.5794 13.7291 13.6468 13.6573C14.0443 13.2333 14.0036 13.0819 14.1734 13.0467C14.3495 13.0102 15.5446 13.66 15.5493 13.663C15.7846 13.8115 15.6371 14.1954 15.5645 14.4118Z" fill="#C9DBCD"/>
<path d="M14.9476 3.1145H10.1145C6.19593 3.1145 3.01352 6.2631 3.01352 10.14V14.9218C3.01352 18.7987 6.19593 21.9473 10.1145 21.9473H14.9476C18.8661 21.9473 22.0485 18.7987 22.0485 14.9218V10.14C22.0485 6.26312 18.8661 3.1145 14.9476 3.1145ZM12.6525 18.2198C11.6497 18.2141 10.6631 17.9658 9.77701 17.4961L6.45602 18.5414L7.5495 15.4056C7.00099 14.4949 6.70725 13.4535 6.69901 12.3904C6.69901 9.13404 9.37203 6.52091 12.6525 6.52091C15.933 6.48067 18.606 9.09384 18.606 12.3502C18.606 15.6066 15.933 18.2198 12.6525 18.2198Z" fill="#C9DBCD"/>
</svg>
