<?xml version="1.0" encoding="UTF-8" standalone="no"?>
<svg
   width="12.286596"
   height="15.204302"
   viewBox="0 0 12.286596 15.204302"
   fill="none"
   version="1.1"
   id="svg12"
   sodipodi:docname="favicon_new.svg"
   inkscape:version="1.2.1 (9c6d41e410, 2022-07-14)"
   xmlns:inkscape="http://www.inkscape.org/namespaces/inkscape"
   xmlns:sodipodi="http://sodipodi.sourceforge.net/DTD/sodipodi-0.dtd"
   xmlns="http://www.w3.org/2000/svg"
   xmlns:svg="http://www.w3.org/2000/svg">
  <defs
     id="defs16" />
  <sodipodi:namedview
     id="namedview14"
     pagecolor="#ffffff"
     bordercolor="#000000"
     borderopacity="0.25"
     inkscape:showpageshadow="2"
     inkscape:pageopacity="0.0"
     inkscape:pagecheckerboard="0"
     inkscape:deskcolor="#d1d1d1"
     showgrid="false"
     inkscape:zoom="29.892857"
     inkscape:cx="3.646356"
     inkscape:cy="6.088411"
     inkscape:window-width="1920"
     inkscape:window-height="1017"
     inkscape:window-x="1912"
     inkscape:window-y="-8"
     inkscape:window-maximized="1"
     inkscape:current-layer="svg12" />
  <path
     d="m 12.286596,6.1177004 c 0,-0.9215979 -0.208082,-1.8325201 -0.610887,-2.6634243 C 11.273012,2.6233719 10.686137,1.8951619 9.9592624,1.3216665 9.2323882,0.74816464 8.3854761,0.3467157 7.481222,0.1466586 6.5769571,-0.05473204 5.6380263,-0.04806343 4.7350971,0.1626633 3.8335038,0.37339056 2.9905991,0.78550857 2.2703931,1.3670079 1.550187,1.9485073 0.97268865,2.6847213 0.5792426,3.519622 0.1871302,4.3545336 -0.01025912,5.2667917 4.1059993e-4,6.1897253 0.012414,7.1113232 0.23381066,8.0195738 0.6472623,8.8438099 1.159404,10.080169 6.0914837,15.204302 6.0914837,15.204302 c 0,0 5.0280733,-5.132137 5.5429563,-6.34582 0.429413,-0.8495729 0.652156,-1.7885037 0.650853,-2.7394458 z"
     fill="#ffffff"
     id="path1614" />
  <path
     d="m 11.799998,6.2352806 c 0,-0.8486 -0.1916,-1.68737 -0.5625,-2.45246 -0.3708,-0.76509 -0.91119,-1.43562 -1.5804902,-1.96369 -0.6693,-0.528076 -1.44913,-0.89772699 -2.28176,-1.08193799 -0.83264,-0.1854389 -1.6972,-0.1792985 -2.52861,0.014737 -0.83018,0.194036 -1.60632,0.57351099 -2.26948,1.10895099 -0.66316,0.53544 -1.194916,1.21334 -1.557198,1.98211 -0.36105395,0.76878 -0.54280847,1.60878 -0.53298387,2.45861 0.0110526,0.8486 0.21491292,1.68491 0.59561587,2.44386 0.471576,1.13843 5.012996,5.8566904 5.012996,5.8566904 0,0 4.6298102,-4.7256304 5.1039102,-5.8431804 0.3954,-0.78228 0.6005,-1.64684 0.5993,-2.52246 z"
     fill="#343434"
     id="path2" />
  <path
     d="m 6.1434978,10.797651 c 2.50896,0 4.5427002,-2.0238704 4.5427002,-4.5193204 0,-2.49545 -2.0337402,-4.52054 -4.5427002,-4.52054 -2.50895,0 -4.54264,2.02387 -4.54264,4.52054 0,2.49667 2.03369,4.5193204 4.54264,4.5193204 z"
     fill="#ffffff"
     id="path4" />
  <path
     d="m 9.9285078,5.9393706 c 0.07123,0.06877 0.1326302,0.14737 0.1829902,0.23211 0.06754,0.12035 0.10438,0.25544 0.10561,0.39298 0.01105,-0.11789 0.01719,-0.23579 0.01719,-0.35614 -0.0025,-0.58579 -0.1314,-1.16544 -0.3794702,-1.6972 -0.24807,-0.53176 -0.60913,-1.00456 -1.05738,-1.38404 -0.44824,-0.3807 -0.97509,-0.65948 -1.54123,-0.8179 -0.56737,-0.15842 -1.16176,-0.19403 -1.74386,-0.10193 -0.58211,0.09088 -1.1372,0.30702 -1.6272,0.63246 -0.49,0.32544 -0.90387,0.75158 -1.21334,1.25141 -0.30947,0.4986 -0.50597,1.0586 -0.5772,1.64071 -0.07122,0.5821 -0.01473,1.17281 0.16457,1.73035 3.43983,-2.88843 6.70405,-2.48685 7.67055,-1.52158 z"
     fill="#ffffff"
     id="path6" />
  <path
     d="m 9.8207578,7.2803006 c -0.05035,0.03193 -0.10439,0.06017 -0.15842,0.08474 -0.7086,0.31561 -2.04106,0.2014 -3.69282,-0.31562 -0.61281,-0.19158 -1.25878,-0.25421 -1.89615,-0.18175 -0.63737,0.07245 -1.25386,0.27754 -1.8065,0.60175 0.28614,0.87685 0.86457,1.63088 1.63825,2.13808 0.77369,0.5071904 1.69843,0.7368404 2.62071,0.6533304 0.92229,-0.08473 1.78931,-0.4789404 2.45738,-1.1175404 0.66807,-0.6386 1.0979002,-1.48475 1.2182502,-2.39966 -0.05035,0.22105 -0.18789,0.41386 -0.3794702,0.53544 z"
     fill="#7e9a8e"
     id="path8" />
  <path
     d="m 10.111618,6.1702606 c -0.05035,-0.08474 -0.1117602,-0.1621 -0.1829802,-0.2321 -0.9665,-0.96527 -4.23195,-1.36808 -7.67056,1.52158 v 0.00982 c 0.55387,-0.32544 1.17036,-0.53052 1.80896,-0.60298 0.6386,-0.07246 1.28579,-0.00982 1.8986,0.18176 1.65299,0.51579 2.98422,0.63123 3.69282,0.31561 0.05526,-0.02456 0.10807,-0.05281 0.15842,-0.08474 0.1891202,-0.12403 0.3229802,-0.31684 0.3708802,-0.53667 0.0086,-0.06017 0.01474,-0.12035 0.01965,-0.18052 0,-0.13632 -0.03316,-0.27141 -0.09702,-0.39176 z"
     fill="#abc4c0"
     id="path10" />
</svg>
