<svg width="12" height="14" viewBox="0 0 12 14" fill="none" xmlns="http://www.w3.org/2000/svg">
<path d="M11.3134 5.63313C11.3134 4.78453 11.1218 3.94576 10.7509 3.18067C10.3801 2.41558 9.83971 1.74505 9.17041 1.21698C8.50111 0.688904 7.72128 0.319253 6.88865 0.135042C6.05601 -0.0503969 5.19145 -0.0442565 4.36004 0.149779C3.52986 0.343815 2.75372 0.72329 2.09056 1.25873C1.4274 1.79417 0.895644 2.47207 0.533362 3.24084C0.172308 4.00962 -0.00944652 4.84962 0.000378076 5.69945C0.0114307 6.54805 0.215291 7.38436 0.595994 8.14331C1.06757 9.28174 5.60899 14 5.60899 14C5.60899 14 10.2388 9.27437 10.7129 8.15682C11.1083 7.37454 11.3134 6.50998 11.3122 5.63436L11.3134 5.63313Z" fill="#343434"/>
<path d="M5.6569 10.1955C8.16586 10.1955 10.1996 8.17163 10.1996 5.67618C10.1996 3.18073 8.16586 1.15564 5.6569 1.15564C3.14795 1.15564 1.11426 3.17951 1.11426 5.67618C1.11426 8.17285 3.14795 10.1955 5.6569 10.1955Z" fill="white"/>
<path d="M9.44191 5.33722C9.51314 5.40599 9.57454 5.48459 9.6249 5.56933C9.69244 5.68968 9.72928 5.82477 9.73051 5.96231C9.74156 5.84442 9.7477 5.72652 9.7477 5.60617C9.74525 5.02038 9.6163 4.44073 9.36823 3.90897C9.12016 3.37721 8.7591 2.90441 8.31085 2.52493C7.86261 2.14423 7.33576 1.86545 6.76962 1.70703C6.20225 1.54861 5.60786 1.513 5.02576 1.6051C4.44365 1.69598 3.88856 1.91212 3.39856 2.23756C2.90856 2.563 2.49469 2.98914 2.18522 3.48897C1.87575 3.98757 1.67925 4.54757 1.60802 5.12968C1.5368 5.71178 1.59329 6.30249 1.77259 6.86003C5.21242 3.9716 8.47664 4.37318 9.44314 5.33845L9.44191 5.33722Z" fill="white"/>
<path d="M9.33416 6.67815C9.28381 6.71008 9.22977 6.73832 9.17574 6.76289C8.46714 7.0785 7.13468 6.96429 5.48292 6.44727C4.87011 6.25569 4.22414 6.19306 3.58677 6.26552C2.9494 6.33797 2.33291 6.54306 1.78027 6.86727C2.06641 7.74412 2.64484 8.49815 3.41852 9.00535C4.19221 9.51254 5.11695 9.74219 6.03923 9.65868C6.96152 9.57395 7.82854 9.17974 8.49661 8.54114C9.16468 7.90254 9.59451 7.05639 9.71486 6.14148C9.66451 6.36253 9.52697 6.55534 9.33539 6.67692L9.33416 6.67815Z" fill="#7E9A8E"/>
<path d="M9.62502 5.56811C9.57467 5.48337 9.51326 5.40601 9.44204 5.33601C8.47554 4.37074 5.21009 3.96793 1.77148 6.85759V6.86741C2.32535 6.54197 2.94184 6.33689 3.58044 6.26443C4.21904 6.19197 4.86623 6.25461 5.47904 6.44619C7.13203 6.96198 8.46326 7.07742 9.17186 6.7618C9.22712 6.73724 9.27993 6.70899 9.33028 6.67706C9.5194 6.55303 9.65326 6.36022 9.70116 6.14039C9.70976 6.08022 9.7159 6.02004 9.72081 5.95987C9.72081 5.82355 9.68765 5.68846 9.62379 5.56811H9.62502Z" fill="#ABC4C0"/>
</svg>
