<svg width="156" height="29" viewBox="0 0 156 29" fill="none" xmlns="http://www.w3.org/2000/svg">
<g clip-path="url(#clip0_31_73)">
<path d="M23.8131 11.6686C23.8131 9.91078 23.4098 8.17333 22.6292 6.5885C21.8485 5.00368 20.7111 3.61473 19.3022 2.52087C17.8934 1.42701 16.2519 0.661309 14.4993 0.27973C12.7467 -0.104393 10.9268 -0.0916739 9.17678 0.310256C7.42931 0.712186 5.79559 1.49824 4.39968 2.60736C3.00378 3.71648 1.88447 5.12069 1.1219 6.71315C0.361903 8.30561 -0.0206777 10.0456 2.36597e-06 11.806C0.0232674 13.5638 0.452379 15.2961 1.25373 16.8682C2.24637 19.2264 11.8057 28.9999 11.8057 28.9999C11.8057 28.9999 21.5512 19.2111 22.549 16.8962C23.3814 15.2758 23.8131 13.4849 23.8105 11.6711L23.8131 11.6686Z" fill="#343434"/>
<path d="M11.9065 21.1189C17.1877 21.1189 21.4685 16.9266 21.4685 11.7575C21.4685 6.58838 17.1877 2.39355 11.9065 2.39355C6.62538 2.39355 2.3446 6.58584 2.3446 11.7575C2.3446 16.9292 6.62538 21.1189 11.9065 21.1189Z" fill="white"/>
<path d="M19.8735 11.0554C20.0235 11.1979 20.1527 11.3607 20.2587 11.5362C20.4009 11.7855 20.4784 12.0653 20.481 12.3502C20.5043 12.106 20.5172 11.8618 20.5172 11.6125C20.512 10.3991 20.2406 9.19839 19.7184 8.0969C19.1963 6.99541 18.4363 6.01602 17.4927 5.22997C16.5492 4.44138 15.4402 3.86392 14.2486 3.53576C13.0543 3.2076 11.8031 3.13383 10.5778 3.32462C9.35255 3.51287 8.18413 3.96059 7.15271 4.63471C6.12129 5.30883 5.25014 6.19155 4.59872 7.2269C3.9473 8.25971 3.5337 9.41971 3.38377 10.6255C3.23384 11.8313 3.35275 13.0549 3.73016 14.2098C10.9708 8.22664 17.8417 9.05848 19.8761 11.058L19.8735 11.0554Z" fill="white"/>
<path d="M19.646 13.8333C19.5401 13.8995 19.4263 13.958 19.3126 14.0089C17.821 14.6626 15.0163 14.4261 11.5395 13.3551C10.2495 12.9583 8.88983 12.8285 7.54821 12.9786C6.20659 13.1287 4.90892 13.5535 3.74567 14.2251C4.34797 16.0414 5.56551 17.6033 7.19407 18.654C8.82262 19.7046 10.7691 20.1803 12.7105 20.0073C14.6518 19.8318 16.4768 19.0152 17.8831 17.6924C19.2893 16.3696 20.1941 14.6169 20.4474 12.7217C20.3414 13.1796 20.0519 13.579 19.6486 13.8308L19.646 13.8333Z" fill="#7E9A8E"/>
<path d="M20.2587 11.5338C20.1527 11.3583 20.0235 11.198 19.8735 11.053C17.8391 9.05354 10.9656 8.21915 3.72757 14.2049V14.2252C4.89341 13.5511 6.19108 13.1263 7.53529 12.9762C8.87949 12.8261 10.2418 12.9558 11.5317 13.3527C15.0111 14.4211 17.8133 14.6602 19.3048 14.0064C19.4211 13.9556 19.5323 13.897 19.6383 13.8309C20.0364 13.574 20.3181 13.1746 20.419 12.7192C20.4371 12.5946 20.45 12.4699 20.4603 12.3453C20.4603 12.0629 20.3905 11.7831 20.2561 11.5338H20.2587Z" fill="#ABC4C0"/>
<path d="M39.5196 15.6472L36.2728 18.5829V22.447H34.4142V3.33496H36.2728V16.2908L44.4932 8.89838H46.7964L40.9078 14.4364L47.347 22.447H45.0696L39.5196 15.6472Z" fill="#343434"/>
<path d="M62.2935 8.89844V22.447H60.5124V19.9744C60.0239 20.7986 59.3518 21.4397 58.4961 21.8925C57.6405 22.3478 56.6634 22.5742 55.5647 22.5742C53.7682 22.5742 52.349 22.0807 51.3124 21.0937C50.2732 20.1067 49.7562 18.6592 49.7562 16.7539V8.89844H51.6148V16.5758C51.6148 18.0004 51.9716 19.0841 52.6876 19.8218C53.4037 20.5595 54.4247 20.9283 55.7509 20.9283C57.1985 20.9283 58.341 20.4959 59.1786 19.6284C60.0161 18.761 60.4349 17.5552 60.4349 16.0085V8.89844H62.2935Z" fill="#343434"/>
<path d="M78.1034 9.659C79.1504 10.2339 79.9698 11.0454 80.5644 12.0935C81.1563 13.1415 81.4536 14.3346 81.4536 15.6752C81.4536 17.0158 81.1563 18.2344 80.5644 19.2824C79.9724 20.3305 79.1555 21.142 78.1164 21.7169C77.0772 22.2918 75.9036 22.5793 74.5956 22.5793C73.4788 22.5793 72.4707 22.3529 71.5711 21.8975C70.6715 21.4422 69.9348 20.7757 69.3583 19.9006V27.4482H67.4997V8.89838H69.2808V11.5771C69.8392 10.6842 70.5759 9.99733 71.4936 9.51654C72.4087 9.03575 73.4427 8.79663 74.5956 8.79663C75.8881 8.79663 77.0565 9.08409 78.1034 9.659ZM77.0823 20.2974C77.8682 19.8599 78.4834 19.2366 78.928 18.4302C79.3727 17.6238 79.595 16.7055 79.595 15.6752C79.595 14.645 79.3727 13.7292 78.928 12.9329C78.4834 12.1342 77.8682 11.5135 77.0823 11.0658C76.2965 10.6206 75.4254 10.3967 74.4637 10.3967C73.5021 10.3967 72.6103 10.6206 71.8322 11.0658C71.0567 11.5135 70.4441 12.1342 69.9994 12.9329C69.5548 13.7317 69.3325 14.645 69.3325 15.6752C69.3325 16.7055 69.5548 17.6238 69.9994 18.4302C70.4441 19.2366 71.0541 19.8599 71.8322 20.2974C72.6077 20.735 73.4866 20.9537 74.4637 20.9537C75.4409 20.9537 76.2965 20.735 77.0823 20.2974Z" fill="#343434"/>
<path d="M97.2376 16.24H85.7214C85.8248 17.6493 86.3754 18.7864 87.3707 19.6539C88.3659 20.5213 89.6222 20.9538 91.1396 20.9538C91.9953 20.9538 92.7785 20.8037 93.4946 20.5035C94.2106 20.2033 94.8284 19.7607 95.3532 19.1782L96.4001 20.3636C95.79 21.0835 95.0249 21.6355 94.1098 22.012C93.1947 22.3911 92.1865 22.5793 91.0853 22.5793C89.6713 22.5793 88.4202 22.2842 87.3293 21.6915C86.2384 21.0988 85.388 20.2797 84.7779 19.2316C84.1678 18.1835 83.8628 16.9981 83.8628 15.6778C83.8628 14.3575 84.1549 13.1696 84.7391 12.124C85.3233 11.076 86.1273 10.2619 87.1484 9.67685C88.1694 9.0943 89.3172 8.80176 90.5916 8.80176C91.866 8.80176 93.0086 9.0943 94.0193 9.67685C95.0326 10.2619 95.8262 11.0734 96.4001 12.1113C96.9766 13.1492 97.2635 14.3397 97.2635 15.6778L97.2376 16.2451V16.24ZM87.2518 11.6153C86.3522 12.4471 85.8429 13.5333 85.7214 14.874H95.485C95.3635 13.5333 94.8517 12.4497 93.9547 11.6153C93.0551 10.7834 91.9358 10.3662 90.5916 10.3662C89.2474 10.3662 88.1539 10.7834 87.2544 11.6153H87.2518Z" fill="#343434"/>
<path d="M101.058 3.33496H102.917V22.4495H101.058V3.33496Z" fill="#343434"/>
<path d="M108.074 5.55066C107.813 5.29373 107.681 4.98338 107.681 4.62215C107.681 4.26093 107.813 3.97856 108.074 3.72163C108.335 3.4647 108.658 3.33496 109.043 3.33496C109.429 3.33496 109.749 3.45961 110.013 3.70891C110.274 3.95821 110.406 4.25329 110.406 4.59672C110.406 4.97575 110.274 5.29119 110.013 5.55066C109.752 5.81014 109.429 5.93733 109.043 5.93733C108.658 5.93733 108.338 5.80759 108.074 5.55066ZM108.1 8.89838H109.958V22.447H108.1V8.89838Z" fill="#343434"/>
<path d="M115.625 22.101C114.604 21.783 113.805 21.3836 113.228 20.9029L114.066 19.4605C114.642 19.9082 115.366 20.272 116.237 20.5544C117.111 20.8367 118.019 20.9792 118.959 20.9792C120.216 20.9792 121.146 20.7858 121.746 20.3992C122.348 20.0125 122.648 19.4681 122.648 18.7635C122.648 18.2649 122.483 17.8757 122.152 17.5908C121.821 17.3084 121.402 17.0922 120.896 16.9472C120.389 16.8022 119.717 16.6597 118.879 16.5223C117.763 16.3163 116.863 16.1051 116.183 15.8915C115.503 15.6778 114.922 15.3115 114.443 14.7976C113.963 14.2812 113.722 13.5689 113.722 12.6608C113.722 11.5262 114.203 10.6002 115.162 9.87777C116.121 9.15532 117.458 8.79663 119.166 8.79663C120.055 8.79663 120.947 8.91365 121.837 9.14514C122.726 9.37663 123.46 9.68189 124.036 10.0584L123.225 11.5262C122.09 10.7529 120.738 10.3662 119.166 10.3662C117.98 10.3662 117.085 10.5722 116.483 10.9843C115.881 11.3965 115.581 11.9383 115.581 12.6073C115.581 13.1237 115.751 13.5333 116.09 13.8436C116.431 14.1515 116.853 14.3804 117.359 14.5254C117.866 14.6729 118.564 14.823 119.453 14.9757C120.552 15.1817 121.433 15.3878 122.098 15.5938C122.759 15.7999 123.328 16.1509 123.799 16.6495C124.269 17.1481 124.504 17.835 124.504 18.7101C124.504 19.8955 124.003 20.8342 123 21.5312C121.997 22.2257 120.604 22.5742 118.825 22.5742C117.708 22.5742 116.638 22.4165 115.62 22.0985L115.625 22.101Z" fill="#343434"/>
<path d="M138.541 9.659C139.588 10.2339 140.407 11.0454 141.002 12.0935C141.594 13.1415 141.891 14.3346 141.891 15.6752C141.891 17.0158 141.594 18.2344 141.002 19.2824C140.41 20.3305 139.593 21.142 138.554 21.7169C137.515 22.2918 136.341 22.5793 135.033 22.5793C133.916 22.5793 132.908 22.3529 132.009 21.8975C131.109 21.4422 130.372 20.7757 129.796 19.9006V27.4482H127.937V8.89838H129.718V11.5771C130.277 10.6842 131.013 9.99733 131.931 9.51654C132.846 9.03575 133.88 8.79663 135.033 8.79663C136.326 8.79663 137.494 9.08409 138.541 9.659ZM137.52 20.2974C138.306 19.8599 138.921 19.2366 139.366 18.4302C139.81 17.6238 140.032 16.7055 140.032 15.6752C140.032 14.645 139.81 13.7292 139.366 12.9329C138.921 12.1367 138.306 11.5135 137.52 11.0658C136.734 10.6206 135.863 10.3967 134.901 10.3967C133.94 10.3967 133.048 10.6206 132.27 11.0658C131.494 11.5135 130.882 12.1342 130.437 12.9329C129.992 13.7317 129.77 14.645 129.77 15.6752C129.77 16.7055 129.992 17.6238 130.437 18.4302C130.882 19.2366 131.492 19.8599 132.27 20.2974C133.045 20.735 133.924 20.9537 134.901 20.9537C135.878 20.9537 136.734 20.735 137.52 20.2974Z" fill="#343434"/>
<path d="M154.56 10.122C155.519 11.0072 156 12.3148 156 14.0497V22.447H154.219V20.3356C153.8 21.0402 153.185 21.5897 152.373 21.984C151.562 22.3783 150.597 22.5767 149.481 22.5767C147.945 22.5767 146.722 22.2155 145.815 21.4956C144.908 20.7757 144.453 19.8217 144.453 18.6363C144.453 17.4508 144.877 16.5579 145.722 15.8533C146.567 15.1486 147.917 14.7976 149.765 14.7976H154.136V13.9734C154.136 12.8058 153.805 11.9179 153.141 11.3074C152.477 10.6994 151.51 10.3942 150.235 10.3942C149.362 10.3942 148.524 10.5366 147.723 10.819C146.919 11.1014 146.231 11.4931 145.655 11.9917L144.817 10.6257C145.515 10.0431 146.353 9.59031 147.33 9.27233C148.307 8.95435 149.336 8.79663 150.419 8.79663C152.216 8.79663 153.596 9.23926 154.555 10.122H154.56ZM152.466 20.4246C153.216 19.9515 153.774 19.2697 154.141 18.3768V16.1611H149.822C147.467 16.1611 146.288 16.9675 146.288 18.5829C146.288 19.374 146.593 19.9947 147.203 20.4501C147.813 20.9054 148.669 21.1318 149.768 21.1318C150.866 21.1318 151.714 20.8952 152.464 20.4221L152.466 20.4246Z" fill="#343434"/>
</g>
<defs>
<clipPath id="clip0_31_73">
<rect width="156" height="29" fill="white"/>
</clipPath>
</defs>
</svg>
