<svg width="0" height="0" class="hidden">
  <symbol fill="none" xmlns="http://www.w3.org/2000/svg" viewBox="0 0 18 18" id="arrow-down">
    <path d="M3.35225 5.97725C3.55195 5.77755 3.86445 5.7594 4.08466 5.92279L4.14775 5.97725L9 10.8293L13.8523 5.97725C14.052 5.77755 14.3645 5.7594 14.5847 5.92279L14.6477 5.97725C14.8474 6.17695 14.8656 6.48945 14.7022 6.70966L14.6477 6.77275L9.39775 12.0227C9.19805 12.2224 8.88555 12.2406 8.66534 12.0772L8.60225 12.0227L3.35225 6.77275C3.13258 6.55308 3.13258 6.19692 3.35225 5.97725Z" fill="#757575"></path>
  </symbol>
  <symbol fill="none" xmlns="http://www.w3.org/2000/svg" viewBox="0 0 18 18" id="clock">
    <g clip-path="url(#clip0_31_107)">
      <path d="M8.99998 0C4.03749 0 0 4.03749 0 8.99998C0 13.9625 4.03749 18 8.99998 18C13.9625 18 18 13.9625 18 8.99998C18 4.03749 13.9625 0 8.99998 0ZM8.99998 17.2174C4.46868 17.2174 0.782596 13.5313 0.782596 8.99998C0.782596 4.46868 4.46868 0.782596 8.99998 0.782596C13.5313 0.782596 17.2174 4.46868 17.2174 8.99998C17.2174 13.5313 13.5313 17.2174 8.99998 17.2174Z" fill="#757575"></path>
      <path d="M12.7988 12.2456L9.39131 8.83806V2.73922C9.39131 2.52322 9.21599 2.3479 8.99999 2.3479C8.78399 2.3479 8.60867 2.52322 8.60867 2.73922V9.00009C8.60867 9.10417 8.65016 9.20358 8.72295 9.27713L12.2447 12.7989C12.3214 12.8748 12.4215 12.9131 12.5217 12.9131C12.6219 12.9131 12.7221 12.8748 12.7988 12.7989C12.9514 12.6462 12.9514 12.3982 12.7988 12.2456Z" fill="#757575"></path>
    </g>
    <defs>
      <clipPath id="clip0_31_107">
        <rect width="18" height="18" fill="white"></rect>
      </clipPath>
    </defs>
  </symbol>
  <symbol fill="none" xmlns="http://www.w3.org/2000/svg" viewBox="0 0 19 19" id="drop">
    <circle cx="9.5" cy="9.5" r="9.5" fill="#7E9A8E"></circle>
    <path d="M9.21875 13.8435C9.83056 13.8132 10.4093 13.5565 10.8424 13.1234C11.2755 12.6903 11.5322 12.1116 11.5625 11.4998" stroke="white" stroke-width="0.8" stroke-linecap="round"></path>
    <path d="M9.21875 15.3185C8.20638 15.3172 7.23586 14.9144 6.51999 14.1985C5.80551 13.4841 5.40292 12.5159 5.40001 11.5056C5.42413 10.7562 5.64471 10.0262 6.03971 9.3888C6.0399 9.3885 6.04008 9.3882 6.04027 9.3879L9.15175 4.43122C9.1592 4.42236 9.16834 4.41504 9.17867 4.40972L9.01132 4.085L9.17867 4.40972C9.19106 4.40333 9.2048 4.4 9.21875 4.4C9.2327 4.4 9.24644 4.40333 9.25884 4.40972C9.26917 4.41505 9.27832 4.42237 9.28576 4.43124L12.3843 9.36466C12.3844 9.36478 12.3845 9.3649 12.3846 9.36502C12.7867 10.0089 13.0119 10.7474 13.0375 11.506C13.0345 12.5161 12.6319 13.4841 11.9175 14.1985C11.2016 14.9144 10.2311 15.3172 9.21875 15.3185Z" stroke="white" stroke-width="0.8"></path>
  </symbol>
  <symbol fill="none" xmlns="http://www.w3.org/2000/svg" viewBox="0 0 19 19" id="fire">
    <circle cx="9.5" cy="9.5" r="9.5" fill="#7E9A8E"></circle>
    <path d="M13.5091 9.09382L13.509 9.09355C13.2469 8.50379 12.866 7.97445 12.39 7.53865L12.3897 7.53837L12.28 7.43766L12.231 7.57809C12.231 7.57827 12.2309 7.57844 12.2308 7.57862C12.0906 7.98351 11.8397 8.37848 11.5047 8.75159L11.4995 8.75733L11.4995 8.75728C11.3914 8.87304 11.2626 8.90479 11.1832 8.91201C11.0885 8.92061 10.9428 8.90314 10.8173 8.7898C10.7 8.68571 10.6476 8.53834 10.6553 8.39918L10.6554 8.39683C10.7037 7.61193 10.4702 6.69182 9.9151 5.65057L9.91478 5.64996C9.47012 4.81249 8.85716 4.16662 8.09482 3.7167C8.09474 3.71665 8.09465 3.71659 8.09456 3.71654L7.94056 3.62593L7.9489 3.80784L7.9489 3.80788C7.97267 4.32761 7.91373 4.80865 7.75858 5.22421C7.58185 5.69818 7.32808 6.13802 7.00445 6.53214L7.00428 6.53235C6.77933 6.80592 6.52438 7.05336 6.24421 7.27002L6.2433 7.27072C5.67365 7.70862 5.21041 8.26968 4.88823 8.9119C4.5675 9.559 4.40042 10.2714 4.4 10.9936L13.5091 9.09382ZM13.5091 9.09382C13.7777 9.69709 13.9125 10.336 13.9125 10.9951L13.9125 10.9959C13.9138 11.6263 13.7867 12.2504 13.5389 12.8301L13.5388 12.8304C13.2999 13.3904 12.9574 13.8949 12.5197 14.3272L12.5187 14.3282C12.0854 14.7593 11.5722 15.1019 11.0079 15.3367L11.0077 15.3369C10.421 15.5815 9.79952 15.7059 9.15625 15.7059C8.513 15.7059 7.89181 15.5815 7.30557 15.3357L7.30504 15.3355M13.5091 9.09382L7.30504 15.3355M7.30504 15.3355C6.73952 15.0993 6.23171 14.7592 5.793 14.3259C5.35965 13.8973 5.01345 13.3888 4.77354 12.8285M7.30504 15.3355L4.77354 12.8285M4.77354 12.8285C4.52548 12.2474 4.40003 11.6316 4.4 10.9938L4.77354 12.8285Z" stroke="white" stroke-width="0.8" stroke-linecap="round"></path>
  </symbol>
  <symbol fill="none" xmlns="http://www.w3.org/2000/svg" viewBox="0 0 19 19" id="height">
    <circle cx="9.5" cy="9.5" r="9.5" fill="#7E9A8E"></circle>
    <path d="M9.5 16L9.5 3M9.5 16L7.5 14M9.5 16L11.5 14M9.5 3L7.5 4.73333M9.5 3L11.5 5" stroke="white" stroke-linecap="round"></path>
  </symbol>
  <symbol fill="none" xmlns="http://www.w3.org/2000/svg" viewBox="0 0 30 30" id="instagram">
    <path d="M15.5 8.63265C14.3395 8.63265 13.2052 8.97677 12.2403 9.62148C11.2754 10.2662 10.5234 11.1825 10.0793 12.2547C9.63519 13.3268 9.519 14.5065 9.74539 15.6447C9.97179 16.7828 10.5306 17.8283 11.3512 18.6488C12.1717 19.4694 13.2172 20.0282 14.3553 20.2546C15.4935 20.481 16.6732 20.3648 17.7453 19.9207C18.8175 19.4766 19.7338 18.7246 20.3785 17.7597C21.0232 16.7948 21.3673 15.6605 21.3673 14.5C21.3673 12.9439 20.7492 11.4515 19.6488 10.3512C18.5485 9.25082 17.0561 8.63265 15.5 8.63265ZM15.5 18.8367C14.6423 18.8367 13.8038 18.5824 13.0906 18.1059C12.3775 17.6293 11.8216 16.952 11.4934 16.1596C11.1651 15.3672 11.0793 14.4952 11.2466 13.6539C11.4139 12.8127 11.827 12.04 12.4335 11.4335C13.04 10.827 13.8127 10.4139 14.6539 10.2466C15.4952 10.0793 16.3672 10.1651 17.1596 10.4934C17.952 10.8216 18.6293 11.3775 19.1059 12.0906C19.5824 12.8038 19.8367 13.6423 19.8367 14.5C19.8334 15.6491 19.3754 16.7502 18.5628 17.5628C17.7502 18.3754 16.6491 18.8334 15.5 18.8367ZM21.1122 2H9.88775C8.06101 2 6.30908 2.72567 5.01738 4.01738C3.72567 5.30908 3 7.06101 3 8.88775V20.1122C3 21.939 3.72567 23.6909 5.01738 24.9826C6.30908 26.2743 8.06101 27 9.88775 27H21.1122C22.939 27 24.6909 26.2743 25.9826 24.9826C27.2743 23.6909 28 21.939 28 20.1122V8.88775C28 7.06101 27.2743 5.30908 25.9826 4.01738C24.6909 2.72567 22.939 2 21.1122 2ZM26.4694 20.1122C26.4694 21.533 25.905 22.8957 24.9003 23.9003C23.8957 24.905 22.533 25.4694 21.1122 25.4694H9.88775C8.46695 25.4694 7.10434 24.905 6.09968 23.9003C5.09502 22.8957 4.53061 21.533 4.53061 20.1122V8.88775C4.53061 7.46695 5.09502 6.10434 6.09968 5.09968C7.10434 4.09502 8.46695 3.53061 9.88775 3.53061H21.1122C22.533 3.53061 23.8957 4.09502 24.9003 5.09968C25.905 6.10434 26.4694 7.46695 26.4694 8.88775V20.1122ZM23.4082 7.86735C23.4082 8.11962 23.3334 8.36623 23.1932 8.57598C23.053 8.78574 22.8538 8.94922 22.6208 9.04576C22.3877 9.1423 22.1312 9.16756 21.8838 9.11835C21.6364 9.06913 21.4091 8.94765 21.2307 8.76927C21.0523 8.59089 20.9309 8.36361 20.8817 8.11619C20.8324 7.86876 20.8577 7.6123 20.9542 7.37923C21.0508 7.14616 21.2143 6.94695 21.424 6.8068C21.6338 6.66664 21.8804 6.59184 22.1327 6.59184C22.4709 6.59184 22.7954 6.72622 23.0346 6.96543C23.2738 7.20463 23.4082 7.52906 23.4082 7.86735Z" fill="#757575"></path>
  </symbol>
  <symbol fill="none" xmlns="http://www.w3.org/2000/svg" viewBox="0 0 30 30" id="magnifying-glass">
    <path d="M27.787 25.7589L22.1066 20.0785C23.85 18.0904 24.812 15.5748 24.812 12.906C24.812 9.99276 23.6774 7.25419 21.6176 5.1944C19.5578 3.13462 16.8192 2 13.906 2C10.9928 2 8.25419 3.13462 6.1944 5.1944C4.13462 7.25419 3 9.99276 3 12.906C3 15.8192 4.13462 18.5578 6.1944 20.6176C8.25419 22.6774 10.9928 23.812 13.906 23.812C16.5748 23.812 19.0904 22.85 21.0785 21.1066L26.7589 26.787C26.9009 26.929 27.0869 27 27.2729 27C27.459 27 27.645 26.929 27.787 26.787C28.071 26.503 28.071 26.0429 27.787 25.7589ZM7.22252 19.5895C5.43752 17.8041 4.45413 15.4305 4.45413 12.906C4.45413 10.3815 5.43752 8.00788 7.22252 6.22252C9.00788 4.43752 11.3815 3.45413 13.906 3.45413C16.4305 3.45413 18.8041 4.43752 20.5895 6.22252C22.3745 8.00788 23.3579 10.3815 23.3579 12.906C23.3579 15.4305 22.3745 17.8041 20.5895 19.5895C18.8041 21.3745 16.4305 22.3579 13.906 22.3579C11.3815 22.3579 9.00788 21.3745 7.22252 19.5895Z" fill="#757575"></path>
  </symbol>
  <symbol fill="none" xmlns="http://www.w3.org/2000/svg" viewBox="0 0 18 18" id="marker">
    <path d="M8.99994 0C5.33348 0 2.35072 2.98279 2.35072 6.64928C2.35072 7.85632 2.89205 9.1545 2.91473 9.20926C3.08957 9.62425 3.43455 10.2688 3.6833 10.6467L8.24232 17.5545C8.42889 17.8377 8.70503 18 8.99994 18C9.29485 18 9.57099 17.8377 9.75756 17.5549L14.317 10.6467C14.5661 10.2688 14.9107 9.62425 15.0855 9.20926C15.1082 9.15489 15.6492 7.85671 15.6492 6.64928C15.6492 2.98279 12.6664 0 8.99994 0ZM14.3643 8.90574C14.2082 9.27771 13.8871 9.87731 13.6638 10.216L9.10437 17.1243C9.01441 17.2608 8.98586 17.2608 8.8959 17.1243L4.33649 10.216C4.11316 9.87731 3.79204 9.27731 3.63598 8.90534C3.62933 8.88931 3.13298 7.69439 3.13298 6.64928C3.13298 3.41421 5.7649 0.782269 8.99994 0.782269C12.235 0.782269 14.8669 3.41421 14.8669 6.64928C14.8669 7.69596 14.3694 8.894 14.3643 8.90574Z" fill="#757575"></path>
    <path d="M8.99998 3.12939C7.05876 3.12939 5.47974 4.70876 5.47974 6.64953C5.47974 8.5903 7.05876 10.1697 8.99998 10.1697C10.9412 10.1697 12.5202 8.5903 12.5202 6.64953C12.5202 4.70876 10.9412 3.12939 8.99998 3.12939ZM8.99998 9.38742C7.49058 9.38742 6.26201 8.15928 6.26201 6.64953C6.26201 5.13979 7.49058 3.91165 8.99998 3.91165C10.5094 3.91165 11.7379 5.13979 11.7379 6.64953C11.7379 8.15928 10.5094 9.38742 8.99998 9.38742Z" fill="#757575"></path>
  </symbol>
  <symbol fill="none" xmlns="http://www.w3.org/2000/svg" viewBox="0 0 19 19" id="person">
    <circle cx="9.5" cy="9.5" r="9.5" fill="#7E9A8E"></circle>
    <mask id="path-2-inside-1_17_700" fill="white">
      <path fill-rule="evenodd" clip-rule="evenodd" d="M9.62494 9.625C11.0062 9.625 12.1249 8.50625 12.1249 7.125C12.1249 5.74375 11.0062 4.625 9.62494 4.625C8.24369 4.625 7.12494 5.74375 7.12494 7.125C7.12494 8.50625 8.24369 9.625 9.62494 9.625ZM12.7499 7.125C12.7499 8.85156 11.3515 10.25 9.62494 10.25C7.89838 10.25 6.49994 8.85156 6.49994 7.125C6.49994 5.39844 7.89838 4 9.62494 4C11.3515 4 12.7499 5.39844 12.7499 7.125Z"></path>
    </mask>
    <path d="M9.62494 10.625C11.5585 10.625 13.1249 9.05853 13.1249 7.125H11.1249C11.1249 7.95397 10.4539 8.625 9.62494 8.625V10.625ZM13.1249 7.125C13.1249 5.19147 11.5585 3.625 9.62494 3.625V5.625C10.4539 5.625 11.1249 6.29603 11.1249 7.125H13.1249ZM9.62494 3.625C7.6914 3.625 6.12494 5.19147 6.12494 7.125H8.12494C8.12494 6.29603 8.79597 5.625 9.62494 5.625V3.625ZM6.12494 7.125C6.12494 9.05853 7.6914 10.625 9.62494 10.625V8.625C8.79597 8.625 8.12494 7.95397 8.12494 7.125H6.12494ZM11.7499 7.125C11.7499 8.29928 10.7992 9.25 9.62494 9.25V11.25C11.9038 11.25 13.7499 9.40385 13.7499 7.125H11.7499ZM9.62494 9.25C8.45066 9.25 7.49994 8.29928 7.49994 7.125H5.49994C5.49994 9.40385 7.34609 11.25 9.62494 11.25V9.25ZM7.49994 7.125C7.49994 5.95072 8.45066 5 9.62494 5V3C7.34609 3 5.49994 4.84615 5.49994 7.125H7.49994ZM9.62494 5C10.7992 5 11.7499 5.95072 11.7499 7.125H13.7499C13.7499 4.84615 11.9038 3 9.62494 3V5Z" fill="white" mask="url(#path-2-inside-1_17_700)"></path>
    <mask id="path-4-inside-2_17_700" fill="white">
      <path fill-rule="evenodd" clip-rule="evenodd" d="M5.00719 12.0663C4.69375 12.3194 4.625 12.5091 4.625 12.625V13.875H14.625V12.625C14.625 12.5094 14.5563 12.3191 14.2425 12.0663C13.9363 11.8191 13.4794 11.5834 12.9256 11.3797C11.8187 10.9725 10.4853 10.75 9.625 10.75C8.76469 10.75 7.43125 10.9725 6.32437 11.3797C5.77062 11.5834 5.31375 11.8191 5.00719 12.0663ZM9.625 10.125C7.7475 10.125 4 11.0734 4 12.625V14.5H15.25V12.625C15.25 11.0734 11.5025 10.125 9.625 10.125Z"></path>
    </mask>
    <path d="M5.00719 12.0663L4.3795 11.2878L4.3789 11.2883L5.00719 12.0663ZM4.625 13.875H3.625V14.875H4.625V13.875ZM14.625 13.875V14.875H15.625V13.875H14.625ZM14.2425 12.0663L13.6144 12.8444L13.6151 12.8449L14.2425 12.0663ZM12.9256 11.3797L13.2709 10.4412L13.2709 10.4412L12.9256 11.3797ZM6.32437 11.3797L5.97912 10.4412L5.97906 10.4412L6.32437 11.3797ZM4 14.5H3V15.5H4V14.5ZM15.25 14.5V15.5H16.25V14.5H15.25ZM4.3789 11.2883C3.95239 11.6327 3.625 12.0789 3.625 12.625H5.625C5.625 12.7738 5.57883 12.8738 5.5551 12.9131C5.53537 12.9459 5.54204 12.9197 5.63547 12.8442L4.3789 11.2883ZM3.625 12.625V13.875H5.625V12.625H3.625ZM4.625 14.875H14.625V12.875H4.625V14.875ZM15.625 13.875V12.625H13.625V13.875H15.625ZM15.625 12.625C15.625 12.0795 15.298 11.6325 14.8699 11.2876L13.6151 12.8449C13.7081 12.9199 13.7146 12.9459 13.6948 12.9131C13.6712 12.8739 13.625 12.7741 13.625 12.625H15.625ZM14.8706 11.2881C14.4454 10.9449 13.8758 10.6638 13.2709 10.4412L12.5803 12.3182C13.0829 12.5031 13.4271 12.6932 13.6144 12.8444L14.8706 11.2881ZM13.2709 10.4412C12.0607 9.99598 10.6106 9.75 9.625 9.75V11.75C10.36 11.75 11.5768 11.949 12.5804 12.3182L13.2709 10.4412ZM9.625 9.75C8.6394 9.75 7.18932 9.99598 5.97912 10.4412L6.66963 12.3182C7.67318 11.949 8.88997 11.75 9.625 11.75V9.75ZM5.97906 10.4412C5.37405 10.6638 4.80472 10.9449 4.3795 11.2878L5.63488 12.8447C5.82278 12.6932 6.1672 12.5031 6.66969 12.3182L5.97906 10.4412ZM9.625 9.125C8.56098 9.125 7.03807 9.38558 5.76314 9.85467C5.12603 10.0891 4.48638 10.3986 3.98699 10.8015C3.4988 11.1954 3 11.8019 3 12.625H5C5 12.6723 4.96964 12.5785 5.24278 12.3581C5.50471 12.1468 5.91928 11.9283 6.45374 11.7317C7.52193 11.3386 8.81152 11.125 9.625 11.125V9.125ZM3 12.625V14.5H5V12.625H3ZM4 15.5H15.25V13.5H4V15.5ZM16.25 14.5V12.625H14.25V14.5H16.25ZM16.25 12.625C16.25 11.8019 15.7512 11.1954 15.263 10.8015C14.7636 10.3986 14.124 10.0891 13.4869 9.85467C12.2119 9.38558 10.689 9.125 9.625 9.125V11.125C10.4385 11.125 11.7281 11.3386 12.7963 11.7317C13.3307 11.9283 13.7453 12.1468 14.0072 12.3581C14.2804 12.5785 14.25 12.6723 14.25 12.625H16.25Z" fill="white" mask="url(#path-4-inside-2_17_700)"></path>
  </symbol>
  <symbol fill="none" xmlns="http://www.w3.org/2000/svg" viewBox="0 0 24 24" id="telegram">
    <path d="M16.0428 9.30859C16.0185 9.30859 13.9975 10.6054 9.97983 13.1991L10.8286 16.0219L11.0105 14.23C14.4704 11.0718 16.2024 9.48246 16.2065 9.46202C16.2097 9.44789 16.2117 9.43352 16.2125 9.41906C16.2125 9.34541 16.1559 9.30858 16.0428 9.30859Z" fill="#ABC4C0"></path>
    <path d="M14.7311 3.22437H9.898C5.97947 3.22437 2.79706 6.37296 2.79706 10.2499V15.0317C2.79706 18.9086 5.97947 22.0572 9.898 22.0572H14.7311C18.6496 22.0572 21.8321 18.9086 21.8321 15.0317V10.2499C21.8321 6.37298 18.6496 3.22437 14.7311 3.22437ZM18.371 7.97093L16.4551 17.2738C16.3823 17.5929 16.1883 17.7525 15.873 17.7525C15.7491 17.7515 15.6293 17.7082 15.5335 17.6297L12.7082 15.5556L11.144 17.0406C11.0702 17.1159 10.9703 17.1599 10.865 17.1634C10.6468 17.1634 10.5013 17.0652 10.4285 16.8688L9.31294 13.4692L6.54825 12.5978C6.3785 12.5405 6.28149 12.4178 6.25722 12.2296C6.25722 12.0332 6.35019 11.8982 6.53613 11.8246C14.1108 8.9609 17.9223 7.52905 17.9708 7.52906C18.0738 7.53502 18.1709 7.57872 18.2437 7.6518C18.289 7.69084 18.3242 7.74023 18.3464 7.79578C18.3685 7.85133 18.377 7.91141 18.371 7.97092L18.371 7.97093Z" fill="#ABC4C0"></path>
  </symbol>
  <symbol fill="none" xmlns="http://www.w3.org/2000/svg" viewBox="0 0 24 24" id="viber">
    <g clip-path="url(#clip0_31_146)">
      <path d="M13.8013 3.33325H9.66748C5.67846 3.33325 2.43323 6.57848 2.43323 10.5675V13.6679C2.43323 16.4684 4.04837 19.0099 6.56708 20.2054V23.658C6.56708 23.9578 6.94211 24.1146 7.15515 23.9016L10.1546 20.9022H13.8013C17.7903 20.9022 21.0355 17.6569 21.0355 13.6679V10.5675C21.0355 6.57848 17.7903 3.33325 13.8013 3.33325Z" fill="#7E9A8E"></path>
      <path d="M16.9353 16.1732L16.6256 14.4954C16.5999 14.3568 16.4926 14.2478 16.3544 14.2201L13.9185 13.733C13.8053 13.7104 13.6888 13.7458 13.6073 13.8272L12.6177 14.8168C10.9503 14.0697 10.0249 13.1423 9.21065 11.4034L10.1971 10.417C10.2785 10.3355 10.3139 10.2187 10.2913 10.1058L9.80413 7.66985C9.77648 7.53168 9.66746 7.42423 9.52884 7.39864L7.85105 7.08896C7.80512 7.08053 7.75781 7.08141 7.7122 7.09179C7.2692 7.19242 6.86499 7.41563 6.54324 7.73746C5.98613 8.29457 5.77321 9.10751 5.92756 10.0884C6.18666 11.7355 6.99363 14.0277 8.48247 15.5226L8.50282 15.5427C9.99647 17.0305 12.2887 17.8376 13.9359 18.0967C14.1434 18.1294 14.3433 18.1456 14.5349 18.1456C15.2492 18.1456 15.8476 17.9203 16.287 17.481C16.6087 17.1592 16.832 16.755 16.9326 16.3121C16.9428 16.2664 16.9438 16.2192 16.9353 16.1732Z" fill="white"></path>
      <path d="M9.8603 10.754L10.1971 10.4171L10.1975 10.4167L9.86026 10.7539L9.8603 10.754Z" fill="#E5E5E5"></path>
      <path d="M13.6073 13.8269L13.2672 14.167L13.2673 14.167L13.6074 13.8269L13.6073 13.8269Z" fill="#E5E5E5"></path>
      <path d="M12.4233 9.18945C12.2331 9.18945 12.0788 9.34369 12.0788 9.53392C12.0788 9.72416 12.2331 9.87839 12.4233 9.87839C13.1831 9.87839 13.8013 10.4965 13.8013 11.2564C13.8013 11.4441 13.958 11.6008 14.1457 11.6008C14.3334 11.6008 14.4902 11.4441 14.4902 11.2564C14.4902 10.1166 13.563 9.18945 12.4233 9.18945Z" fill="white"></path>
      <path d="M12.4233 7.81152C12.2959 7.81152 12.1673 7.81859 12.0411 7.83251C11.8519 7.85338 11.7156 8.0236 11.7364 8.21275C11.7573 8.4019 11.9279 8.53792 12.1167 8.51738C12.2179 8.5062 12.3211 8.50051 12.4233 8.50051C13.9429 8.50051 15.1792 9.73679 15.1792 11.2564C15.1792 11.3587 15.1735 11.4619 15.1624 11.5631C15.1418 11.7496 15.2804 11.9228 15.467 11.9434C15.6536 11.9639 15.8266 11.8253 15.8472 11.6387C15.8611 11.5125 15.8682 11.3839 15.8682 11.2564C15.8682 9.35692 14.3229 7.81152 12.4233 7.81152Z" fill="white"></path>
      <path d="M12.4238 6.43359C12.3006 6.43359 12.176 6.43828 12.0532 6.4476C11.8635 6.46197 11.7214 6.62746 11.7357 6.81714C11.7501 7.00685 11.9161 7.14901 12.1053 7.13465C12.2108 7.12661 12.3179 7.12258 12.4238 7.12258C14.7032 7.12258 16.5576 8.977 16.5576 11.2564C16.5576 11.5789 16.5204 11.9 16.447 12.2106C16.4049 12.3887 16.5145 12.5737 16.6911 12.622C16.8768 12.6729 17.0733 12.5564 17.1175 12.3691C17.2032 12.0066 17.2466 11.6323 17.2466 11.2564C17.2466 8.59709 15.0831 6.43359 12.4238 6.43359Z" fill="white"></path>
    </g>
    <defs>
      <clipPath id="clip0_31_146">
        <rect width="24" height="24" fill="white"></rect>
      </clipPath>
    </defs>
  </symbol>
  <symbol fill="none" xmlns="http://www.w3.org/2000/svg" viewBox="0 0 19 19" id="weight">
    <circle cx="9.5" cy="9.5" r="9.5" fill="#7E9A8E"></circle>
    <path d="M11.0684 7.54592L10.7101 8.15H11.4124H12.9999C13.4022 8.15 13.7435 8.43468 13.8284 8.8127L13.8283 8.81273L13.8307 8.82236C14.459 11.3262 14.7788 12.6086 14.9416 13.2822C15.1028 13.9494 15.1005 13.9888 15.1 13.9987C15.1 13.9992 15.0999 13.9996 15.0999 14C15.0999 14.2254 15.0104 14.4416 14.851 14.601C14.6916 14.7604 14.4754 14.85 14.2499 14.85H4.24994C4.0245 14.85 3.8083 14.7604 3.6489 14.601C3.48949 14.4416 3.39994 14.2254 3.39994 14C3.39994 13.9996 3.39992 13.9992 3.39989 13.9987C3.39933 13.9888 3.39709 13.9494 3.55828 13.2822C3.72105 12.6086 4.04086 11.3262 4.66916 8.82236L4.66928 8.82239L4.67146 8.8127C4.7564 8.43468 5.09772 8.15 5.49994 8.15H7.08744H7.78804L7.43191 7.54667C7.24524 7.23044 7.1478 6.86953 7.14993 6.50233H7.14994V6.5C7.14994 5.94305 7.37119 5.4089 7.76501 5.01508C8.15884 4.62125 8.69298 4.4 9.24994 4.4C9.80689 4.4 10.341 4.62125 10.7349 5.01508C11.1287 5.4089 11.3499 5.94305 11.3499 6.5C11.3499 6.88542 11.25 7.23978 11.0684 7.54592Z" stroke="white" stroke-width="0.8"></path>
    <path d="M8.24609 12.0215L8.01953 12.2578V13H7.6582V10H8.01953V11.8145L8.21289 11.582L8.87109 10.8867H9.31055L8.48828 11.7695L9.40625 13H8.98242L8.24609 12.0215ZM9.55859 11.9258C9.55859 11.5964 9.63477 11.3346 9.78711 11.1406C9.93945 10.9453 10.1413 10.8477 10.3926 10.8477C10.6504 10.8477 10.8516 10.9388 10.9961 11.1211L11.0137 10.8867H11.3438V12.9492C11.3438 13.2227 11.2624 13.4382 11.0996 13.5957C10.9382 13.7533 10.7207 13.832 10.4473 13.832C10.2949 13.832 10.1458 13.7995 10 13.7344C9.85417 13.6693 9.74284 13.5801 9.66602 13.4668L9.85352 13.25C10.0085 13.4414 10.1979 13.5371 10.4219 13.5371C10.5977 13.5371 10.7344 13.4876 10.832 13.3887C10.931 13.2897 10.9805 13.1504 10.9805 12.9707V12.7891C10.8359 12.9557 10.6387 13.0391 10.3887 13.0391C10.1413 13.0391 9.94076 12.9395 9.78711 12.7402C9.63477 12.541 9.55859 12.2695 9.55859 11.9258ZM9.92188 11.9668C9.92188 12.2051 9.9707 12.3926 10.0684 12.5293C10.166 12.6647 10.3027 12.7324 10.4785 12.7324C10.7064 12.7324 10.8737 12.6289 10.9805 12.4219V11.457C10.8698 11.2552 10.7038 11.1543 10.4824 11.1543C10.3066 11.1543 10.1693 11.2227 10.0703 11.3594C9.97135 11.4961 9.92188 11.6986 9.92188 11.9668Z" fill="white"></path>
  </symbol>
  <symbol fill="none" xmlns="http://www.w3.org/2000/svg" viewBox="0 0 24 24" id="whatsapp">
    <path d="M12.6525 7.40552C9.89854 7.40552 7.63049 9.61661 7.63049 12.3504C7.63031 13.3954 7.97165 14.4118 8.60255 15.2449L7.995 17.0942L9.93899 16.4912C10.7592 17.0216 11.7163 17.3011 12.693 17.2953C15.447 17.2953 17.715 15.0842 17.715 12.3504C17.6745 9.61661 15.4065 7.40552 12.6525 7.40552ZM15.5645 14.4118C15.3995 14.8483 14.7397 15.1507 14.2816 15.147C12.3994 15.1314 9.70205 12.5633 9.73343 11.0307C9.73562 10.8208 9.77965 10.6135 9.86294 10.4208C9.94624 10.2281 10.0671 10.054 10.2185 9.90862C10.4808 9.65461 11.1001 9.55244 11.2714 9.94927C11.6913 11.0605 11.7994 11.0828 11.7169 11.276C11.6366 11.4642 11.5115 11.6298 11.3524 11.7584C10.9243 12.0686 12.128 13.091 12.3062 13.2249C13.4192 14.0612 13.5794 13.7291 13.6468 13.6573C14.0443 13.2333 14.0036 13.0819 14.1734 13.0467C14.3495 13.0102 15.5446 13.66 15.5493 13.663C15.7846 13.8115 15.6371 14.1954 15.5645 14.4118Z" fill="#C9DBCD"></path>
    <path d="M14.9476 3.1145H10.1145C6.19593 3.1145 3.01352 6.2631 3.01352 10.14V14.9218C3.01352 18.7987 6.19593 21.9473 10.1145 21.9473H14.9476C18.8661 21.9473 22.0485 18.7987 22.0485 14.9218V10.14C22.0485 6.26312 18.8661 3.1145 14.9476 3.1145ZM12.6525 18.2198C11.6497 18.2141 10.6631 17.9658 9.77701 17.4961L6.45602 18.5414L7.5495 15.4056C7.00099 14.4949 6.70725 13.4535 6.69901 12.3904C6.69901 9.13404 9.37203 6.52091 12.6525 6.52091C15.933 6.48067 18.606 9.09384 18.606 12.3502C18.606 15.6066 15.933 18.2198 12.6525 18.2198Z" fill="#C9DBCD"></path>
  </symbol>
  <symbol fill="none" xmlns="http://www.w3.org/2000/svg" viewBox="0 0 19 19" id="width">
    <circle cx="9.5" cy="9.5" r="9.5" fill="#7E9A8E"></circle>
    <path d="M3 9.5H16M3 9.5L5 7.5M3 9.5L5 11.5M16 9.5L14.2667 7.5M16 9.5L14 11.5" stroke="white" stroke-linecap="round"></path>
  </symbol>
</svg>