<svg width="0" height="0" class="hidden">
  <symbol fill="none" xmlns="http://www.w3.org/2000/svg" viewBox="0 0 87 88" id="delivery">
    <path d="M18.8237 16.842C22.9149 16.842 26.6307 18.4926 29.2982 21.1757C31.9813 23.8589 33.6631 27.559 33.6631 31.6502C33.6631 35.7414 31.9891 39.4571 29.3295 42.148C26.6463 44.8312 22.9228 46.4817 18.8316 46.4817C14.7404 46.4817 11.0481 44.8312 8.35717 42.148C5.67403 39.4649 4 35.7414 4 31.6502C4 27.559 5.67403 23.8667 8.35717 21.1757C11.0168 18.4926 14.7404 16.842 18.8316 16.842H18.8237ZM28.4533 22.0128C25.9892 19.5487 22.5864 18.0233 18.8237 18.0233C15.0611 18.0233 11.6505 19.5487 9.18636 22.0128C6.72225 24.4769 5.19685 27.8797 5.19685 31.6423C5.19685 35.405 6.72225 38.8391 9.18636 41.3032C11.6505 43.7673 15.0533 45.2927 18.8237 45.2927C22.5942 45.2927 25.9892 43.7673 28.4533 41.3032C30.9409 38.8391 32.4663 35.4128 32.4663 31.6423C32.4663 27.8719 30.9409 24.4769 28.4533 22.0128Z" fill="#7E9A8E"></path>
    <path d="M18.2295 17.4366C18.2295 17.1158 18.5033 16.842 18.824 16.842C19.1447 16.842 19.4107 17.1158 19.4107 17.4366V22.1927C19.4107 22.5134 19.1369 22.7794 18.824 22.7794C18.5111 22.7794 18.2295 22.5134 18.2295 22.1927V17.4366Z" fill="#7E9A8E"></path>
    <path d="M33.0372 31.0634C33.3579 31.0634 33.6238 31.3371 33.6238 31.6579C33.6238 32.002 33.3579 32.2524 33.0372 32.2524H28.281C27.9603 32.2524 27.6865 32.002 27.6865 31.6579C27.6865 31.3371 27.9603 31.0634 28.281 31.0634H33.0372Z" fill="#7E9A8E"></path>
    <path d="M19.4107 45.8638C19.4107 46.208 19.1369 46.4818 18.824 46.4818C18.5111 46.4818 18.2295 46.208 18.2295 45.8638V41.1311C18.2295 40.787 18.5033 40.5366 18.824 40.5366C19.1447 40.5366 19.4107 40.7791 19.4107 41.1311V45.8638Z" fill="#7E9A8E"></path>
    <path d="M4.60233 32.2446C4.28161 32.2446 4.00781 31.9943 4.00781 31.6501C4.00781 31.3293 4.28161 31.0555 4.60233 31.0555H9.35846C9.67919 31.0555 9.95296 31.3293 9.95296 31.6501C9.95296 31.9943 9.67919 32.2446 9.35846 32.2446H4.60233Z" fill="#7E9A8E"></path>
    <path d="M13.8723 23.3738C13.7237 23.0765 13.8488 22.7089 14.1461 22.5837C14.4433 22.4351 14.7875 22.5603 14.9361 22.8575L19.5906 32.5184L26.7326 33.3789C27.0768 33.4258 27.3036 33.7231 27.2723 34.0438C27.2254 34.3645 26.9281 34.6148 26.6074 34.5601L19.1447 33.6448C18.9491 33.6214 18.777 33.4962 18.6753 33.3241L13.8723 23.3738Z" fill="#7E9A8E"></path>
    <path d="M31.6057 25.3921H58.4605C58.7812 25.3921 59.055 25.6659 59.055 26.0101V65.5766C59.055 65.9208 58.7812 66.1711 58.4605 66.1711H25.0034C24.6827 66.1711 24.4089 65.9208 24.4089 65.5766V65.5531C24.3385 64.3719 23.8144 63.2846 23.0087 62.5023C22.1717 61.7122 21.0609 61.2194 19.8092 61.2194C18.5576 61.2194 17.4703 61.7122 16.6333 62.5023C15.8197 63.2924 15.28 64.3954 15.233 65.6078C15.2096 65.9286 14.9358 66.1789 14.6385 66.1789H9.29572C8.95153 66.1789 8.67773 65.9286 8.67773 65.5844V41.663C9.06886 42.0307 9.46782 42.3983 9.88242 42.7191V64.9899H14.0988C14.2944 63.6835 14.9123 62.5023 15.8276 61.6418C16.8601 60.6562 18.2917 60.0382 19.8171 60.0382C21.3425 60.0382 22.774 60.6562 23.8301 61.6418C24.7453 62.5023 25.3554 63.6835 25.5588 64.9899H57.8582V26.6046H32.1376C31.989 26.1822 31.8169 25.791 31.6213 25.3999L31.6057 25.3921Z" fill="#7E9A8E"></path>
    <path d="M58.4608 34.2394H69.5218C69.7174 34.2394 69.8895 34.3411 70.0147 34.4819L82.875 50.6433C82.9767 50.7685 83.0001 50.8858 83.0001 51.011V65.5687C83.0001 65.9129 82.7576 66.1633 82.4134 66.1633H77.0706C76.7499 66.1633 76.4761 65.9129 76.4761 65.5687V65.5453C76.4057 64.3641 75.8816 63.2767 75.0446 62.4945C74.2311 61.7044 73.0968 61.2116 71.8686 61.2116C70.6405 61.2116 69.5297 61.7044 68.6927 62.4945C67.8791 63.2846 67.3394 64.3875 67.2846 65.6C67.2611 65.9208 66.9873 66.1711 66.6901 66.1711H58.4608C58.1166 66.1711 57.8428 65.9208 57.8428 65.5766V34.8261C57.8428 34.5054 58.1166 34.2316 58.4608 34.2316V34.2394ZM69.2246 35.4206H59.0475V64.982H66.1425C66.3146 63.6757 66.9561 62.4945 67.8713 61.634C68.9039 60.6483 70.3119 60.0304 71.8608 60.0304C73.4097 60.0304 74.8177 60.6483 75.8738 61.634C76.789 62.4945 77.3992 63.6757 77.5947 64.982H81.8111V51.23L69.2246 35.4128V35.4206Z" fill="#7E9A8E"></path>
    <path d="M32.5679 35.3737H53.2664C53.6106 35.3737 53.8609 35.6475 53.8609 35.9916C53.8609 36.3124 53.6106 36.5862 53.2664 36.5862H32.1768C32.3254 36.195 32.4505 35.7961 32.5679 35.3815V35.3737Z" fill="#7E9A8E"></path>
    <path d="M9.28789 46.3879C8.94369 46.3879 8.66992 46.1141 8.66992 45.7934C8.66992 45.4726 8.94369 45.1989 9.28789 45.1989H14.4351C15.8119 45.6447 17.2904 45.8872 18.8236 45.8872C20.3568 45.8872 21.8275 45.6447 23.2121 45.1989H53.2742C53.6183 45.1989 53.8687 45.4726 53.8687 45.7934C53.8687 46.1141 53.6183 46.3879 53.2742 46.3879H9.29572H9.28789Z" fill="#7E9A8E"></path>
    <path d="M9.28789 56.1895C8.94369 56.1895 8.66992 55.9392 8.66992 55.595C8.66992 55.2743 8.94369 55.0083 9.28789 55.0083H53.2663C53.6105 55.0083 53.8608 55.2821 53.8608 55.595C53.8608 55.9392 53.6105 56.1895 53.2663 56.1895H9.28789Z" fill="#7E9A8E"></path>
    <path d="M58.4608 51.6602C58.1166 51.6602 57.8428 51.3864 57.8428 51.0735C57.8428 50.7606 58.1166 50.479 58.4608 50.479H82.4056C82.7498 50.479 82.9923 50.7528 82.9923 51.0735C82.9923 51.3943 82.7498 51.6602 82.4056 51.6602H58.4608Z" fill="#7E9A8E"></path>
    <path d="M19.8092 60.0304C21.4128 60.0304 22.8678 60.6718 23.9239 61.7279C24.9564 62.7605 25.6214 64.2155 25.6214 65.8191C25.6214 67.4227 24.9564 68.8777 23.9239 69.9103L23.8769 69.9572C22.8444 70.9898 21.4128 71.6078 19.8092 71.6078C18.2056 71.6078 16.7819 70.9663 15.718 69.9103C14.6854 68.8777 14.0205 67.4227 14.0205 65.8191C14.0205 64.2155 14.6854 62.7683 15.718 61.7279L15.7649 61.7044C16.7975 60.6718 18.229 60.0304 19.8014 60.0304H19.8092ZM23.0869 62.5649C22.2498 61.7279 21.0921 61.2116 19.8092 61.2116C18.5263 61.2116 17.4233 61.7279 16.5785 62.5414L16.555 62.5649C15.718 63.4019 15.2252 64.5597 15.2252 65.8191C15.2252 67.0785 15.718 68.2597 16.555 69.0733C17.392 69.9103 18.5498 70.4266 19.8092 70.4266C21.0686 70.4266 22.2264 69.9338 23.0399 69.1202L23.0869 69.0733C23.9004 68.2597 24.4167 67.102 24.4167 65.8191C24.4167 64.5362 23.9004 63.4019 23.0869 62.5649Z" fill="#7E9A8E"></path>
    <path d="M71.8688 60.0304C73.4724 60.0304 74.9274 60.6718 75.9834 61.7279C77.016 62.7605 77.6575 64.2155 77.6575 65.8191C77.6575 67.4227 77.016 68.8777 75.9834 69.9103L75.9365 69.9572C74.9039 70.9898 73.4724 71.6078 71.8688 71.6078C70.2651 71.6078 68.8415 70.9663 67.7776 69.9103C66.745 68.8777 66.0801 67.4227 66.0801 65.8191C66.0801 64.2155 66.745 62.7683 67.7776 61.7279L67.8011 61.7044C68.8571 60.6718 70.2886 60.0304 71.8688 60.0304ZM75.123 62.5649C74.3094 61.7279 73.1517 61.2116 71.8688 61.2116C70.5859 61.2116 69.4829 61.7279 68.6381 62.5414L68.6146 62.5649C67.7776 63.4019 67.2613 64.5597 67.2613 65.8191C67.2613 67.0785 67.7776 68.2597 68.6146 69.0733C69.4516 69.9103 70.6093 70.4266 71.8688 70.4266C73.1282 70.4266 74.2859 69.9338 75.0995 69.1202L75.123 69.0733C75.96 68.2597 76.4763 67.102 76.4763 65.8191C76.4763 64.5362 75.96 63.4019 75.123 62.5649Z" fill="#7E9A8E"></path>
    <path d="M60.6043 38.5261H68.466C68.7867 38.5261 69.0604 38.7999 69.0604 39.1206V48.1166C69.0604 48.4608 68.7867 48.7346 68.466 48.7346H60.6043C60.2835 48.7346 60.0098 48.4608 60.0098 48.1166V39.1206C60.0098 38.7999 60.2835 38.5261 60.6043 38.5261ZM67.8714 39.7073H61.2223V47.5143H67.8714V39.7073Z" fill="#7E9A8E"></path>
  </symbol>
  <symbol fill="none" xmlns="http://www.w3.org/2000/svg" viewBox="0 0 19 19" id="drop">
    <circle cx="9.5" cy="9.5" r="9.5" fill="#7E9A8E"></circle>
    <path d="M9.21875 13.8435C9.83056 13.8132 10.4093 13.5565 10.8424 13.1234C11.2755 12.6903 11.5322 12.1116 11.5625 11.4998" stroke="white" stroke-width="0.8" stroke-linecap="round"></path>
    <path d="M9.21875 15.3185C8.20638 15.3172 7.23586 14.9144 6.51999 14.1985C5.80551 13.4841 5.40292 12.5159 5.40001 11.5056C5.42413 10.7562 5.64471 10.0262 6.03971 9.3888C6.0399 9.3885 6.04008 9.3882 6.04027 9.3879L9.15175 4.43122C9.1592 4.42236 9.16834 4.41504 9.17867 4.40972L9.01132 4.085L9.17867 4.40972C9.19106 4.40333 9.2048 4.4 9.21875 4.4C9.2327 4.4 9.24644 4.40333 9.25884 4.40972C9.26917 4.41505 9.27832 4.42237 9.28576 4.43124L12.3843 9.36466C12.3844 9.36478 12.3845 9.3649 12.3846 9.36502C12.7867 10.0089 13.0119 10.7474 13.0375 11.506C13.0345 12.5161 12.6319 13.4841 11.9175 14.1985C11.2016 14.9144 10.2311 15.3172 9.21875 15.3185Z" stroke="white" stroke-width="0.8"></path>
  </symbol>
  <symbol fill="none" xmlns="http://www.w3.org/2000/svg" viewBox="0 0 18 18" id="email">
    <g clip-path="url(#clip0_17_498)">
      <path d="M16.2279 15.4726H1.77218C1.30231 15.4721 0.851836 15.2852 0.519603 14.9529C0.18737 14.6206 0.000508277 14.1701 1.52588e-05 13.7003V4.77257C0.000508277 4.3027 0.18737 3.85222 0.519603 3.51995C0.851836 3.18769 1.30231 3.00078 1.77218 3.00024H16.2279C16.6977 3.00078 17.1482 3.18769 17.4804 3.51995C17.8127 3.85222 17.9995 4.3027 18 4.77257V13.7003C17.9995 14.1701 17.8127 14.6206 17.4804 14.9529C17.1482 15.2852 16.6977 15.4721 16.2279 15.4726ZM1.77218 3.67761C1.48189 3.67792 1.20358 3.79339 0.998326 3.99868C0.793076 4.20396 0.677651 4.48228 0.677382 4.77257V13.7003C0.677651 13.9906 0.793076 14.2689 0.998326 14.4742C1.20358 14.6794 1.48189 14.7949 1.77218 14.7952H16.2279C16.5181 14.7949 16.7965 14.6794 17.0017 14.4742C17.207 14.2689 17.3224 13.9906 17.3226 13.7003V4.77257C17.3224 4.48228 17.207 4.20396 17.0017 3.99868C16.7965 3.79339 16.5181 3.67792 16.2279 3.67761H1.77218Z" fill="currentColor"></path>
      <path d="M9.00003 11.2295C8.91747 11.2295 8.83774 11.1994 8.77582 11.1448L0.613556 3.93967L1.0618 3.43164L9.00003 10.4397L16.9386 3.43249L17.3868 3.94051L9.22458 11.1457C9.1625 11.2001 9.08261 11.2299 9.00003 11.2295Z" fill="currentColor"></path>
      <path d="M0.429398 14.4092L5.91272 8.16152L6.4221 8.60858L0.938777 14.8562L0.429398 14.4092Z" fill="currentColor"></path>
      <path d="M11.5952 8.60181L12.1046 8.15474L17.588 14.4025L17.0786 14.8496L11.5952 8.60181Z" fill="currentColor"></path>
    </g>
    <defs>
      <clipPath id="clip0_17_498">
        <rect width="18" height="18" fill="white"></rect>
      </clipPath>
    </defs>
  </symbol>
  <symbol fill="none" xmlns="http://www.w3.org/2000/svg" viewBox="0 0 16 15" id="eye">
    <g clip-path="url(#clip0_17_632)">
      <path d="M8 3.01587C4.94303 3.01587 2.17081 4.57687 0.125192 7.11234C-0.0417306 7.32006 -0.0417306 7.61027 0.125192 7.81799C2.17081 10.3565 4.94303 11.9175 8 11.9175C11.057 11.9175 13.8292 10.3565 15.8748 7.82105C16.0417 7.61332 16.0417 7.32312 15.8748 7.11539C13.8292 4.57687 11.057 3.01587 8 3.01587ZM8.21929 10.6009C6.19004 10.72 4.51427 9.15905 4.64191 7.26202C4.74665 5.69797 6.10494 4.43024 7.78071 4.33248C9.80996 4.21335 11.4857 5.77434 11.3581 7.67136C11.2501 9.23236 9.89179 10.5001 8.21929 10.6009ZM8.11783 9.15294C7.02465 9.21709 6.1213 8.37702 6.19331 7.35672C6.24895 6.5136 6.9821 5.83238 7.88545 5.7774C8.97862 5.71325 9.88197 6.55331 9.80996 7.57361C9.75105 8.41979 9.0179 9.101 8.11783 9.15294Z" fill="#ABC4C0"></path>
    </g>
    <defs>
      <clipPath id="clip0_17_632">
        <rect width="16" height="14.9333" fill="white"></rect>
      </clipPath>
    </defs>
  </symbol>
  <symbol fill="none" xmlns="http://www.w3.org/2000/svg" viewBox="0 0 19 19" id="fire">
    <circle cx="9.5" cy="9.5" r="9.5" fill="#7E9A8E"></circle>
    <path d="M13.5091 9.09382L13.509 9.09355C13.2469 8.50379 12.866 7.97445 12.39 7.53865L12.3897 7.53837L12.28 7.43766L12.231 7.57809C12.231 7.57827 12.2309 7.57844 12.2308 7.57862C12.0906 7.98351 11.8397 8.37848 11.5047 8.75159L11.4995 8.75733L11.4995 8.75728C11.3914 8.87304 11.2626 8.90479 11.1832 8.91201C11.0885 8.92061 10.9428 8.90314 10.8173 8.7898C10.7 8.68571 10.6476 8.53834 10.6553 8.39918L10.6554 8.39683C10.7037 7.61193 10.4702 6.69182 9.9151 5.65057L9.91478 5.64996C9.47012 4.81249 8.85716 4.16662 8.09482 3.7167C8.09474 3.71665 8.09465 3.71659 8.09456 3.71654L7.94056 3.62593L7.9489 3.80784L7.9489 3.80788C7.97267 4.32761 7.91373 4.80865 7.75858 5.22421C7.58185 5.69818 7.32808 6.13802 7.00445 6.53214L7.00428 6.53235C6.77933 6.80592 6.52438 7.05336 6.24421 7.27002L6.2433 7.27072C5.67365 7.70862 5.21041 8.26968 4.88823 8.9119C4.5675 9.559 4.40042 10.2714 4.4 10.9936L13.5091 9.09382ZM13.5091 9.09382C13.7777 9.69709 13.9125 10.336 13.9125 10.9951L13.9125 10.9959C13.9138 11.6263 13.7867 12.2504 13.5389 12.8301L13.5388 12.8304C13.2999 13.3904 12.9574 13.8949 12.5197 14.3272L12.5187 14.3282C12.0854 14.7593 11.5722 15.1019 11.0079 15.3367L11.0077 15.3369C10.421 15.5815 9.79952 15.7059 9.15625 15.7059C8.513 15.7059 7.89181 15.5815 7.30557 15.3357L7.30504 15.3355M13.5091 9.09382L7.30504 15.3355M7.30504 15.3355C6.73952 15.0993 6.23171 14.7592 5.793 14.3259C5.35965 13.8973 5.01345 13.3888 4.77354 12.8285M7.30504 15.3355L4.77354 12.8285M4.77354 12.8285C4.52548 12.2474 4.40003 11.6316 4.4 10.9938L4.77354 12.8285Z" stroke="white" stroke-width="0.8" stroke-linecap="round"></path>
  </symbol>
  <symbol fill="none" xmlns="http://www.w3.org/2000/svg" viewBox="0 0 19 19" id="form">
    <circle cx="9.5" cy="9.5" r="9.5" fill="#7E9A8E"></circle>
    <path d="M4.52823 11.3047C4.52823 10.9656 4.80341 10.688 5.14494 10.688C5.48646 10.688 5.76165 10.9631 5.76165 11.3047C5.76165 11.3464 5.77147 11.3857 5.79113 11.4226C5.87467 11.973 6.34886 12.3956 6.92135 12.3956C7.49383 12.3956 8.00489 11.9386 8.0614 11.3587C8.06386 11.3415 8.06632 11.3243 8.06632 11.3047C8.06632 10.9656 8.34149 10.688 8.68301 10.688C9.02454 10.688 9.29972 10.9631 9.29972 11.3047C9.29972 11.3464 9.30955 11.3857 9.32921 11.4226C9.41275 11.973 9.88696 12.3956 10.4594 12.3956C11.0319 12.3956 11.543 11.9386 11.5995 11.3587C11.6019 11.3415 11.6044 11.3243 11.6044 11.3047C11.6044 10.9656 11.8796 10.688 12.2211 10.688C12.5626 10.688 12.8378 10.9631 12.8378 11.3047C12.8378 11.4496 12.9558 11.57 13.1032 11.57C13.2481 11.57 13.3661 11.4521 13.3661 11.3047C13.3661 10.6732 12.8526 10.1597 12.2211 10.1597C11.6265 10.1597 11.1376 10.6167 11.0835 11.1941C11.0786 11.2113 11.0786 11.2285 11.0786 11.2482C11.0786 11.5872 10.8034 11.8649 10.4619 11.8649C10.1204 11.8649 9.84519 11.5872 9.84519 11.2482C9.84519 11.2064 9.83536 11.1671 9.8157 11.1302C9.73217 10.5798 9.25796 10.1572 8.68547 10.1572C8.11299 10.1572 7.60193 10.6142 7.54788 11.1916C7.54297 11.2088 7.54298 11.226 7.54298 11.2457C7.54298 11.5848 7.26533 11.8624 6.92627 11.8624C6.5872 11.8624 6.30955 11.5848 6.30955 11.2457C6.30955 11.2039 6.29973 11.1646 6.28007 11.1277C6.19653 10.5774 5.72234 10.1548 5.14986 10.1548C4.51841 10.1548 4.00488 10.6683 4.00488 11.2997C4.00488 11.4447 4.12282 11.5651 4.27024 11.5651C4.28253 11.5651 4.29236 11.5651 4.30219 11.5626C4.43241 11.5454 4.53314 11.4373 4.53314 11.3022L4.52823 11.3047Z" fill="white"></path>
    <path d="M12.017 5.14496V6.16952H9.25286V5.14496C9.25286 4.80589 9.55508 4.52825 9.92609 4.52825C10.2971 4.52825 10.5993 4.80343 10.5993 5.14496C10.5993 5.28992 10.7172 5.40786 10.8622 5.40786C11.0072 5.40786 11.1276 5.28992 11.1276 5.14496C11.1276 4.51351 10.5895 4 9.92609 4C9.2627 4 8.72461 4.51351 8.72461 5.14496V9.40295C8.72461 9.54791 8.84255 9.6683 8.98751 9.6683C9.13247 9.6683 9.25286 9.55037 9.25286 9.40295V8.49386H12.017V9.40295C12.017 9.54791 12.1349 9.6683 12.2823 9.6683C12.4298 9.6683 12.5477 9.55037 12.5477 9.40295V5.14496C12.5477 4.80589 12.8499 4.52825 13.2209 4.52825C13.5919 4.52825 13.8941 4.80343 13.8941 5.14496C13.8941 5.28992 14.0121 5.40786 14.1595 5.40786C14.3069 5.40786 14.4249 5.28992 14.4249 5.14496C14.4249 4.51351 13.8868 4 13.2234 4C12.56 4 12.0219 4.51351 12.0219 5.14496H12.017ZM9.25286 7.96559V6.69779H12.017V7.96559H9.25286Z" fill="white"></path>
    <path d="M12.2162 12.7666C11.6216 12.7666 11.1327 13.2212 11.0786 13.801C11.0737 13.8182 11.0737 13.8354 11.0737 13.8551C11.0737 14.1942 10.7985 14.4718 10.457 14.4718C10.1155 14.4718 9.8403 14.1966 9.8403 13.8551C9.8403 13.8133 9.83048 13.774 9.81082 13.7371C9.72728 13.1892 9.25309 12.7642 8.68061 12.7642C8.10812 12.7642 7.59707 13.2187 7.54301 13.7986C7.5381 13.8158 7.53809 13.833 7.53809 13.8526C7.53809 14.1917 7.26045 14.4693 6.92138 14.4693C6.58232 14.4693 6.30467 14.1942 6.30467 13.8526C6.30467 13.8109 6.29484 13.7716 6.27519 13.7347C6.19165 13.1868 5.71745 12.7617 5.14497 12.7617C4.80836 12.7617 4.50615 12.9091 4.2973 13.1401C4.11303 13.344 4 13.6118 4 13.9067C4 14.0516 4.11794 14.1696 4.26536 14.1696C4.27765 14.1696 4.28747 14.1696 4.2973 14.1671C4.42752 14.1524 4.52826 14.0418 4.52826 13.9067C4.52826 13.5676 4.80345 13.29 5.14497 13.29C5.4865 13.29 5.76168 13.5652 5.76168 13.9067C5.76168 13.9484 5.77151 13.9878 5.79117 14.0246C5.8747 14.575 6.3489 14.9976 6.92138 14.9976C7.49386 14.9976 8.00492 14.5431 8.06144 13.9632C8.06389 13.946 8.06635 13.9288 8.06635 13.9091C8.06635 13.5701 8.34153 13.2924 8.68305 13.2924C9.02457 13.2924 9.29976 13.5676 9.29976 13.9091C9.29976 13.9509 9.30959 13.9902 9.32924 14.0271C9.41278 14.5775 9.88699 15 10.4595 15C11.032 15 11.543 14.5455 11.5995 13.9657C11.602 13.9485 11.6044 13.9313 11.6044 13.9116C11.6044 13.5725 11.8796 13.2949 12.2211 13.2949C12.5627 13.2949 12.8379 13.5701 12.8379 13.9116C12.8379 14.0566 12.9558 14.1745 13.1032 14.1745C13.2482 14.1745 13.3661 14.0566 13.3661 13.9116C13.3661 13.634 13.2678 13.3784 13.1032 13.1819C12.8919 12.9288 12.5774 12.7666 12.2236 12.7666H12.2162Z" fill="white"></path>
  </symbol>
  <symbol fill="none" xmlns="http://www.w3.org/2000/svg" viewBox="0 0 19 19" id="heating">
    <circle cx="9.5" cy="9.5" r="9.5" fill="#7E9A8E"></circle>
    <path d="M6.09795 5.86991C5.4856 6.41261 5.43046 7.35 5.97316 7.95944L11.7687 14.5008C12.0618 14.8317 12.4681 15 12.8773 15C13.2256 15 13.5767 14.8781 13.8582 14.6285L14.3951 14.1526C15.0075 13.6099 15.0626 12.6725 14.5228 12.0601L8.72727 5.51876C8.46608 5.22274 8.10332 5.04861 7.70863 5.02249C7.31685 4.99928 6.94537 5.12697 6.65225 5.37945L5.51752 4.09962C5.40724 3.97773 5.22151 3.96612 5.09962 4.0735C4.97773 4.18088 4.96612 4.36951 5.0735 4.4914L6.20823 5.77124L6.10085 5.86701L6.09795 5.86991ZM7.67961 5.49844C7.94951 5.51585 8.19618 5.63484 8.37321 5.83509L14.1688 12.3765C14.5373 12.7915 14.4996 13.4299 14.0817 13.7985L13.5448 14.2745C13.1298 14.643 12.4913 14.6053 12.1228 14.1903L6.32722 7.64892C6.15019 7.44867 6.06022 7.19038 6.07763 6.92048C6.09504 6.65058 6.21403 6.4039 6.41428 6.22687L6.95408 5.75093C7.13981 5.58841 7.37198 5.49844 7.61866 5.49844C7.63897 5.49844 7.65929 5.49844 7.68251 5.49844H7.67961Z" fill="white"></path>
    <path d="M11.8125 13.0468C11.9083 13.1571 12.0418 13.2209 12.1898 13.2296C12.2014 13.2296 12.213 13.2296 12.2246 13.2296C12.3581 13.2296 12.4858 13.1803 12.5874 13.0932L13.0169 12.7131C13.1272 12.6173 13.191 12.4838 13.1997 12.3358C13.2084 12.1907 13.1591 12.0485 13.0633 11.9382L8.77687 7.10325C8.6811 6.99297 8.5476 6.92912 8.39959 6.92042C8.25158 6.91171 8.11228 6.96105 8.002 7.05682L7.57249 7.437C7.46221 7.53277 7.39836 7.66626 7.38966 7.81427C7.38095 7.95938 7.43029 8.10158 7.52606 8.21186L11.8125 13.0468ZM7.81046 7.70399L8.23998 7.32381C8.2748 7.29189 8.31833 7.27448 8.36767 7.27448C8.37057 7.27448 8.37638 7.27448 8.37928 7.27448C8.43152 7.27448 8.47795 7.3006 8.51278 7.33832L8.98583 7.87232L8.269 8.50788L7.79595 7.97389C7.76113 7.93616 7.74661 7.88683 7.74952 7.83459C7.75242 7.78235 7.77564 7.73592 7.81336 7.70109L7.81046 7.70399ZM12.7818 12.4461L12.3523 12.8262C12.3146 12.8611 12.2652 12.8785 12.213 12.8727C12.1607 12.8698 12.1143 12.8466 12.0795 12.8088L11.4352 12.0804L12.152 11.4448L12.7963 12.1704C12.8311 12.2081 12.8456 12.2574 12.8427 12.3097C12.8427 12.3619 12.8166 12.4083 12.7789 12.4432L12.7818 12.4461ZM9.89709 8.90257L9.18026 9.53814L8.58243 8.86484L9.29925 8.22928L9.89709 8.90257ZM10.8606 9.98797L10.1438 10.6235L9.49659 9.89219L10.2134 9.25663L10.8606 9.98797ZM11.8386 11.0937L11.1218 11.7292L10.4572 10.9776L11.174 10.342L11.8386 11.0937Z" fill="white"></path>
  </symbol>
  <symbol fill="none" xmlns="http://www.w3.org/2000/svg" viewBox="0 0 19 19" id="height">
    <circle cx="9.5" cy="9.5" r="9.5" fill="#7E9A8E"></circle>
    <path d="M9.5 16L9.5 3M9.5 16L7.5 14M9.5 16L11.5 14M9.5 3L7.5 4.73333M9.5 3L11.5 5" stroke="white" stroke-linecap="round"></path>
  </symbol>
  <symbol xmlns="http://www.w3.org/2000/svg" xmlns:xlink="http://www.w3.org/1999/xlink" viewBox="0 0 512 512" id="instagram">
    <linearGradient id="aaa" gradientUnits="userSpaceOnUse" x1="42.966156268" x2="469.0337477" y1="469.0296477168" y2="42.9620562848">
      <stop offset="0" stop-color="#ffd600"></stop>
      <stop offset=".5" stop-color="#ff0100"></stop>
      <stop offset="1" stop-color="#d800b9"></stop>
    </linearGradient>
    <linearGradient id="bbb" gradientUnits="userSpaceOnUse" x1="163.0429956456" x2="348.9539083464" y1="348.9538083312" y2="163.0428956304">
      <stop offset="0" stop-color="#ff6400"></stop>
      <stop offset=".5" stop-color="#ff0100"></stop>
      <stop offset="1" stop-color="#fd0056"></stop>
    </linearGradient>
    <linearGradient id="ccc" gradientUnits="userSpaceOnUse" x1="370.9291325432" x2="414.3727849912" y1="141.0676714336" y2="97.6240189856">
      <stop offset="0" stop-color="#f30072"></stop>
      <stop offset="1" stop-color="#e50097"></stop>
    </linearGradient>
    <path d="m510.460938 150.453125c-1.246094-27.25-5.574219-45.859375-11.902344-62.140625-6.425782-17.082031-16.503906-32.554688-29.527344-45.34375-12.785156-13.023438-28.261719-23.105469-45.34375-29.535156-16.285156-6.324219-34.890625-10.648438-62.140625-11.886719-27.300781-1.25-36.023437-1.546875-105.546875-1.546875s-78.246094.296875-105.546875 1.539062c-27.25 1.246094-45.855469 5.574219-62.140625 11.902344-17.082031 6.425782-32.554688 16.503906-45.34375 29.527344-13.023438 12.785156-23.105469 28.257812-29.535156 45.339844-6.324219 16.285156-10.648438 34.894531-11.886719 62.140625-1.25 27.304687-1.546875 36.023437-1.546875 105.546875 0 69.527344.296875 78.25 1.546875 105.550781 1.242187 27.246094 5.570313 45.855469 11.898437 62.140625 6.425782 17.078125 16.503907 32.554688 29.527344 45.339844 12.785156 13.023437 28.261719 23.101562 45.34375 29.527344 16.28125 6.332031 34.890625 10.65625 62.140625 11.902343 27.304688 1.246094 36.023438 1.539063 105.546875 1.539063 69.523438 0 78.246094-.292969 105.546875-1.539063 27.25-1.246093 45.855469-5.570312 62.140625-11.902343 34.386719-13.296876 61.570313-40.480469 74.867188-74.867188 6.332031-16.285156 10.65625-34.894531 11.902344-62.140625 1.242187-27.304687 1.539062-36.023437 1.539062-105.546875 0-69.527344-.296875-78.246094-1.539062-105.546875zm-46.082032 208.996094c-1.136718 24.960937-5.308594 38.515625-8.8125 47.535156-8.613281 22.328125-26.257812 39.972656-48.585937 48.585937-9.019531 3.503907-22.574219 7.675782-47.535157 8.8125-26.988281 1.234376-35.085937 1.492188-103.445312 1.492188-68.363281 0-76.457031-.257812-103.449219-1.492188-24.957031-1.136718-38.511719-5.308593-47.535156-8.8125-11.117187-4.105468-21.175781-10.648437-29.433594-19.152343-8.503906-8.257813-15.046875-18.3125-19.152343-29.433594-3.503907-9.019531-7.675782-22.574219-8.8125-47.535156-1.230469-26.992188-1.492188-35.089844-1.492188-103.445313 0-68.359375.261719-76.453125 1.492188-103.449218 1.140624-24.960938 5.308593-38.515626 8.8125-47.535157 4.105468-11.121093 10.652343-21.179687 19.152343-29.4375 8.257813-8.503906 18.316407-15.046875 29.4375-19.148437 9.019531-3.507813 22.574219-7.675782 47.535157-8.816406 26.992187-1.230469 35.089843-1.492188 103.445312-1.492188h-.003906c68.355468 0 76.453125.261719 103.449218 1.496094 24.960938 1.136718 38.511719 5.308594 47.535157 8.8125 11.117187 4.105468 21.175781 10.648437 29.433593 19.148437 8.503907 8.257813 15.046876 18.316407 19.148438 29.4375 3.507812 9.019531 7.679688 22.574219 8.816406 47.535157 1.230469 26.992187 1.492188 35.089843 1.492188 103.445312 0 68.359375-.257813 76.453125-1.492188 103.449219zm0 0" fill="url(#aaa)"></path>
    <path d="m255.996094 124.539062c-72.601563 0-131.457032 58.859376-131.457032 131.460938s58.855469 131.457031 131.457032 131.457031c72.605468 0 131.460937-58.855469 131.460937-131.457031s-58.855469-131.460938-131.460937-131.460938zm0 216.792969c-47.125-.003906-85.332032-38.207031-85.328125-85.335937 0-47.125 38.203125-85.332032 85.332031-85.332032 47.128906.003907 85.332031 38.207032 85.332031 85.332032 0 47.128906-38.207031 85.335937-85.335937 85.335937zm0 0" fill="url(#bbb)"></path>
    <path d="m423.371094 119.347656c0 16.964844-13.753906 30.71875-30.71875 30.71875-16.96875 0-30.722656-13.753906-30.722656-30.71875 0-16.96875 13.753906-30.722656 30.722656-30.722656 16.964844 0 30.71875 13.753906 30.71875 30.722656zm0 0" fill="url(#ccc)"></path>
  </symbol>
  <symbol fill="none" xmlns="http://www.w3.org/2000/svg" viewBox="0 0 30 30" id="magnifying-glass">
    <path d="M27.787 25.7589L22.1066 20.0785C23.85 18.0904 24.812 15.5748 24.812 12.906C24.812 9.99276 23.6774 7.25419 21.6176 5.1944C19.5578 3.13462 16.8192 2 13.906 2C10.9928 2 8.25419 3.13462 6.1944 5.1944C4.13462 7.25419 3 9.99276 3 12.906C3 15.8192 4.13462 18.5578 6.1944 20.6176C8.25419 22.6774 10.9928 23.812 13.906 23.812C16.5748 23.812 19.0904 22.85 21.0785 21.1066L26.7589 26.787C26.9009 26.929 27.0869 27 27.2729 27C27.459 27 27.645 26.929 27.787 26.787C28.071 26.503 28.071 26.0429 27.787 25.7589ZM7.22252 19.5895C5.43752 17.8041 4.45413 15.4305 4.45413 12.906C4.45413 10.3815 5.43752 8.00788 7.22252 6.22252C9.00788 4.43752 11.3815 3.45413 13.906 3.45413C16.4305 3.45413 18.8041 4.43752 20.5895 6.22252C22.3745 8.00788 23.3579 10.3815 23.3579 12.906C23.3579 15.4305 22.3745 17.8041 20.5895 19.5895C18.8041 21.3745 16.4305 22.3579 13.906 22.3579C11.3815 22.3579 9.00788 21.3745 7.22252 19.5895Z" fill="#757575"></path>
  </symbol>
  <symbol fill="none" xmlns="http://www.w3.org/2000/svg" viewBox="0 0 18 18" id="marker">
    <path d="M8.99994 0C5.33348 0 2.35072 2.98279 2.35072 6.64928C2.35072 7.85632 2.89205 9.1545 2.91473 9.20926C3.08957 9.62425 3.43455 10.2688 3.6833 10.6467L8.24232 17.5545C8.42889 17.8377 8.70503 18 8.99994 18C9.29485 18 9.57099 17.8377 9.75756 17.5549L14.317 10.6467C14.5661 10.2688 14.9107 9.62425 15.0855 9.20926C15.1082 9.15489 15.6492 7.85671 15.6492 6.64928C15.6492 2.98279 12.6664 0 8.99994 0ZM14.3643 8.90574C14.2082 9.27771 13.8871 9.87731 13.6638 10.216L9.10437 17.1243C9.01441 17.2608 8.98586 17.2608 8.8959 17.1243L4.33649 10.216C4.11316 9.87731 3.79204 9.27731 3.63598 8.90534C3.62933 8.88931 3.13298 7.69439 3.13298 6.64928C3.13298 3.41421 5.7649 0.782269 8.99994 0.782269C12.235 0.782269 14.8669 3.41421 14.8669 6.64928C14.8669 7.69596 14.3694 8.894 14.3643 8.90574Z" fill="#757575"></path>
    <path d="M8.99998 3.12939C7.05876 3.12939 5.47974 4.70876 5.47974 6.64953C5.47974 8.5903 7.05876 10.1697 8.99998 10.1697C10.9412 10.1697 12.5202 8.5903 12.5202 6.64953C12.5202 4.70876 10.9412 3.12939 8.99998 3.12939ZM8.99998 9.38742C7.49058 9.38742 6.26201 8.15928 6.26201 6.64953C6.26201 5.13979 7.49058 3.91165 8.99998 3.91165C10.5094 3.91165 11.7379 5.13979 11.7379 6.64953C11.7379 8.15928 10.5094 9.38742 8.99998 9.38742Z" fill="#757575"></path>
  </symbol>
  <symbol fill="none" xmlns="http://www.w3.org/2000/svg" viewBox="0 0 19 19" id="material">
    <circle cx="9.5" cy="9.5" r="9.5" fill="#7E9A8E"></circle>
    <path d="M14.9918 13.7588C14.58 10.9553 14.1708 8.15445 13.7589 5.3509C13.7013 4.94725 13.6409 4.54086 13.5804 4.13721C13.564 4.02738 13.4377 3.98894 13.3443 4.00267C12.4299 4.13722 11.5128 4.27177 10.5984 4.40631C10.4886 4.42279 10.4501 4.5491 10.4639 4.64246C10.6423 5.86163 10.8208 7.08356 11.002 8.30273C10.1398 7.47347 9.27764 6.64147 8.41543 5.81221C8.12162 5.52938 7.82507 5.24381 7.53126 4.96098C7.45712 4.88959 7.33355 4.8841 7.26216 4.96098C6.61962 5.62823 5.97982 6.29274 5.33729 6.95999C5.26589 7.03413 5.2604 7.1577 5.33729 7.22909C5.49929 7.3856 5.65856 7.53937 5.82056 7.69314C5.68876 7.63273 5.55696 7.57506 5.42516 7.51465C5.34003 7.47621 5.20823 7.4817 5.16429 7.5833C4.78261 8.42629 4.40368 9.26928 4.022 10.1123C3.98356 10.1974 3.98905 10.3264 4.09065 10.3731C4.5547 10.5818 5.01601 10.7905 5.48007 11.0019C5.18626 10.9992 4.89245 10.9937 4.59864 10.991C4.4943 10.991 4.40918 11.0788 4.40643 11.1832C4.39545 12.1085 4.38446 13.0339 4.37348 13.9593C4.37348 14.0636 4.46135 14.1487 4.56569 14.1515C7.0013 14.1789 9.43965 14.2091 11.8753 14.2366C11.8753 14.2476 11.878 14.2558 11.8807 14.2668C11.8972 14.3766 12.0235 14.4123 12.1169 14.4014C12.3393 14.3684 12.5617 14.3354 12.7814 14.3025C12.8391 14.3272 12.8967 14.3547 12.9544 14.3821C13.0395 14.4206 13.1713 14.4151 13.2153 14.3135C13.2235 14.2943 13.2345 14.275 13.2427 14.2531C13.5914 14.2586 13.9429 14.2613 14.2916 14.2641C14.396 14.2641 14.4811 14.1762 14.4839 14.0718C14.4839 14.0636 14.4839 14.0581 14.4839 14.0499C14.6102 14.0307 14.7365 14.0142 14.8628 13.995C14.9726 13.9785 15.0111 13.8934 14.9973 13.8082C14.9973 13.7918 14.9973 13.778 14.9973 13.7616L14.9918 13.7588ZM5.74093 7.0863C6.29286 6.51241 6.84752 5.93851 7.40219 5.36188C8.63235 6.5481 9.86251 7.73158 11.0927 8.91781C11.2821 10.2084 11.4716 11.4962 11.6611 12.7868C9.93665 11.1282 8.21498 9.46698 6.49056 7.80847C6.24069 7.56683 5.99081 7.32793 5.74093 7.0863ZM5.40044 10.5489C5.07917 10.4033 4.7579 10.2578 4.43663 10.1123C4.76614 9.38461 5.0929 8.65695 5.42241 7.92929C5.82605 8.11052 6.2297 8.29449 6.63609 8.47846C8.24244 10.0271 9.85153 11.5731 11.4579 13.1218C11.5567 13.2151 11.6528 13.3112 11.7517 13.4046C11.7517 13.4101 11.7517 13.4128 11.7517 13.4183C9.63461 12.4627 7.51478 11.5044 5.3977 10.5489H5.40044ZM5.79036 13.7808C5.44437 13.7753 5.10114 13.7725 4.75516 13.7671C4.7634 12.9707 4.77438 12.1717 4.78262 11.3754C5.30434 11.3809 5.82331 11.3864 6.34228 11.3946C8.15457 12.2129 9.96686 13.0339 11.7819 13.8522C9.78288 13.8275 7.78662 13.8055 5.78762 13.7808H5.79036ZM12.2212 13.9977C11.8176 11.2491 11.4139 8.50043 11.013 5.75454L10.8648 4.75229C11.6556 4.63696 12.4436 4.52164 13.2345 4.40357C13.6381 7.1522 14.0418 9.89809 14.4427 12.6467C14.4921 12.9817 14.5415 13.3167 14.5909 13.649C13.8001 13.7643 13.012 13.8796 12.2212 13.9977Z" fill="white"></path>
    <path d="M13.2677 12.1855C12.9135 12.1855 12.6279 12.4711 12.6279 12.8253C12.6279 13.1796 12.9162 13.4651 13.2677 13.4651C13.6192 13.4651 13.9075 13.1768 13.9075 12.8253C13.9075 12.4739 13.6192 12.1855 13.2677 12.1855ZM13.2677 13.2619C13.0261 13.2619 12.8311 13.067 12.8311 12.8253C12.8311 12.5837 13.0261 12.3887 13.2677 12.3887C13.5093 12.3887 13.7043 12.5837 13.7043 12.8253C13.7043 13.067 13.5093 13.2619 13.2677 13.2619Z" fill="white"></path>
  </symbol>
  <symbol xmlns="http://www.w3.org/2000/svg" id="person" fill="none" version="1.1" viewBox="0 0 19 19">
    <circle id="circle2" cx="9.5" cy="9.5" r="9.5" fill="#7E9A8E" mask="none"></circle>
    <path id="path864" fill="#fff" d="M9.625 4C7.8984 4 6.5 5.3984 6.5 7.125c0 1.475 1.0206 2.7103 2.3945 3.039-.0174.0017-.0332.0022-.0508.004-.141.0145-.2867.0332-.4355.0547-.1488.0214-.3012.0459-.455.0742a12.3956 12.3956 0 0 0-.465.0957 12.123 12.123 0 0 0-.4687.1152c-.1556.0414-.3105.085-.4629.1328a9.6168 9.6168 0 0 0-.4472.1524c-.1465.0539-.29.11-.4278.1699-.0688.03-.137.0623-.203.0937a5.8819 5.8819 0 0 0-.1934.0957c-.0632.0329-.1258.0654-.1856.0997a4.4094 4.4094 0 0 0-.1738.1054 3.7339 3.7339 0 0 0-.1621.1094 3.0985 3.0985 0 0 0-.1485.1133 2.6334 2.6334 0 0 0-.1367.1172 2.1588 2.1588 0 0 0-.121.121 1.7534 1.7534 0 0 0-.1036.125 1.5062 1.5062 0 0 0-.0898.129 1.2569 1.2569 0 0 0-.0704.1328 1.0943 1.0943 0 0 0-.0507.1367.9768.9768 0 0 0-.0313.1387A.972.972 0 0 0 4 12.625V14.5h11.25v-1.875a.972.972 0 0 0-.0117-.1445.9768.9768 0 0 0-.0313-.1387 1.0943 1.0943 0 0 0-.0508-.1367 1.2571 1.2571 0 0 0-.0703-.1328 1.5063 1.5063 0 0 0-.0898-.129 1.7533 1.7533 0 0 0-.1035-.125 2.1587 2.1587 0 0 0-.1211-.121 2.6333 2.6333 0 0 0-.1367-.1172 3.0986 3.0986 0 0 0-.1485-.1133 3.734 3.734 0 0 0-.162-.1094 4.4095 4.4095 0 0 0-.174-.1054c-.0597-.0343-.1223-.0668-.1855-.0997a5.8813 5.8813 0 0 0-.1933-.0957c-.0662-.0314-.1343-.0638-.2031-.0937a8.0528 8.0528 0 0 0-.4278-.17 9.6166 9.6166 0 0 0-.4472-.1523 11.1135 11.1135 0 0 0-.463-.1328 12.1231 12.1231 0 0 0-.4687-.1152 12.3954 12.3954 0 0 0-.4648-.0957 11.9635 11.9635 0 0 0-.4551-.0742 10.7617 10.7617 0 0 0-.4355-.0547c-.0176-.0018-.0334-.0023-.0508-.004C11.7294 9.8354 12.75 8.6 12.75 7.125 12.75 5.3984 11.3516 4 9.625 4zm0 .625c1.3813 0 2.5 1.1188 2.5 2.5s-1.1187 2.5-2.5 2.5c-1.3812 0-2.5-1.1188-2.5-2.5s1.1188-2.5 2.5-2.5zm0 6.125c.1075 0 .2228.0029.3438.0098.121.0068.2472.0176.3789.0312.1316.0136.2686.0306.4082.0508s.2829.0437.4277.0703c.1448.0266.2902.057.4375.0899.1473.0329.2963.0683.4434.1074.147.039.2934.0819.4375.127.144.045.2854.0916.4238.1425.1384.051.271.1056.3965.1602.1255.0546.2446.1103.3554.168.0555.0288.1087.0584.1602.0878.0514.0295.1012.0579.1484.088.0473.03.092.0612.1348.0917.0429.0305.0828.061.121.0918a2.047 2.047 0 0 1 .1075.0918c.032.0296.0607.0583.086.086a1.11 1.11 0 0 1 .0664.08.8013.8013 0 0 1 .0488.0723.6429.6429 0 0 1 .0351.0683.5001.5001 0 0 1 .0235.0606.372.372 0 0 1 .0156.0996v1.25h-10v-1.25a.395.395 0 0 1 .0156-.1016.4787.4787 0 0 1 .0235-.0586.6433.6433 0 0 1 .0351-.0683.8032.8032 0 0 1 .0488-.0723 1.1143 1.1143 0 0 1 .0665-.08 1.5209 1.5209 0 0 1 .0859-.086 2.0632 2.0632 0 0 1 .1074-.0918 3.0953 3.0953 0 0 1 .2559-.1836c.0473-.03.097-.0584.1484-.0879a4.5047 4.5047 0 0 1 .1602-.0879c.1108-.0576.23-.1133.3554-.168a7.379 7.379 0 0 1 .3965-.16 9.054 9.054 0 0 1 .4238-.1427c.1441-.045.2905-.0879.4375-.127.1471-.039.2961-.0744.4434-.1073.1473-.033.2927-.0633.4375-.0899a11.379 11.379 0 0 1 .4277-.0703c.1396-.0202.2766-.0372.4082-.0508a8.2603 8.2603 0 0 1 .379-.0312 6.064 6.064 0 0 1 .3437-.0098z"></path>
  </symbol>
  <symbol fill="none" xmlns="http://www.w3.org/2000/svg" viewBox="0 0 88 88" id="pickup">
    <path d="M60.1066 18.2512L33.8687 24.6513V61.9441L41.3771 60.1155C41.2294 59.4505 41.0816 58.7486 40.9985 58.0467C40.8784 57.0862 40.823 56.1535 40.823 55.193C40.823 49.5501 43.0026 44.406 46.5859 40.564C50.0215 36.8421 54.787 34.367 60.1159 33.8129V18.2512H60.1066ZM33.0283 23.4323L60.6053 16.7089C60.6608 16.6812 60.7531 16.6812 60.8085 16.6812C61.2149 16.6812 61.5104 16.9674 61.5104 17.383V34.4594C61.5104 34.838 61.2518 35.1243 60.8732 35.1613C55.6367 35.5399 50.9543 37.9227 47.6111 41.5337C44.2678 45.1079 42.2268 49.9103 42.2268 55.2022C42.2268 56.135 42.2822 57.0031 42.4023 57.8528C42.5223 58.7579 42.6886 59.5983 42.9287 60.4664C43.0118 60.8451 42.7809 61.2237 42.4023 61.3068L33.4162 63.4864C33.3331 63.5141 33.2684 63.5418 33.1853 63.5418C32.8066 63.5418 32.4834 63.2186 32.4834 62.8399V24.0972C32.4834 23.8109 32.7143 23.5154 33.0375 23.4323H33.0283Z" fill="#7E9A8E"></path>
    <path d="M5.77458 16.7089L33.3516 23.4323C33.6749 23.5154 33.8781 23.8109 33.8781 24.0972V62.8399C33.8781 63.2186 33.5918 63.5418 33.1762 63.5418C33.1208 63.5418 33.0284 63.5141 32.973 63.4864L5.36822 56.763C5.04498 56.7076 4.8418 56.4121 4.8418 56.0981V17.383C4.8418 16.9767 5.16504 16.6812 5.54369 16.6812C5.62681 16.6812 5.69146 16.6812 5.77458 16.7089ZM32.4743 24.6513L6.23635 18.2512V55.5439L32.4743 61.9441V24.6513Z" fill="#7E9A8E"></path>
    <path d="M5.39638 16.6812L33.0289 10.8628C33.1489 10.8351 33.232 10.8351 33.3152 10.8628L60.9476 16.6812C61.3263 16.7643 61.5849 17.1429 61.5018 17.5216C61.4463 17.7802 61.2155 17.9834 60.9476 18.048L33.3429 24.7991C33.2228 24.8268 33.112 24.8268 33.0196 24.7991L5.35945 18.048C5.0085 17.9649 4.77761 17.5862 4.86073 17.2076C4.91614 16.949 5.11932 16.7458 5.38715 16.6812H5.39638ZM33.1766 12.2574L8.71191 17.4015L33.1766 23.3953L57.669 17.4015L33.1766 12.2574Z" fill="#7E9A8E"></path>
    <path d="M11.7407 51.702C11.7407 52.1083 11.4175 52.4039 11.0388 52.4039C10.6324 52.4039 10.3369 52.1176 10.3369 51.702V23.5985C10.3369 23.2198 10.6324 22.8966 11.0388 22.8966C11.4175 22.8966 11.7407 23.2198 11.7407 23.5985V51.702Z" fill="#7E9A8E"></path>
    <path d="M17.2079 47.2229C17.2079 47.6015 16.8846 47.9248 16.506 47.9248C16.0996 47.9248 15.7764 47.6015 15.7764 47.2229V28.087C15.7764 27.7084 16.0996 27.3851 16.506 27.3851C16.8846 27.3851 17.2079 27.7084 17.2079 28.087V47.2229Z" fill="#7E9A8E"></path>
    <path d="M62.3233 33.665C68.2617 33.665 73.6367 36.0755 77.5341 39.9728C81.4314 43.8702 83.8419 49.2545 83.8419 55.1836C83.8419 61.1128 81.4314 66.5248 77.5341 70.4221C73.6367 74.3195 68.2525 76.7022 62.3233 76.7022C56.3941 76.7022 50.9822 74.3195 47.0848 70.4221C43.1874 66.5248 40.8047 61.1405 40.8047 55.1836C40.8047 49.2268 43.1874 43.8702 47.0848 39.9728L47.1125 39.9451C51.0099 36.0755 56.3941 33.665 62.3233 33.665ZM76.4905 41.0257C72.8794 37.3869 67.8553 35.1242 62.3233 35.1242C56.7913 35.1242 51.7672 37.3961 48.1284 40.998C44.4896 44.6367 42.2546 49.6701 42.2546 55.1929C42.2546 60.7157 44.4989 65.749 48.1284 69.3878C51.7672 73.0265 56.7635 75.2615 62.3233 75.2615C67.883 75.2615 72.8794 73.0173 76.4905 69.3878C80.1292 65.749 82.3642 60.7434 82.3642 55.1929C82.3642 49.6424 80.1292 44.6368 76.4905 41.0257Z" fill="#7E9A8E"></path>
    <path d="M48.3868 55.3683C48.2114 55.0174 48.3314 54.5833 48.6731 54.3801C49.0241 54.177 49.4581 54.2878 49.6613 54.6387L55.2211 64.2621L75.0588 44.4243C75.3451 44.138 75.8161 44.138 76.1024 44.4243C76.3887 44.7106 76.3887 45.1816 76.1024 45.4402L55.5628 65.9799L55.415 66.0999C55.064 66.3031 54.63 66.183 54.4268 65.8413L48.3776 55.3683H48.3868Z" fill="#7E9A8E"></path>
  </symbol>
  <symbol fill="none" xmlns="http://www.w3.org/2000/svg" viewBox="0 0 88 88" id="sending">
    <path d="M5.3959 16.8573H43.9446C44.3289 16.8573 44.6569 17.1853 44.6569 17.5977C44.6569 17.6821 44.6288 17.8039 44.5726 17.8883C44.0383 19.1254 43.626 20.4001 43.3354 21.731C43.073 23.0244 42.923 24.3552 42.923 25.7424C42.923 33.4746 52.108 47.9362 58.5094 58.0678C60.0183 60.4296 61.3398 62.5197 62.4083 64.2911C63.4674 62.5197 64.7982 60.4203 66.3072 58.0678C69.3439 53.2879 72.9804 47.5332 75.9889 41.9753C76.167 41.6192 76.6075 41.5067 76.9355 41.6848C77.1698 41.8066 77.3198 42.0691 77.3198 42.3034V83.1296C77.3198 83.542 76.9917 83.8419 76.6075 83.8419H5.3959C5.01163 83.8419 4.68359 83.5514 4.68359 83.1296V17.5977C4.68359 17.1853 5.01163 16.8573 5.3959 16.8573ZM42.8855 18.3007H6.1082V82.4173H75.8952V45.0495C73.1772 49.895 70.1124 54.7031 67.5162 58.8363C65.7167 61.6387 64.1515 64.1505 63.055 66.0343C62.9987 66.1562 62.8769 66.2405 62.7644 66.3343C62.4364 66.5123 61.9959 66.3905 61.7897 66.0718C60.6931 64.1786 59.0998 61.6762 57.3003 58.8363C50.8052 48.5642 41.5078 33.8589 41.5078 25.7424C41.5078 24.2709 41.6578 22.8182 41.9483 21.431C42.1826 20.3345 42.5106 19.3035 42.8949 18.3007H42.8855Z" fill="#7E9A8E"></path>
    <path d="M5.21777 42.8096L43.2416 32.5936L43.6259 33.9526L5.57392 44.1685L5.21777 42.8096Z" fill="#7E9A8E"></path>
    <path d="M76.158 83.6922L38.4902 53.8411L39.3712 52.7539L77.0389 82.5675L76.158 83.6922Z" fill="#7E9A8E"></path>
    <path d="M48.5281 43.2501C48.7906 42.9877 49.2686 42.9877 49.531 43.2782C49.7934 43.5687 49.7653 44.0186 49.5029 44.2811L7.88 83.6639L6.90527 82.6329L48.5281 43.2501Z" fill="#7E9A8E"></path>
    <path d="M36.0065 29.2574L19.0986 18.1885L19.8672 16.9795L44.5072 33.1281L43.7481 34.3091L36.0065 29.2574Z" fill="#7E9A8E"></path>
    <path d="M62.3985 4.84204C68.1813 4.84204 73.4111 7.20391 77.1882 10.981C80.9653 14.7581 83.299 19.9879 83.299 25.7425C83.299 33.859 74.0016 48.5644 67.5065 58.8365C65.707 61.667 64.1137 64.1788 63.0171 66.072C62.8109 66.4001 62.3704 66.5125 62.0424 66.3344C61.9205 66.2501 61.8362 66.1564 61.7799 66.072C60.6834 64.1788 59.0901 61.6764 57.2906 58.8365V58.7803C50.7674 48.5081 41.498 33.8684 41.498 25.7519C41.498 19.9972 43.8318 14.7674 47.6089 10.9903C51.3859 7.21326 56.6439 4.85142 62.3985 4.85142V4.84204ZM76.1853 11.9838C72.6426 8.46916 67.7689 6.2854 62.3985 6.2854C57.0281 6.2854 52.1545 8.46916 48.6398 11.9838C45.0971 15.4985 42.9133 20.3721 42.9133 25.7425C42.9133 33.4467 52.0608 47.9083 58.4715 58.0399L58.4996 58.068C60.0086 60.4298 61.3301 62.5199 62.3985 64.2912C63.4576 62.5199 64.7885 60.4204 66.2975 58.068C72.6988 47.9458 81.8838 33.4748 81.8838 25.7425C81.8838 20.3721 79.7 15.4985 76.1853 11.9838Z" fill="#7E9A8E"></path>
    <path d="M62.3991 12.6118C65.8856 12.6118 69.016 14.0271 71.2841 16.3045C73.5616 18.582 74.9768 21.7405 74.9768 25.1896C74.9768 28.6386 73.5616 31.8065 71.2841 34.0746C69.0066 36.3521 65.8856 37.7674 62.3991 37.7674C58.9125 37.7674 55.7821 36.3521 53.514 34.0746C51.2365 31.8065 49.8213 28.6761 49.8213 25.1896C49.8213 21.703 51.2365 18.5727 53.514 16.3045C55.7821 14.0364 58.9125 12.6118 62.3991 12.6118ZM70.2813 17.3074C68.2756 15.3017 65.4732 14.0552 62.3991 14.0552C59.3249 14.0552 56.5226 15.2923 54.5169 17.3074C52.5112 19.3412 51.2365 22.1154 51.2365 25.1896C51.2365 28.2637 52.5018 31.0661 54.5169 33.0718C56.5226 35.1056 59.3249 36.3521 62.3991 36.3521C65.4732 36.3521 68.2756 35.115 70.2813 33.0718C72.287 31.0661 73.5616 28.2918 73.5616 25.1896C73.5616 22.0873 72.2963 19.3412 70.2813 17.3074Z" fill="#7E9A8E"></path>
    <path d="M62.3988 17.298C62.0146 17.298 61.6865 16.9981 61.6865 16.5857C61.6865 16.2014 62.0146 15.8734 62.3988 15.8734C64.9669 15.8734 67.3006 16.9044 68.9783 18.5914C70.6559 20.3066 71.6963 22.6028 71.6963 25.1708C71.6963 25.5832 71.3682 25.8831 70.984 25.8831C70.5997 25.8831 70.2717 25.5926 70.2717 25.1708C70.2717 23.0152 69.3813 21.0376 67.966 19.6224C66.5508 18.179 64.5732 17.2886 62.3895 17.2886L62.3988 17.298Z" fill="#7E9A8E"></path>
  </symbol>
  <symbol fill="none" xmlns="http://www.w3.org/2000/svg" viewBox="0 0 25 25" id="telegram">
    <path d="M17.1511 7.97809C17.1202 7.97809 14.5448 9.63076 9.4247 12.9361L10.5064 16.5334L10.7382 14.2498C15.1474 10.2251 17.3546 8.19966 17.3597 8.1736C17.3638 8.1556 17.3664 8.1373 17.3675 8.11887C17.3675 8.025 17.2954 7.97808 17.1511 7.97809V7.97809Z" fill="#008DDD"></path>
    <path d="M15.4796 0.224426H9.3204C4.32674 0.224426 0.271164 4.2369 0.271164 9.17755V15.2713C0.271164 20.2119 4.32674 24.2244 9.3204 24.2244H15.4796C20.4732 24.2244 24.5288 20.212 24.5288 15.2713V9.17755C24.5288 4.23693 20.4732 0.224426 15.4796 0.224426V0.224426ZM20.1181 6.27331L17.6765 18.1286C17.5838 18.5353 17.3366 18.7386 16.9348 18.7386C16.7769 18.7374 16.6242 18.6822 16.5021 18.5822L12.9016 15.939L10.9082 17.8315C10.8143 17.9274 10.687 17.9834 10.5528 17.9879C10.2746 17.9879 10.0892 17.8627 9.9965 17.6125L8.57481 13.2801L5.05157 12.1696C4.83524 12.0967 4.71162 11.9403 4.68069 11.7004C4.68069 11.4502 4.79917 11.2782 5.03612 11.1843C14.689 7.5349 19.5464 5.71019 19.6082 5.7102C19.7394 5.7178 19.8632 5.77349 19.9559 5.86662C20.0136 5.91637 20.0585 5.97931 20.0867 6.0501C20.115 6.1209 20.1257 6.19746 20.1181 6.27329L20.1181 6.27331Z" fill="#008DDD"></path>
  </symbol>
  <symbol fill="none" xmlns="http://www.w3.org/2000/svg" viewBox="0 0 88 87" id="transaction">
    <path d="M83.1436 61.03H5.33359C4.97359 61.03 4.68359 60.74 4.68359 60.38V15.65C4.68359 15.29 4.97359 15 5.33359 15H83.1436C83.5036 15 83.7936 15.29 83.7936 15.65V60.38C83.7936 60.74 83.5036 61.03 83.1436 61.03ZM5.98358 59.73H82.4936V16.3H5.98358V59.73Z" fill="#7E9A8E"></path>
    <path d="M80.1938 53.88H8.28378C7.92378 53.88 7.63379 53.59 7.63379 53.23V18.69C7.63379 18.33 7.92378 18.04 8.28378 18.04H80.1938C80.5538 18.04 80.8438 18.33 80.8438 18.69V53.23C80.8438 53.59 80.5538 53.88 80.1938 53.88ZM8.93378 52.58H79.5438V19.34H8.93378V52.58Z" fill="#7E9A8E"></path>
    <path d="M51.0237 66.64H37.4537C37.0937 66.64 36.8037 66.35 36.8037 65.99V60.38C36.8037 60.02 37.0937 59.73 37.4537 59.73H51.0237C51.3837 59.73 51.6737 60.02 51.6737 60.38V65.99C51.6737 66.35 51.3837 66.64 51.0237 66.64ZM38.1037 65.34H50.3737V61.03H38.1037V65.34Z" fill="#7E9A8E"></path>
    <path d="M72.6239 72.3C72.5739 72.3 72.5139 72.3 72.4639 72.28L50.944 66.7H37.5339L16.0139 72.28C15.6639 72.37 15.314 72.16 15.224 71.81C15.134 71.46 15.344 71.11 15.694 71.02L37.2939 65.41C37.3439 65.4 37.4039 65.39 37.4539 65.39H51.0239C51.0739 65.39 51.1339 65.39 51.1839 65.41L72.7839 71.02C73.1339 71.11 73.3439 71.46 73.2539 71.81C73.1739 72.1 72.9139 72.3 72.6239 72.3Z" fill="#7E9A8E"></path>
    <path d="M74.4638 58.64C73.4538 58.64 72.6338 57.82 72.6338 56.81C72.6338 55.8 73.4538 54.98 74.4638 54.98C75.4738 54.98 76.2938 55.8 76.2938 56.81C76.2938 57.82 75.4738 58.64 74.4638 58.64ZM74.4638 56.28C74.1738 56.28 73.9338 56.52 73.9338 56.81C73.9338 57.1 74.1738 57.34 74.4638 57.34C74.7538 57.34 74.9938 57.1 74.9938 56.81C74.9938 56.52 74.7538 56.28 74.4638 56.28Z" fill="#7E9A8E"></path>
    <path d="M39.1734 57.46H36.1734C35.8134 57.46 35.5234 57.17 35.5234 56.81C35.5234 56.45 35.8134 56.16 36.1734 56.16H39.1734C39.5334 56.16 39.8235 56.45 39.8235 56.81C39.8235 57.17 39.5334 57.46 39.1734 57.46Z" fill="#7E9A8E"></path>
    <path d="M45.7437 57.46H42.7437C42.3837 57.46 42.0938 57.17 42.0938 56.81C42.0938 56.45 42.3837 56.16 42.7437 56.16H45.7437C46.1037 56.16 46.3937 56.45 46.3937 56.81C46.3937 57.17 46.1037 57.46 45.7437 57.46Z" fill="#7E9A8E"></path>
    <path d="M52.3033 57.46H49.3033C48.9433 57.46 48.6533 57.17 48.6533 56.81C48.6533 56.45 48.9433 56.16 49.3033 56.16H52.3033C52.6633 56.16 52.9533 56.45 52.9533 56.81C52.9533 57.17 52.6633 57.46 52.3033 57.46Z" fill="#7E9A8E"></path>
    <path d="M64.3032 50.0099H24.1732C21.5932 50.0099 19.4932 47.9099 19.4932 45.3299V26.5899C19.4932 24.0099 21.5932 21.9099 24.1732 21.9099H64.3032C66.8832 21.9099 68.9832 24.0099 68.9832 26.5899V45.3299C68.9832 47.9099 66.8832 50.0099 64.3032 50.0099ZM24.1732 23.2099C22.3032 23.2099 20.7932 24.7299 20.7932 26.5899V45.3299C20.7932 47.1999 22.3132 48.7099 24.1732 48.7099H64.3032C66.1732 48.7099 67.6832 47.1899 67.6832 45.3299V26.5899C67.6832 24.7199 66.1632 23.2099 64.3032 23.2099H24.1732Z" fill="#7E9A8E"></path>
    <path d="M68.3332 33.5099H20.1432C19.7832 33.5099 19.4932 33.2199 19.4932 32.8599V26.5799C19.4932 26.2199 19.7832 25.9299 20.1432 25.9299H68.3332C68.6932 25.9299 68.9832 26.2199 68.9832 26.5799V32.8599C68.9832 33.2199 68.6932 33.5099 68.3332 33.5099ZM20.7932 32.2099H67.6832V27.2299H20.7932V32.2099Z" fill="#7E9A8E"></path>
    <path d="M55.8434 39.6401H32.6334C32.2734 39.6401 31.9834 39.3501 31.9834 38.9901C31.9834 38.6301 32.2734 38.3401 32.6334 38.3401H55.8434C56.2034 38.3401 56.4934 38.6301 56.4934 38.9901C56.4934 39.3501 56.2034 39.6401 55.8434 39.6401Z" fill="#7E9A8E"></path>
    <path d="M64.0334 45.52H51.1734C50.8134 45.52 50.5234 45.23 50.5234 44.87C50.5234 44.51 50.8134 44.22 51.1734 44.22H64.0334C64.3934 44.22 64.6834 44.51 64.6834 44.87C64.6834 45.23 64.3934 45.52 64.0334 45.52Z" fill="#7E9A8E"></path>
  </symbol>
  <symbol fill="none" xmlns="http://www.w3.org/2000/svg" viewBox="0 0 23 25" id="viber">
    <path d="M13.7305 0.333313H8.92988C4.29746 0.333313 0.528809 4.10196 0.528809 8.73438V12.3348C0.528809 15.5871 2.40446 18.5385 5.32941 19.9268V23.9363C5.32941 24.2844 5.76493 24.4665 6.01233 24.2192L9.49556 20.7359H13.7304C18.3628 20.7359 22.1315 16.9673 22.1315 12.3348V8.73438C22.1315 4.10196 18.3628 0.333313 13.7305 0.333313Z" fill="#4CAF50"></path>
    <path d="M17.3699 15.2444L17.0103 13.296C16.9805 13.135 16.8558 13.0084 16.6953 12.9763L13.8665 12.4105C13.7352 12.3844 13.5998 12.4254 13.5051 12.5199L12.3559 13.6692C10.4196 12.8016 9.34495 11.7246 8.39938 9.7052L9.54491 8.55971C9.63946 8.46512 9.68052 8.32947 9.65432 8.19831L9.08859 5.3695C9.05648 5.20905 8.92987 5.08427 8.7689 5.05455L6.8205 4.69492C6.76715 4.68513 6.71221 4.68616 6.65925 4.69821C6.14479 4.81506 5.67539 5.07428 5.30175 5.44802C4.65478 6.09498 4.40752 7.03905 4.58676 8.17815C4.88765 10.0909 5.82478 12.7529 7.55376 14.4888L7.57739 14.5122C9.31195 16.24 11.9739 17.1772 13.8868 17.4781C14.1278 17.5161 14.3599 17.5349 14.5824 17.5349C15.4119 17.5349 16.1068 17.2732 16.617 16.7631C16.9907 16.3894 17.25 15.92 17.3668 15.4057C17.3787 15.3526 17.3798 15.2978 17.3699 15.2444Z" fill="white"></path>
    <path d="M9.15379 8.95086L9.54492 8.55969L9.54534 8.55927L9.15375 8.95081L9.15379 8.95086Z" fill="#E5E5E5"></path>
    <path d="M13.5052 12.5195L13.1102 12.9144L13.1103 12.9145L13.5053 12.5195L13.5052 12.5195Z" fill="#E5E5E5"></path>
    <path d="M12.1302 7.13416C11.9093 7.13416 11.7302 7.31326 11.7302 7.53419C11.7302 7.75511 11.9093 7.93422 12.1302 7.93422C13.0126 7.93422 13.7304 8.65206 13.7304 9.53443C13.7304 9.7524 13.9125 9.93446 14.1304 9.93446C14.3484 9.93446 14.5305 9.7524 14.5305 9.53443C14.5305 8.21087 13.4538 7.13416 12.1302 7.13416Z" fill="white"></path>
    <path d="M12.1303 5.53375C11.9823 5.53375 11.8329 5.54196 11.6863 5.55813C11.4667 5.58236 11.3083 5.78003 11.3325 5.99969C11.3568 6.21935 11.5549 6.37731 11.7741 6.35345C11.8917 6.34047 12.0115 6.33386 12.1303 6.33386C13.895 6.33386 15.3306 7.76955 15.3306 9.53425C15.3306 9.65308 15.324 9.77289 15.311 9.89045C15.2871 10.1071 15.4481 10.3082 15.6648 10.332C15.8815 10.3559 16.0824 10.1949 16.1064 9.97825C16.1225 9.83162 16.1307 9.68228 16.1307 9.53425C16.1307 7.32841 14.3361 5.53375 12.1303 5.53375Z" fill="white"></path>
    <path d="M12.1307 3.93372C11.9877 3.93372 11.8429 3.93915 11.7004 3.94998C11.4801 3.96667 11.315 4.15886 11.3317 4.37912C11.3483 4.59943 11.5412 4.76453 11.7608 4.74784C11.8833 4.73851 12.0078 4.73382 12.1307 4.73382C14.7778 4.73382 16.9313 6.88735 16.9313 9.53443C16.9313 9.90896 16.8881 10.2818 16.8028 10.6426C16.754 10.8493 16.8813 11.0641 17.0863 11.1203C17.3019 11.1794 17.5301 11.0441 17.5815 10.8266C17.681 10.4056 17.7314 9.97088 17.7314 9.53443C17.7314 6.44617 15.2189 3.93372 12.1307 3.93372Z" fill="white"></path>
  </symbol>
  <symbol fill="none" xmlns="http://www.w3.org/2000/svg" viewBox="0 0 19 19" id="weight">
    <circle cx="9.5" cy="9.5" r="9.5" fill="#7E9A8E"></circle>
    <path d="M11.0684 7.54592L10.7101 8.15H11.4124H12.9999C13.4022 8.15 13.7435 8.43468 13.8284 8.8127L13.8283 8.81273L13.8307 8.82236C14.459 11.3262 14.7788 12.6086 14.9416 13.2822C15.1028 13.9494 15.1005 13.9888 15.1 13.9987C15.1 13.9992 15.0999 13.9996 15.0999 14C15.0999 14.2254 15.0104 14.4416 14.851 14.601C14.6916 14.7604 14.4754 14.85 14.2499 14.85H4.24994C4.0245 14.85 3.8083 14.7604 3.6489 14.601C3.48949 14.4416 3.39994 14.2254 3.39994 14C3.39994 13.9996 3.39992 13.9992 3.39989 13.9987C3.39933 13.9888 3.39709 13.9494 3.55828 13.2822C3.72105 12.6086 4.04086 11.3262 4.66916 8.82236L4.66928 8.82239L4.67146 8.8127C4.7564 8.43468 5.09772 8.15 5.49994 8.15H7.08744H7.78804L7.43191 7.54667C7.24524 7.23044 7.1478 6.86953 7.14993 6.50233H7.14994V6.5C7.14994 5.94305 7.37119 5.4089 7.76501 5.01508C8.15884 4.62125 8.69298 4.4 9.24994 4.4C9.80689 4.4 10.341 4.62125 10.7349 5.01508C11.1287 5.4089 11.3499 5.94305 11.3499 6.5C11.3499 6.88542 11.25 7.23978 11.0684 7.54592Z" stroke="white" stroke-width="0.8"></path>
    <path d="M8.24609 12.0215L8.01953 12.2578V13H7.6582V10H8.01953V11.8145L8.21289 11.582L8.87109 10.8867H9.31055L8.48828 11.7695L9.40625 13H8.98242L8.24609 12.0215ZM9.55859 11.9258C9.55859 11.5964 9.63477 11.3346 9.78711 11.1406C9.93945 10.9453 10.1413 10.8477 10.3926 10.8477C10.6504 10.8477 10.8516 10.9388 10.9961 11.1211L11.0137 10.8867H11.3438V12.9492C11.3438 13.2227 11.2624 13.4382 11.0996 13.5957C10.9382 13.7533 10.7207 13.832 10.4473 13.832C10.2949 13.832 10.1458 13.7995 10 13.7344C9.85417 13.6693 9.74284 13.5801 9.66602 13.4668L9.85352 13.25C10.0085 13.4414 10.1979 13.5371 10.4219 13.5371C10.5977 13.5371 10.7344 13.4876 10.832 13.3887C10.931 13.2897 10.9805 13.1504 10.9805 12.9707V12.7891C10.8359 12.9557 10.6387 13.0391 10.3887 13.0391C10.1413 13.0391 9.94076 12.9395 9.78711 12.7402C9.63477 12.541 9.55859 12.2695 9.55859 11.9258ZM9.92188 11.9668C9.92188 12.2051 9.9707 12.3926 10.0684 12.5293C10.166 12.6647 10.3027 12.7324 10.4785 12.7324C10.7064 12.7324 10.8737 12.6289 10.9805 12.4219V11.457C10.8698 11.2552 10.7038 11.1543 10.4824 11.1543C10.3066 11.1543 10.1693 11.2227 10.0703 11.3594C9.97135 11.4961 9.92188 11.6986 9.92188 11.9668Z" fill="white"></path>
  </symbol>
  <symbol fill="none" xmlns="http://www.w3.org/2000/svg" viewBox="0 0 25 25" id="whatsapp">
    <path d="M12.2972 5.58276C8.7876 5.58276 5.89726 8.40052 5.89726 11.8844C5.89703 13.2161 6.33203 14.5114 7.13602 15.5731L6.36178 17.9298L8.83914 17.1613C9.88434 17.8372 11.1041 18.1934 12.3488 18.186C15.8584 18.186 18.7487 15.3682 18.7487 11.8844C18.697 8.40052 15.8068 5.58276 12.2972 5.58276V5.58276ZM16.0081 14.5113C15.7979 15.0676 14.957 15.453 14.3732 15.4482C11.9746 15.4285 8.53719 12.1557 8.57718 10.2026C8.57998 9.93513 8.63609 9.6709 8.74223 9.42536C8.84838 9.17983 9.00243 8.95793 9.19537 8.77265C9.5296 8.44895 10.3188 8.31874 10.5371 8.82445C11.0722 10.2406 11.21 10.269 11.1049 10.5152C11.0026 10.755 10.8431 10.966 10.6404 11.13C10.0948 11.5253 11.6288 12.8282 11.8558 12.9988C13.2742 14.0645 13.4784 13.6414 13.5643 13.5498C14.0709 13.0096 14.019 12.8166 14.2354 12.7717C14.4598 12.7253 15.9827 13.5533 15.9887 13.5571C16.2886 13.7464 16.1007 14.2356 16.0081 14.5113Z" fill="#665CAC"></path>
    <path d="M15.2219 0.114624H9.06276C4.06909 0.114624 0.0135193 4.1271 0.0135193 9.06776V15.1615C0.0135193 20.1021 4.06909 24.1146 9.06276 24.1146H15.2219C20.2156 24.1146 24.2712 20.1021 24.2712 15.1615V9.06776C24.2712 4.12713 20.2156 0.114624 15.2219 0.114624V0.114624ZM12.2972 19.3644C11.0192 19.3572 9.7619 19.0407 8.63271 18.4421L4.40055 19.7742L5.79404 15.778C5.09503 14.6175 4.72071 13.2904 4.71021 11.9356C4.71021 7.78575 8.11662 4.45565 12.2972 4.45565C16.4778 4.40437 19.8841 7.73452 19.8841 11.8844C19.8841 16.0342 16.4778 19.3644 12.2972 19.3644V19.3644Z" fill="#665CAC"></path>
  </symbol>
  <symbol fill="none" xmlns="http://www.w3.org/2000/svg" viewBox="0 0 19 19" id="width">
    <circle cx="9.5" cy="9.5" r="9.5" fill="#7E9A8E"></circle>
    <path d="M3 9.5H16M3 9.5L5 7.5M3 9.5L5 11.5M16 9.5L14.2667 7.5M16 9.5L14 11.5" stroke="white" stroke-linecap="round"></path>
  </symbol>
  <symbol fill="none" xmlns="http://www.w3.org/2000/svg" viewBox="0 0 18 18" id="arrow-down">
    <path d="M3.35225 5.97725C3.55195 5.77755 3.86445 5.7594 4.08466 5.92279L4.14775 5.97725L9 10.8293L13.8523 5.97725C14.052 5.77755 14.3645 5.7594 14.5847 5.92279L14.6477 5.97725C14.8474 6.17695 14.8656 6.48945 14.7022 6.70966L14.6477 6.77275L9.39775 12.0227C9.19805 12.2224 8.88555 12.2406 8.66534 12.0772L8.60225 12.0227L3.35225 6.77275C3.13258 6.55308 3.13258 6.19692 3.35225 5.97725Z" fill="#757575"></path>
  </symbol>
  <symbol fill="none" xmlns="http://www.w3.org/2000/svg" viewBox="0 0 87 87" id="cash">
    <path d="M82.46 65.59H4.64999C4.28999 65.59 4 65.3 4 64.94V22.65C4 22.29 4.28999 22 4.64999 22H82.46C82.82 22 83.11 22.29 83.11 22.65V64.94C83.11 65.3 82.82 65.59 82.46 65.59ZM5.29999 64.29H81.81V23.3H5.29999V64.29Z" fill="#7E9A8E"></path>
    <path d="M69.4102 62.2198H17.7102C17.3502 62.2198 17.0602 61.9299 17.0602 61.5699C17.0602 56.9199 13.2803 53.1399 8.64026 53.1399C8.28026 53.1399 7.99023 52.8499 7.99023 52.4899V35.1099C7.99023 34.7499 8.28026 34.4598 8.64026 34.4598C13.2903 34.4598 17.0602 30.6798 17.0602 26.0298C17.0602 25.6698 17.3502 25.3799 17.7102 25.3799H69.4102C69.7702 25.3799 70.0602 25.6698 70.0602 26.0298C70.0602 30.6798 73.8402 34.4598 78.4902 34.4598C78.8502 34.4598 79.1403 34.7499 79.1403 35.1099V52.4899C79.1403 52.8499 78.8502 53.1399 78.4902 53.1399C73.8402 53.1399 70.0602 56.9199 70.0602 61.5699C70.0602 61.9299 69.7702 62.2198 69.4102 62.2198ZM18.3402 60.9199H68.7803C69.1003 56.0699 72.9903 52.1799 77.8403 51.8599V35.7399C72.9903 35.4199 69.1003 31.5299 68.7803 26.6799H18.3402C18.0202 31.5299 14.1303 35.4199 9.29025 35.7399V51.8599C14.1403 52.1799 18.0202 56.0699 18.3402 60.9199Z" fill="#7E9A8E"></path>
    <path d="M43.7 51.4C39.45 51.4 36 47.95 36 43.7C36 39.45 39.45 36 43.7 36C47.95 36 51.41 39.46 51.41 43.7C51.41 47.94 47.95 51.4 43.7 51.4ZM43.7 37.3C40.17 37.3 37.3 40.17 37.3 43.7C37.3 47.23 40.17 50.1 43.7 50.1C47.23 50.1 50.11 47.23 50.11 43.7C50.11 40.17 47.24 37.3 43.7 37.3Z" fill="#7E9A8E"></path>
  </symbol>
  <symbol fill="none" xmlns="http://www.w3.org/2000/svg" viewBox="0 0 88 87" id="cashless">
    <path d="M54.4718 83.1099H22.4918C22.1318 83.1099 21.8418 82.8199 21.8418 82.4599V20.0499C21.8418 19.6899 22.1318 19.3999 22.4918 19.3999H30.5018C30.8618 19.3999 31.1518 19.6899 31.1518 20.0499V26.7899H46.0418V20.0499C46.0418 19.6899 46.3318 19.3999 46.6918 19.3999H54.4718C54.8318 19.3999 55.1218 19.6899 55.1218 20.0499V82.4599C55.1218 82.8199 54.8318 83.1099 54.4718 83.1099ZM23.1418 81.8099H53.8218V20.6999H47.3418V27.4399C47.3418 27.7999 47.0518 28.0899 46.6918 28.0899H30.5018C30.1418 28.0899 29.8518 27.7999 29.8518 27.4399V20.6999H23.1418V81.8099Z" fill="#7E9A8E"></path>
    <path d="M50.1314 48.9H26.8414C26.4814 48.9 26.1914 48.61 26.1914 48.25V36.45C26.1914 36.09 26.4814 35.8 26.8414 35.8H50.1314C50.4914 35.8 50.7814 36.09 50.7814 36.45V48.25C50.7814 48.61 50.4914 48.9 50.1314 48.9ZM27.4914 47.6001H49.4814V37.1001H27.4914V47.6001Z" fill="#7E9A8E"></path>
    <path d="M46.6916 28.09H30.5016C30.1416 28.09 29.8516 27.8 29.8516 27.44V4.64999C29.8516 4.28999 30.1416 4 30.5016 4H46.6916C47.0516 4 47.3416 4.28999 47.3416 4.64999V27.44C47.3416 27.8 47.0516 28.09 46.6916 28.09ZM31.1516 26.79H46.0416V5.3H31.1516V26.79Z" fill="#7E9A8E"></path>
    <path d="M50.3614 32.3001H26.8414C26.4814 32.3001 26.1914 32.0101 26.1914 31.6501V23.2501C26.1914 22.8901 26.4814 22.6001 26.8414 22.6001H30.5114C30.8714 22.6001 31.1614 22.8901 31.1614 23.2501V26.7901H46.0514V23.2501C46.0514 22.8901 46.3414 22.6001 46.7014 22.6001H50.3714C50.7314 22.6001 51.0214 22.8901 51.0214 23.2501V31.6501C51.0214 32.0101 50.7314 32.3001 50.3714 32.3001H50.3614ZM27.4914 31.0001H49.7114V23.9001H47.3414V27.4401C47.3414 27.8001 47.0514 28.0901 46.6914 28.0901H30.5014C30.1414 28.0901 29.8514 27.8001 29.8514 27.4401V23.9001H27.4814V31.0001H27.4914Z" fill="#7E9A8E"></path>
    <path d="M66.432 83.1099H54.482C54.122 83.1099 53.832 82.8199 53.832 82.4599V20.0499C53.832 19.6899 54.122 19.3999 54.482 19.3999H66.432C66.792 19.3999 67.082 19.6899 67.082 20.0499V82.4599C67.082 82.8199 66.792 83.1099 66.432 83.1099ZM55.132 81.8099H65.782V20.6999H55.132V81.8099Z" fill="#7E9A8E"></path>
    <path d="M60.4518 76.98C60.0918 76.98 59.8018 76.69 59.8018 76.33V26.19C59.8018 25.83 60.0918 25.54 60.4518 25.54C60.8118 25.54 61.1018 25.83 61.1018 26.19V76.33C61.1018 76.69 60.8118 76.98 60.4518 76.98Z" fill="#7E9A8E"></path>
    <path d="M31.2415 66.07H28.4615C28.1015 66.07 27.8115 65.78 27.8115 65.42C27.8115 65.06 28.1015 64.77 28.4615 64.77H31.2415C31.6015 64.77 31.8915 65.06 31.8915 65.42C31.8915 65.78 31.6015 66.07 31.2415 66.07Z" fill="#7E9A8E"></path>
    <path d="M39.8716 66.07H37.0816C36.7216 66.07 36.4316 65.78 36.4316 65.42C36.4316 65.06 36.7216 64.77 37.0816 64.77H39.8716C40.2316 64.77 40.5216 65.06 40.5216 65.42C40.5216 65.78 40.2316 66.07 39.8716 66.07Z" fill="#7E9A8E"></path>
    <path d="M48.5122 66.07H45.7223C45.3623 66.07 45.0723 65.78 45.0723 65.42C45.0723 65.06 45.3623 64.77 45.7223 64.77H48.5122C48.8722 64.77 49.1623 65.06 49.1623 65.42C49.1623 65.78 48.8722 66.07 48.5122 66.07Z" fill="#7E9A8E"></path>
    <path d="M31.2415 57.07H28.4615C28.1015 57.07 27.8115 56.78 27.8115 56.42C27.8115 56.06 28.1015 55.77 28.4615 55.77H31.2415C31.6015 55.77 31.8915 56.06 31.8915 56.42C31.8915 56.78 31.6015 57.07 31.2415 57.07Z" fill="#7E9A8E"></path>
    <path d="M39.8716 57.07H37.0816C36.7216 57.07 36.4316 56.78 36.4316 56.42C36.4316 56.06 36.7216 55.77 37.0816 55.77H39.8716C40.2316 55.77 40.5216 56.06 40.5216 56.42C40.5216 56.78 40.2316 57.07 39.8716 57.07Z" fill="#7E9A8E"></path>
    <path d="M48.5122 57.07H45.7223C45.3623 57.07 45.0723 56.78 45.0723 56.42C45.0723 56.06 45.3623 55.77 45.7223 55.77H48.5122C48.8722 55.77 49.1623 56.06 49.1623 56.42C49.1623 56.78 48.8722 57.07 48.5122 57.07Z" fill="#7E9A8E"></path>
    <path d="M31.2415 75.09H28.4615C28.1015 75.09 27.8115 74.8 27.8115 74.44C27.8115 74.08 28.1015 73.79 28.4615 73.79H31.2415C31.6015 73.79 31.8915 74.08 31.8915 74.44C31.8915 74.8 31.6015 75.09 31.2415 75.09Z" fill="#7E9A8E"></path>
    <path d="M39.8716 75.09H37.0816C36.7216 75.09 36.4316 74.8 36.4316 74.44C36.4316 74.08 36.7216 73.79 37.0816 73.79H39.8716C40.2316 73.79 40.5216 74.08 40.5216 74.44C40.5216 74.8 40.2316 75.09 39.8716 75.09Z" fill="#7E9A8E"></path>
    <path d="M48.5122 75.09H45.7223C45.3623 75.09 45.0723 74.8 45.0723 74.44C45.0723 74.08 45.3623 73.79 45.7223 73.79H48.5122C48.8722 73.79 49.1623 74.08 49.1623 74.44C49.1623 74.8 48.8722 75.09 48.5122 75.09Z" fill="#7E9A8E"></path>
    <path d="M42.5317 10.29H34.6617C34.3017 10.29 34.0117 9.99998 34.0117 9.63998C34.0117 9.27998 34.3017 8.98999 34.6617 8.98999H42.5317C42.8917 8.98999 43.1817 9.27998 43.1817 9.63998C43.1817 9.99998 42.8917 10.29 42.5317 10.29Z" fill="#7E9A8E"></path>
    <path d="M42.5317 16.6999H34.6617C34.3017 16.6999 34.0117 16.4099 34.0117 16.0499C34.0117 15.6899 34.3017 15.3999 34.6617 15.3999H42.5317C42.8917 15.3999 43.1817 15.6899 43.1817 16.0499C43.1817 16.4099 42.8917 16.6999 42.5317 16.6999Z" fill="#7E9A8E"></path>
    <path d="M42.5317 23.1101H34.6617C34.3017 23.1101 34.0117 22.8201 34.0117 22.4601C34.0117 22.1001 34.3017 21.8101 34.6617 21.8101H42.5317C42.8917 21.8101 43.1817 22.1001 43.1817 22.4601C43.1817 22.8201 42.8917 23.1101 42.5317 23.1101Z" fill="#7E9A8E"></path>
  </symbol>
  <symbol fill="none" xmlns="http://www.w3.org/2000/svg" viewBox="0 0 18 18" id="clock">
    <g clip-path="url(#clip0_31_107)">
      <path d="M8.99998 0C4.03749 0 0 4.03749 0 8.99998C0 13.9625 4.03749 18 8.99998 18C13.9625 18 18 13.9625 18 8.99998C18 4.03749 13.9625 0 8.99998 0ZM8.99998 17.2174C4.46868 17.2174 0.782596 13.5313 0.782596 8.99998C0.782596 4.46868 4.46868 0.782596 8.99998 0.782596C13.5313 0.782596 17.2174 4.46868 17.2174 8.99998C17.2174 13.5313 13.5313 17.2174 8.99998 17.2174Z" fill="#757575"></path>
      <path d="M12.7988 12.2456L9.39131 8.83806V2.73922C9.39131 2.52322 9.21599 2.3479 8.99999 2.3479C8.78399 2.3479 8.60867 2.52322 8.60867 2.73922V9.00009C8.60867 9.10417 8.65016 9.20358 8.72295 9.27713L12.2447 12.7989C12.3214 12.8748 12.4215 12.9131 12.5217 12.9131C12.6219 12.9131 12.7221 12.8748 12.7988 12.7989C12.9514 12.6462 12.9514 12.3982 12.7988 12.2456Z" fill="#757575"></path>
    </g>
    <defs>
      <clipPath id="clip0_31_107">
        <rect width="18" height="18" fill="white"></rect>
      </clipPath>
    </defs>
  </symbol>
</svg>