<?xml version="1.0" standalone="no"?>
<!DOCTYPE svg PUBLIC "-//W3C//DTD SVG 20010904//EN"
 "http://www.w3.org/TR/2001/REC-SVG-20010904/DTD/svg10.dtd">
<svg version="1.0" xmlns="http://www.w3.org/2000/svg"
 width="960.000000pt" height="960.000000pt" viewBox="0 0 960.000000 960.000000"
 preserveAspectRatio="xMidYMid meet">
<metadata>
Created by potrace 1.14, written by Peter Selinger 2001-2017
</metadata>
<g transform="translate(0.000000,960.000000) scale(0.100000,-0.100000)"
fill="#000000" stroke="none">
<path d="M4514 9210 c-481 -40 -965 -181 -1384 -402 -1076 -567 -1788 -1638
-1891 -2846 -15 -177 -7 -583 15 -742 55 -402 162 -755 341 -1125 126 -261
333 -546 804 -1109 507 -606 1556 -1762 2263 -2493 l108 -112 168 172 c1250
1286 2318 2471 2776 3081 131 174 214 301 274 422 184 367 306 763 358 1164
21 169 30 561 15 731 -92 1049 -612 1972 -1462 2591 -480 350 -1035 567 -1669
653 -136 19 -568 28 -716 15z m516 -730 c356 -32 695 -122 1000 -266 820 -389
1414 -1150 1584 -2031 40 -208 50 -315 50 -548 0 -232 -10 -341 -50 -545 -149
-773 -629 -1462 -1310 -1882 -646 -398 -1431 -522 -2179 -343 -331 79 -626
208 -915 400 -164 108 -268 193 -419 340 -469 456 -759 1046 -842 1710 -16
129 -16 511 0 640 149 1198 984 2149 2146 2445 137 35 374 74 500 83 115 8
328 6 435 -3z"/>
<path d="M3680 5277 c-3 -3 -41 -7 -85 -8 -90 -2 -368 -47 -490 -79 -113 -29
-253 -76 -370 -122 -124 -49 -375 -176 -375 -189 0 -25 78 -216 138 -338 189
-386 491 -732 857 -980 311 -211 638 -342 1031 -412 169 -30 567 -38 739 -14
413 56 767 187 1097 404 552 363 938 910 1087 1544 16 67 32 138 34 157 l6 35
-16 -35 c-24 -56 -98 -153 -145 -192 -173 -141 -436 -208 -823 -208 -338 0
-697 50 -1130 156 -191 47 -244 61 -475 129 -257 76 -348 98 -534 126 -124 18
-535 38 -546 26z"/>
</g>
</svg>
