<svg width="87" height="87" viewBox="0 0 87 87" fill="none" xmlns="http://www.w3.org/2000/svg">
<path d="M61.31 42.3201V31.6201H61.48L75.52 36.6602V36.9601L61.31 42.3201Z" stroke="#7E9A8E" stroke-width="1.3" stroke-linecap="round" stroke-linejoin="round"/>
<path d="M26.55 31.1299H26.61V42.3299L12.56 36.9599L12.4 36.6299L26.55 31.1299Z" stroke="#7E9A8E" stroke-width="1.3" stroke-linecap="round" stroke-linejoin="round"/>
<path d="M44.04 48.9999L26.61 42.3299V31.1299V12.6099L43.96 18.0899L61.31 12.6099V31.6199V42.3199L44.04 48.8299L44.11 48.9599L44.04 48.9999Z" stroke="#7E9A8E" stroke-width="1.3" stroke-linecap="round" stroke-linejoin="round"/>
<path d="M44.11 55.4001L44.4 80.7601L75.52 68.4401V55.6401L53 64.6901L47.75 55.3901" stroke="#7E9A8E" stroke-width="1.3" stroke-linecap="round" stroke-linejoin="round"/>
<path d="M75.52 55.6401L53 64.6901L47.75 55.3901" stroke="#7E9A8E" stroke-width="1.3" stroke-linecap="round" stroke-linejoin="round"/>
<path d="M26.61 12.61L26.39 12.54L43.96 7L61.52 12.54L61.31 12.61L43.96 18.09L26.61 12.61Z" stroke="#7E9A8E" stroke-width="1.3" stroke-linecap="round" stroke-linejoin="round"/>
<path d="M47.75 55.39L44.11 48.96L44.04 48.83L61.31 42.3199L75.52 36.96L82.81 52.7L75.52 55.64" stroke="#7E9A8E" stroke-width="1.3" stroke-linecap="round" stroke-linejoin="round"/>
<path d="M44.11 55.3999L44.4 80.7599L12.56 68.4399V55.7599L34.63 64.6899L40.2 55.4099" stroke="#7E9A8E" stroke-width="1.3" stroke-linecap="round" stroke-linejoin="round"/>
<path d="M40.2 55.4102L34.63 64.6901L12.56 55.7601" stroke="#7E9A8E" stroke-width="1.3" stroke-linecap="round" stroke-linejoin="round"/>
<path d="M40.2 55.41L44.04 48.9999L26.61 42.33L12.56 36.96L5 52.7L12.56 55.7599" stroke="#7E9A8E" stroke-width="1.3" stroke-linecap="round" stroke-linejoin="round"/>
<path d="M12.56 55.7601V68.4401L44.4 80.7601L75.52 68.4401V55.6401" stroke="#7E9A8E" stroke-width="1.3" stroke-linecap="round" stroke-linejoin="round"/>
<path d="M12.56 36.96L26.61 42.33L44.04 48.9999L40.2 55.41L34.63 64.6899L12.56 55.7599L5 52.7L12.56 36.96Z" stroke="#7E9A8E" stroke-width="1.3" stroke-linecap="round" stroke-linejoin="round"/>
<path d="M75.52 36.96L61.31 42.3199L44.04 48.83L44.11 48.96L47.75 55.39L53 64.6899L75.52 55.64L82.81 52.7L75.52 36.96Z" stroke="#7E9A8E" stroke-width="1.3" stroke-linecap="round" stroke-linejoin="round"/>
<path d="M12.4 36.6299L26.55 31.1299" stroke="#7E9A8E" stroke-width="1.3" stroke-linecap="round" stroke-linejoin="round"/>
<path d="M61.48 31.6201L75.52 36.6602" stroke="#7E9A8E" stroke-width="1.3" stroke-linecap="round" stroke-linejoin="round"/>
<path d="M44.04 49.4399L44.11 55.4L44.4 80.7599" stroke="#7E9A8E" stroke-width="1.3" stroke-linecap="round" stroke-linejoin="round"/>
<path d="M61.31 12.6099V31.6199V42.3199V42.3299" stroke="#7E9A8E" stroke-width="1.3" stroke-linecap="round" stroke-linejoin="round"/>
<path d="M26.61 42.3299V31.1299V12.6099" stroke="#7E9A8E" stroke-width="1.3" stroke-linecap="round" stroke-linejoin="round"/>
<path d="M26.61 12.61L26.39 12.54L43.96 7L61.52 12.54L61.31 12.61L43.96 18.09L26.61 12.61Z" stroke="#7E9A8E" stroke-width="1.3" stroke-linecap="round" stroke-linejoin="round"/>
<path d="M33.02 24.22V37.7599" stroke="#7E9A8E" stroke-width="1.3" stroke-linecap="round" stroke-linejoin="round"/>
<path d="M54.78 19.0801V32.6301" stroke="#7E9A8E" stroke-width="1.3" stroke-linecap="round" stroke-linejoin="round"/>
</svg>
