<svg width="87" height="87" viewBox="0 0 87 87" fill="none" xmlns="http://www.w3.org/2000/svg">
<path d="M45.03 83.1699C44.82 83.1699 44.63 83.0699 44.51 82.8999L7.82001 32.6599C7.75001 32.5699 7.71 32.4699 7.69 32.3599C7.69 32.3599 7.69 32.3199 7.69 32.2999C7.69 32.1499 7.73001 32.0099 7.82001 31.8799C7.82001 31.8699 7.84001 31.8599 7.85001 31.8499L19.91 17.4299C20.03 17.2799 20.22 17.2 20.41 17.2H69.7C69.89 17.2 70.07 17.2899 70.2 17.4299L82.26 31.8599C82.47 32.1099 82.46 32.4699 82.24 32.7099L45.57 82.9099C45.45 83.0799 45.25 83.1799 45.05 83.1799L45.03 83.1699ZM9.61 32.9199L45.03 81.4199L80.44 32.95L9.61 32.9199ZM9.72 31.6199L80.38 31.6499L69.38 18.4899H20.69L9.72 31.6199Z" fill="#7E9A8E"/>
<path d="M45.03 83.17C44.74 83.17 44.49 82.98 44.41 82.7L29.91 32.56C29.85 32.36 29.89 32.15 30.01 31.99C30.13 31.83 30.33 31.73 30.53 31.73L59.52 31.75C59.73 31.75 59.92 31.85 60.04 32.01C60.16 32.17 60.2 32.39 60.14 32.58L45.65 82.7C45.57 82.98 45.32 83.17 45.03 83.17ZM31.4 33.03L45.03 80.18L58.66 33.05L31.4 33.03Z" fill="#7E9A8E"/>
<path d="M30.51 32.9299C30.39 32.9299 30.27 32.8999 30.17 32.8299C29.87 32.6399 29.77 32.2399 29.96 31.9299L38.95 17.4899C39.14 17.1899 39.54 17.0899 39.85 17.2799C40.15 17.4699 40.25 17.8699 40.06 18.1799L31.07 32.6199C30.95 32.8199 30.73 32.9299 30.52 32.9299H30.51Z" fill="#7E9A8E"/>
<path d="M59.56 32.9301C59.34 32.9301 59.13 32.8201 59.01 32.6201L50.02 18.1801C49.83 17.8801 49.92 17.4701 50.23 17.2801C50.54 17.0901 50.94 17.1801 51.13 17.4901L60.12 31.9301C60.31 32.2301 60.22 32.6401 59.91 32.8301C59.8 32.9001 59.68 32.9301 59.57 32.9301H59.56Z" fill="#7E9A8E"/>
<path d="M11.54 18.4401C11.25 18.4401 11 18.2501 10.92 17.9801L9.64 13.8101L5.46001 12.5301C5.19001 12.4501 5 12.1901 5 11.9101C5 11.6301 5.19001 11.3701 5.46001 11.2901L9.63 10.0101L10.91 5.83011C10.99 5.56011 11.25 5.37012 11.53 5.37012C11.82 5.37012 12.07 5.56011 12.15 5.83011L13.44 10.0101L17.62 11.2901C17.89 11.3701 18.08 11.6301 18.08 11.9101C18.08 12.1901 17.89 12.4501 17.62 12.5301L13.44 13.8101L12.15 17.9801C12.07 18.2501 11.81 18.4401 11.53 18.4401H11.54ZM7.87001 11.9101L10.35 12.6701C10.56 12.7301 10.72 12.8901 10.78 13.1001L11.54 15.5801L12.31 13.1001C12.37 12.8901 12.53 12.7301 12.74 12.6701L15.22 11.9101L12.74 11.1501C12.53 11.0901 12.37 10.9301 12.31 10.7201L11.54 8.23013L10.78 10.7201C10.72 10.9301 10.56 11.0901 10.35 11.1501L7.87001 11.9101Z" fill="#7E9A8E"/>
<path d="M22.23 13.34C21.94 13.34 21.69 13.15 21.61 12.88L20.77 10.13L18.02 9.29001C17.75 9.21001 17.56 8.95998 17.56 8.66998C17.56 8.37998 17.75 8.12999 18.02 8.04999L20.77 7.20001L21.61 4.45999C21.69 4.18999 21.95 4 22.23 4C22.52 4 22.77 4.18999 22.85 4.45999L23.7 7.20001L26.44 8.04999C26.71 8.12999 26.9 8.38998 26.9 8.66998C26.9 8.95998 26.71 9.21001 26.44 9.29001L23.7 10.13L22.85 12.88C22.77 13.15 22.51 13.34 22.23 13.34ZM20.42 8.66998L21.48 8.98999C21.69 9.04999 21.85 9.20998 21.91 9.41998L22.23 10.47L22.55 9.41998C22.61 9.20998 22.77 9.04999 22.98 8.98999L24.03 8.66998L22.97 8.34C22.76 8.28 22.6 8.12 22.54 7.91L22.22 6.85999L21.9 7.91C21.84 8.12 21.68 8.28 21.47 8.34L20.41 8.66998H20.42Z" fill="#7E9A8E"/>
</svg>
