<svg width="87" height="87" viewBox="0 0 87 87" fill="none" xmlns="http://www.w3.org/2000/svg">
<path d="M51.05 75.74C51.05 75.74 51.04 75.74 51.03 75.74H10.65C10.29 75.74 10 75.45 10 75.09V4.64999C10 4.28999 10.29 4 10.65 4H48.6201C48.7901 4 48.96 4.07 49.08 4.19L68.13 23.24C68.25 23.36 68.32 23.53 68.32 23.7V57.64C68.32 57.86 68.21 58.06 68.03 58.18C67.85 58.3 67.62 58.32 67.42 58.24C65.93 57.61 64.34 57.29 62.7 57.29C55.94 57.29 50.44 62.79 50.44 69.55C50.44 71.35 50.82 73.07 51.57 74.69C51.66 74.8 51.71 74.94 51.71 75.1C51.71 75.46 51.42 75.75 51.06 75.75L51.05 75.74ZM11.3 74.44H50.04C49.43 72.88 49.13 71.24 49.13 69.54C49.13 62.06 55.21 55.98 62.69 55.98C64.18 55.98 65.63 56.22 67.02 56.69V23.97L48.36 5.3H11.31V74.44H11.3Z" fill="#9AB7BB"/>
<path d="M68.17 24.8301C68.17 24.8301 68.16 24.8301 68.15 24.8301H49.1C48.74 24.8301 48.45 24.5401 48.45 24.1801V5.1301C48.45 4.8701 48.61 4.63011 48.85 4.53011C49.09 4.43011 49.37 4.49011 49.56 4.67011L68.52 23.6301C68.7 23.7501 68.82 23.9501 68.82 24.1801C68.82 24.5401 68.53 24.8301 68.17 24.8301ZM49.75 23.5301H66.58L49.75 6.70011V23.5301Z" fill="#9AB7BB"/>
<path d="M39.33 13.6701H19.45C19.09 13.6701 18.8 13.3801 18.8 13.0201C18.8 12.6601 19.09 12.3701 19.45 12.3701H39.33C39.69 12.3701 39.98 12.6601 39.98 13.0201C39.98 13.3801 39.69 13.6701 39.33 13.6701Z" fill="#9AB7BB"/>
<path d="M44.96 22.08H19.44C19.08 22.08 18.79 21.79 18.79 21.43C18.79 21.07 19.08 20.78 19.44 20.78H44.96C45.32 20.78 45.61 21.07 45.61 21.43C45.61 21.79 45.32 22.08 44.96 22.08Z" fill="#9AB7BB"/>
<path d="M56.7 48.3901H19.44C19.08 48.3901 18.79 48.1001 18.79 47.7401C18.79 47.3801 19.08 47.0901 19.44 47.0901H56.7C57.06 47.0901 57.35 47.3801 57.35 47.7401C57.35 48.1001 57.06 48.3901 56.7 48.3901Z" fill="#9AB7BB"/>
<path d="M56.7 40.32H19.44C19.08 40.32 18.79 40.03 18.79 39.67C18.79 39.31 19.08 39.02 19.44 39.02H56.7C57.06 39.02 57.35 39.31 57.35 39.67C57.35 40.03 57.06 40.32 56.7 40.32Z" fill="#9AB7BB"/>
<path d="M56.7 31.9001H19.44C19.08 31.9001 18.79 31.6101 18.79 31.2501C18.79 30.8901 19.08 30.6001 19.44 30.6001H56.7C57.06 30.6001 57.35 30.8901 57.35 31.2501C57.35 31.6101 57.06 31.9001 56.7 31.9001Z" fill="#9AB7BB"/>
<path d="M62.69 83.11C55.21 83.11 49.13 77.02 49.13 69.54C49.13 62.06 55.21 55.98 62.69 55.98C70.17 55.98 76.25 62.06 76.25 69.54C76.25 77.02 70.17 83.11 62.69 83.11ZM62.69 57.28C55.93 57.28 50.4301 62.78 50.4301 69.54C50.4301 76.3 55.93 81.81 62.69 81.81C69.45 81.81 74.95 76.31 74.95 69.54C74.95 62.77 69.45 57.28 62.69 57.28Z" fill="#9AB7BB"/>
<path d="M62.1887 72C62.1295 72 62.0638 71.9771 62.0046 71.9313L59.2434 69.6651C59.033 69.4934 58.941 69.047 59.0396 68.6808C59.1382 68.3145 59.3946 68.1542 59.6116 68.3259L62.1952 70.4434L66.3962 67.0669C66.6131 66.8952 66.8629 67.0669 66.9616 67.4332C67.0602 67.8109 66.9616 68.2458 66.7512 68.4175L62.3662 71.9313C62.307 71.9771 62.2478 72 62.1887 72Z" fill="#9AB7BB"/>
</svg>
