<svg width="87" height="87" viewBox="0 0 87 87" fill="none" xmlns="http://www.w3.org/2000/svg">
<path d="M71.47 69.1301H16.11C13.85 69.1301 12 67.2901 12 65.0201V25.1601C12 22.9001 13.84 21.05 16.11 21.05H30.9C31.26 21.05 31.55 21.3401 31.55 21.7001V43.8101H57.28V21.7001C57.28 21.3401 57.57 21.05 57.93 21.05H71.47C73.73 21.05 75.58 22.8901 75.58 25.1601V65.0201C75.58 67.28 73.74 69.1301 71.47 69.1301ZM16.11 22.36C14.56 22.36 13.31 23.6201 13.31 25.1601V65.0201C13.31 66.57 14.57 67.83 16.11 67.83H71.47C73.02 67.83 74.28 66.57 74.28 65.0201V25.1601C74.28 23.6101 73.02 22.36 71.47 22.36H58.58V44.4701C58.58 44.8301 58.29 45.1201 57.93 45.1201H30.9C30.54 45.1201 30.25 44.8301 30.25 44.4701V22.36H16.12H16.11Z" fill="#7E9A8E"/>
<path d="M53.85 80.3701C53.85 80.3701 53.84 80.3701 53.83 80.3701H33.75C33.55 80.3701 33.36 80.2801 33.24 80.1201C33.12 79.9601 33.08 79.7501 33.13 79.5601L36.08 68.3201C36.16 68.0301 36.41 67.8301 36.71 67.8301H50.88C51.17 67.8301 51.43 68.0301 51.51 68.3201L54.43 79.4101C54.48 79.5001 54.51 79.6101 54.51 79.7201C54.51 80.0801 54.22 80.3701 53.86 80.3701H53.85ZM34.59 79.0701H52.99L50.38 69.1301H37.21L34.6 79.0701H34.59Z" fill="#7E9A8E"/>
<path d="M62.71 83.11H24.86C24.5 83.11 24.21 82.8201 24.21 82.4601V79.7201C24.21 79.3601 24.5 79.0701 24.86 79.0701H62.71C63.07 79.0701 63.36 79.3601 63.36 79.7201V82.4601C63.36 82.8201 63.07 83.11 62.71 83.11ZM25.51 81.8101H62.06V80.3701H25.51V81.8101Z" fill="#7E9A8E"/>
<path d="M71.38 58.4201H16.06C15.7 58.4201 15.41 58.1301 15.41 57.7701V25.2301C15.41 24.8701 15.7 24.5801 16.06 24.5801H30.89C31.25 24.5801 31.54 24.8701 31.54 25.2301V43.8201H57.27V25.2301C57.27 24.8701 57.56 24.5801 57.92 24.5801H71.37C71.73 24.5801 72.02 24.8701 72.02 25.2301V57.7701C72.02 58.1301 71.73 58.4201 71.37 58.4201H71.38ZM16.71 57.1201H70.73V25.8801H58.58V44.4701C58.58 44.8301 58.29 45.1201 57.93 45.1201H30.9C30.54 45.1201 30.25 44.8301 30.25 44.4701V25.8801H16.72V57.1201H16.71Z" fill="#7E9A8E"/>
<path d="M43.79 66.8299C42.71 66.8299 41.83 65.9499 41.83 64.8799C41.83 63.8099 42.71 62.9299 43.79 62.9299C44.87 62.9299 45.74 63.8099 45.74 64.8799C45.74 65.9499 44.87 66.8299 43.79 66.8299ZM43.79 64.2299C43.43 64.2299 43.13 64.5199 43.13 64.8799C43.13 65.2399 43.42 65.5299 43.79 65.5299C44.16 65.5299 44.44 65.2399 44.44 64.8799C44.44 64.5199 44.15 64.2299 43.79 64.2299Z" fill="#7E9A8E"/>
<path d="M61.4 48.6899H27.41C27.05 48.6899 26.76 48.3999 26.76 48.0399V40.8399C26.76 40.4799 27.05 40.1899 27.41 40.1899C27.77 40.1899 28.06 40.4799 28.06 40.8399V47.39H60.75V40.8399C60.75 40.4799 61.04 40.1899 61.4 40.1899C61.76 40.1899 62.05 40.4799 62.05 40.8399V48.0399C62.05 48.3999 61.76 48.6899 61.4 48.6899Z" fill="#7E9A8E"/>
<path d="M57.92 45.1199H30.89C30.53 45.1199 30.24 44.8299 30.24 44.4699V13.8199C30.24 13.4599 30.53 13.1699 30.89 13.1699H57.92C58.28 13.1699 58.57 13.4599 58.57 13.8199V44.4699C58.57 44.8299 58.28 45.1199 57.92 45.1199ZM31.54 43.8199H57.27V14.4699H31.54V43.8199Z" fill="#7E9A8E"/>
<path d="M50.67 20.18C50.31 20.18 50.02 19.89 50.02 19.53V10.92C50.02 7.82001 47.5 5.29999 44.4 5.29999C41.3 5.29999 38.78 7.82001 38.78 10.92V19.53C38.78 19.89 38.49 20.18 38.13 20.18C37.77 20.18 37.48 19.89 37.48 19.53V10.92C37.48 7.11001 40.58 4 44.4 4C48.22 4 51.32 7.10001 51.32 10.92V19.53C51.32 19.89 51.03 20.18 50.67 20.18Z" fill="#7E9A8E"/>
<path d="M50.67 23.5701C49.38 23.5701 48.32 22.5201 48.32 21.2201C48.32 19.9201 49.37 18.8701 50.67 18.8701C51.97 18.8701 53.02 19.9201 53.02 21.2201C53.02 22.5201 51.97 23.5701 50.67 23.5701ZM50.67 20.1801C50.09 20.1801 49.62 20.6501 49.62 21.2301C49.62 21.8101 50.09 22.2801 50.67 22.2801C51.25 22.2801 51.72 21.8101 51.72 21.2301C51.72 20.6501 51.25 20.1801 50.67 20.1801ZM38.14 23.5701C36.85 23.5701 35.79 22.5201 35.79 21.2201C35.79 19.9201 36.84 18.8701 38.14 18.8701C39.44 18.8701 40.49 19.9201 40.49 21.2201C40.49 22.5201 39.44 23.5701 38.14 23.5701ZM38.14 20.1801C37.56 20.1801 37.09 20.6501 37.09 21.2301C37.09 21.8101 37.56 22.2801 38.14 22.2801C38.72 22.2801 39.19 21.8101 39.19 21.2301C39.19 20.6501 38.72 20.1801 38.14 20.1801Z" fill="#7E9A8E"/>
</svg>
